<?xml version="1.0" encoding="utf-8"?>
<!-- Generator: Adobe Illustrator 24.1.1, SVG Export Plug-In . SVG Version: 6.00 Build 0)  -->
<svg version="1.1" id="Layer_1" xmlns="http://www.w3.org/2000/svg" xmlns:xlink="http://www.w3.org/1999/xlink" x="0px" y="0px"
	 viewBox="0 0 100 100" style="enable-background:new 0 0 100 100;" xml:space="preserve">
<style type="text/css">
	.st0{fill:#EF6D00;}
	.st1{fill:#FFFFFF;}
	.st2{fill:#F28838;}
</style>
<g>
	<path class="st0" d="M50.1,49.9L50.1,49.9L50.1,49.9z"/>
	<path class="st1" d="M50.1,49.9h46.7c0-25.8-21-46.7-46.7-46.7V49.9L50.1,49.9z"/>
	<path class="st2" d="M96.8,49.9H50.1l30.1,35.8C90.4,77.2,96.8,64.3,96.8,49.9z"/>
	<path class="st0" d="M50.1,49.9L50.1,49.9V3.3c-11.4,0-21.9,4.1-30.1,11C9.8,22.8,3.2,35.7,3.2,50.1c0,25.8,21,46.7,46.7,46.7
		c11.4,0,21.9-4.1,30.1-11L50.1,49.9z"/>
</g>
</svg>
