<?xml version="1.0" encoding="utf-8"?>
<!-- Generator: Adobe Illustrator 24.1.1, SVG Export Plug-In . SVG Version: 6.00 Build 0)  -->
<svg version="1.1" id="Layer_1" xmlns="http://www.w3.org/2000/svg" xmlns:xlink="http://www.w3.org/1999/xlink" x="0px" y="0px"
	 viewBox="0 0 150 40" style="enable-background:new 0 0 150 40;" xml:space="preserve">
<style type="text/css">
	.st0{fill:#FFFFFF;}
</style>
<path class="st0" d="M12.5,27.9L5.2,5.6h3.1l3.5,11c1,3,1.8,5.7,2.4,8.3h0.1c0.6-2.6,1.6-5.4,2.5-8.3l3.8-11h3.1l-8,22.3L12.5,27.9
	L12.5,27.9z"/>
<path class="st0" d="M36.7,24.4c1.3,0.8,3.2,1.5,5.2,1.5c2.9,0,4.7-1.5,4.7-3.8c0-2.1-1.2-3.3-4.2-4.4c-3.6-1.3-5.9-3.2-5.9-6.3
	c0-3.5,2.9-6.1,7.2-6.1c2.3,0,3.9,0.5,4.9,1.1l-0.8,2.3c-0.7-0.4-2.2-1.1-4.2-1.1c-3,0-4.2,1.8-4.2,3.3c0,2.1,1.3,3.1,4.4,4.3
	c3.8,1.5,5.7,3.3,5.7,6.5c0,3.4-2.5,6.4-7.8,6.4c-2.2,0-4.5-0.6-5.7-1.4L36.7,24.4z"/>
<path class="st0" d="M68.6,8h-6.8V5.6h16.5V8h-6.8v19.8h-2.9V8z"/>
<path class="st0" d="M112.3,17.4h-8.7v8h9.7v2.4h-12.5V5.6h12V8h-9.2v7h8.7V17.4z"/>
<path class="st0" d="M131.3,5.6v13.2c0,5,2.2,7.1,5.2,7.1c3.3,0,5.4-2.2,5.4-7.1V5.6h2.9v13c0,6.8-3.6,9.6-8.4,9.6
	c-4.6,0-8-2.6-8-9.5V5.6H131.3z"/>
<path class="st0" d="M29,9.2c1.2,0,1.9-0.8,1.9-1.8c0-1-0.7-1.8-1.8-1.8c-1.1,0-1.8,0.8-1.8,1.8C27.2,8.4,27.9,9.2,29,9.2z"/>
<rect x="27.6" y="11.9" class="st0" width="2.9" height="16"/>
<rect x="54.9" y="11.9" class="st0" width="2.9" height="16"/>
<path class="st0" d="M56.3,9.2c1.2,0,1.9-0.8,1.8-1.8c0-1-0.7-1.8-1.8-1.8c-1.1,0-1.8,0.8-1.8,1.8C54.5,8.4,55.3,9.2,56.3,9.2z"/>
<path class="st0" d="M92.8,9.2c1.2,0,1.8-0.8,1.8-1.8c0-1-0.7-1.8-1.8-1.8c-1.1,0-1.8,0.8-1.8,1.8C91,8.3,91.7,9.2,92.8,9.2z"/>
<path class="st0" d="M91.4,25.3c0,3.8-0.3,5.1-1.1,6c-0.7,0.8-1.8,1.1-3.2,1.2l0.3,2.3c1.6,0,3.7-0.5,5-1.8c1.4-1.5,1.9-3.5,1.9-6.6
	V11.9h-2.9L91.4,25.3L91.4,25.3z"/>
<path class="st0" d="M120.4,9.2c1.2,0,1.8-0.8,1.8-1.8c0-1-0.7-1.8-1.8-1.8c-1.1,0-1.8,0.8-1.8,1.8C118.6,8.3,119.3,9.2,120.4,9.2z"
	/>
<path class="st0" d="M119,25.3c0,3.8-0.3,5.1-1.1,6c-0.7,0.8-1.8,1.1-3.2,1.2l0.3,2.3c1.6,0,3.7-0.5,5-1.8c1.4-1.5,1.9-3.5,1.9-6.6
	V11.9H119L119,25.3L119,25.3z"/>
</svg>
