<?xml version="1.0" encoding="utf-8"?>
<!-- Generator: Adobe Illustrator 24.1.1, SVG Export Plug-In . SVG Version: 6.00 Build 0)  -->
<svg version="1.1" id="Layer_1" xmlns="http://www.w3.org/2000/svg" xmlns:xlink="http://www.w3.org/1999/xlink" x="0px" y="0px"
	 viewBox="0 0 150 40" style="enable-background:new 0 0 150 40;" xml:space="preserve">
<style type="text/css">
	.st0{fill:#FFFFFF;}
	.st1{fill:#EF6D00;}
</style>
<path class="st0" d="M12.47,27.87L5.2,5.59h3.11l3.47,10.97c0.96,3.01,1.78,5.72,2.38,8.33h0.07c0.63-2.58,1.55-5.39,2.55-8.3
	l3.77-11.01h3.07l-7.96,22.27H12.47z"/>
<path class="st0" d="M36.67,24.36c1.29,0.79,3.17,1.45,5.16,1.45c2.94,0,4.66-1.55,4.66-3.8c0-2.08-1.19-3.27-4.2-4.43
	c-3.64-1.29-5.88-3.17-5.88-6.31c0-3.47,2.88-6.05,7.2-6.05c2.28,0,3.93,0.53,4.92,1.09l-0.79,2.35c-0.73-0.4-2.21-1.06-4.23-1.06
	c-3.04,0-4.2,1.82-4.2,3.34c0,2.08,1.35,3.11,4.43,4.3c3.77,1.45,5.68,3.27,5.68,6.54c0,3.44-2.54,6.41-7.8,6.41
	c-2.15,0-4.49-0.63-5.69-1.42L36.67,24.36z"/>
<path class="st0" d="M68.62,8.04h-6.77V5.59h16.49v2.45h-6.81v19.83h-2.91V8.04z"/>
<path class="st0" d="M112.34,17.42h-8.66v8.03h9.65v2.41h-12.53V5.59h12.03V8h-9.15v7.04h8.66V17.42z"/>
<path class="st0" d="M131.28,5.59v13.19c0,4.99,2.21,7.11,5.19,7.11c3.3,0,5.42-2.18,5.42-7.11V5.59h2.91v12.99
	c0,6.84-3.6,9.65-8.43,9.65c-4.56,0-8-2.61-8-9.52V5.59H131.28z"/>
<path class="st1" d="M28.97,9.16c1.16,0,1.88-0.79,1.85-1.78c0-1.02-0.69-1.82-1.78-1.82c-1.06,0-1.82,0.79-1.82,1.82
	C27.21,8.37,27.94,9.16,28.97,9.16z"/>
<rect x="27.58" y="11.87" class="st0" width="2.91" height="16"/>
<rect x="54.91" y="11.87" class="st0" width="2.91" height="16"/>
<path class="st1" d="M56.3,9.16c1.16,0,1.88-0.79,1.85-1.78c0-1.02-0.69-1.82-1.78-1.82c-1.06,0-1.82,0.79-1.82,1.82
	C54.54,8.37,55.27,9.16,56.3,9.16z"/>
<path class="st1" d="M92.81,9.16c1.16,0,1.85-0.83,1.82-1.78c0-1.02-0.69-1.82-1.75-1.82c-1.09,0-1.85,0.79-1.85,1.82
	C91.03,8.33,91.72,9.16,92.81,9.16z"/>
<path class="st0" d="M91.39,25.25c0,3.83-0.3,5.09-1.09,6.01c-0.69,0.76-1.85,1.12-3.17,1.22l0.3,2.28c1.55,0,3.67-0.53,4.96-1.82
	c1.42-1.45,1.92-3.47,1.92-6.58V11.87h-2.91V25.25z"/>
<path class="st1" d="M120.41,9.16c1.16,0,1.85-0.83,1.82-1.78c0-1.02-0.69-1.82-1.75-1.82c-1.09,0-1.85,0.79-1.85,1.82
	C118.62,8.33,119.32,9.16,120.41,9.16z"/>
<path class="st0" d="M118.99,25.25c0,3.83-0.3,5.09-1.09,6.01c-0.69,0.76-1.85,1.12-3.17,1.22l0.3,2.28c1.55,0,3.67-0.53,4.96-1.82
	c1.42-1.45,1.92-3.47,1.92-6.58V11.87h-2.91V25.25z"/>
</svg>
