<?xml version="1.0" encoding="utf-8"?>
<!-- Generator: Adobe Illustrator 24.1.1, SVG Export Plug-In . SVG Version: 6.00 Build 0)  -->
<svg version="1.1" id="Layer_1" xmlns="http://www.w3.org/2000/svg" xmlns:xlink="http://www.w3.org/1999/xlink" x="0px" y="0px"
	 viewBox="0 0 100 100" style="enable-background:new 0 0 100 100;" xml:space="preserve">
<style type="text/css">
	.st0{fill:#EF6D00;}
</style>
<path class="st0" d="M50,5.73C32.61,5.71,18.56,19.69,18.53,36.98c-0.01,7.84,3.21,14.54,8.07,20.25
	c8.86,10.42,16.61,21.38,20.84,34.55c0.38,1.19,0.95,2.54,2.59,2.5c1.78-0.04,2.26-1.56,2.68-2.84c3.97-12.05,10.6-22.45,18.99-31.9
	c4.98-5.62,8.98-12.09,9.65-19.69C82.98,21.31,68.32,5.47,50,5.73z M60.69,37.28C60.65,43,55.61,48,49.95,47.95
	c-5.71-0.05-10.68-5.07-10.65-10.78c0.02-5.7,5.06-10.7,10.76-10.67C55.74,26.53,60.73,31.59,60.69,37.28z"/>
</svg>
