<?xml version="1.0" encoding="utf-8"?>
<!-- Generator: Adobe Illustrator 24.1.1, SVG Export Plug-In . SVG Version: 6.00 Build 0)  -->
<svg version="1.1" id="Layer_1" xmlns="http://www.w3.org/2000/svg" xmlns:xlink="http://www.w3.org/1999/xlink" x="0px" y="0px"
	 viewBox="0 0 100 100" style="enable-background:new 0 0 100 100;" xml:space="preserve">
<style type="text/css">
	.st0{fill:#FFFFFF;}
</style>
<g>
	<g>
		<path class="st0" d="M43.16,66.43L30.72,72.1l-0.57-1.24c-0.96-2.12-1.51-3.95-1.63-5.49s0.04-3.07,0.5-4.6
			c0.45-1.52,1.71-4.42,3.78-8.68c1.11-2.25,1.39-3.97,0.85-5.17c-0.55-1.2-1.33-1.97-2.34-2.32c-1.01-0.34-2.24-0.19-3.68,0.47
			c-1.55,0.71-2.6,1.8-3.15,3.29s-0.38,3.58,0.5,6.26l-13.42,4.22c-1.69-4.87-1.71-9.41-0.05-13.6s5.55-7.69,11.66-10.47
			c4.76-2.17,9.06-2.92,12.89-2.27c5.2,0.88,8.82,3.55,10.85,8.03c0.85,1.86,1.15,3.88,0.91,6.07c-0.24,2.19-1.38,5.25-3.41,9.19
			c-1.41,2.75-2.16,4.79-2.26,6.11C42.05,63.22,42.39,64.73,43.16,66.43z M31.8,75.6l13.33-6.07l5.36,11.76l-13.33,6.07L31.8,75.6z"
			/>
	</g>
	<g>
		<path class="st0" d="M68.69,51.1l-13-4.26l0.43-1.3c0.72-2.21,1.56-3.92,2.52-5.14c0.95-1.21,2.11-2.23,3.48-3.04
			s4.25-2.09,8.66-3.83c2.34-0.9,3.72-1.98,4.13-3.23c0.41-1.25,0.36-2.35-0.15-3.29s-1.52-1.65-3.03-2.15
			c-1.62-0.53-3.13-0.43-4.55,0.29c-1.41,0.72-2.7,2.37-3.87,4.94L50.58,24.1c2.06-4.73,5.12-8.08,9.18-10.04s9.29-1.9,15.67,0.19
			c4.97,1.63,8.64,3.98,11.02,7.06c3.23,4.16,4.08,8.58,2.55,13.26c-0.64,1.94-1.78,3.63-3.45,5.08s-4.57,2.93-8.73,4.45
			c-2.9,1.07-4.83,2.06-5.8,2.97C70.05,47.98,69.28,49.32,68.69,51.1z M54.12,50.15l13.92,4.56l-4.02,12.28L50.1,62.43L54.12,50.15z
			"/>
	</g>
</g>
</svg>
