<?xml version="1.0" encoding="utf-8"?>
<!-- Generator: Adobe Illustrator 24.1.1, SVG Export Plug-In . SVG Version: 6.00 Build 0)  -->
<svg version="1.1" id="Layer_1" xmlns="http://www.w3.org/2000/svg" xmlns:xlink="http://www.w3.org/1999/xlink" x="0px" y="0px"
	 viewBox="0 0 100 100" style="enable-background:new 0 0 100 100;" xml:space="preserve">
<style type="text/css">
	.st0{fill:#EF6D00;}
</style>
<g>
	<g>
		<path class="st0" d="M41.9,69.5l-14.8,6.7l-0.7-1.5c-1.1-2.5-1.8-4.7-1.9-6.5c-0.1-1.8,0-3.6,0.6-5.5c0.5-1.8,2-5.3,4.5-10.3
			c1.3-2.7,1.7-4.7,1-6.1c-0.7-1.4-1.6-2.3-2.8-2.8c-1.2-0.4-2.7-0.2-4.4,0.6c-1.8,0.8-3.1,2.1-3.7,3.9c-0.7,1.8-0.5,4.3,0.6,7.4
			l-15.9,5c-2-5.8-2-11.2-0.1-16.2s6.6-9.1,13.9-12.4c5.7-2.6,10.8-3.5,15.3-2.7c6.2,1,10.5,4.2,12.9,9.5c1,2.2,1.4,4.6,1.1,7.2
			c-0.3,2.6-1.6,6.2-4.1,10.9c-1.7,3.3-2.6,5.7-2.7,7.3C40.5,65.7,40.9,67.5,41.9,69.5z M28.4,80.4l15.8-7.2l6.4,14l-15.8,7.2
			L28.4,80.4z"/>
	</g>
	<g>
		<path class="st0" d="M72.2,51.3l-15.5-5.1l0.5-1.5c0.9-2.6,1.9-4.7,3-6.1c1.1-1.4,2.5-2.7,4.1-3.6c1.6-1,5.1-2.5,10.3-4.6
			c2.8-1.1,4.4-2.4,4.9-3.8c0.5-1.5,0.4-2.8-0.2-3.9c-0.6-1.1-1.8-2-3.6-2.6c-1.9-0.6-3.7-0.5-5.4,0.3c-1.7,0.9-3.2,2.8-4.6,5.9
			l-15.1-7.1c2.4-5.6,6.1-9.6,10.9-11.9s11-2.3,18.6,0.2c5.9,1.9,10.3,4.7,13.1,8.4c3.8,4.9,4.8,10.2,3,15.8c-0.8,2.3-2.1,4.3-4.1,6
			c-2,1.7-5.4,3.5-10.4,5.3c-3.4,1.3-5.7,2.4-6.9,3.5C73.8,47.6,72.9,49.2,72.2,51.3z M54.9,50.2l16.5,5.4l-4.8,14.6l-16.5-5.4
			L54.9,50.2z"/>
	</g>
</g>
</svg>
