<?xml version="1.0" encoding="utf-8"?>
<!-- Generator: Adobe Illustrator 24.1.1, SVG Export Plug-In . SVG Version: 6.00 Build 0)  -->
<svg version="1.1" id="Layer_1" xmlns="http://www.w3.org/2000/svg" xmlns:xlink="http://www.w3.org/1999/xlink" x="0px" y="0px"
	 viewBox="0 0 300 600" style="enable-background:new 0 0 300 600;" xml:space="preserve">
<style type="text/css">
	.st0{fill:#8B8CA4;}
	.st1{fill:#514F51;}
	.st2{fill:#FFFFFF;}
	.st3{fill:#F29D1C;}
	.st4{fill:#02812F;}
	.st5{fill:#085E24;}
	.st6{opacity:0.6;fill:#FFFFFF;}
</style>
<g>
	
		<rect x="89.45" y="330.19" transform="matrix(1 1.953895e-03 -1.953895e-03 1 0.8167 -0.292)" class="st0" width="120.81" height="175.34"/>
	<path class="st0" d="M117.17,483.99l-17.16-0.03c-13.48-0.03-24.48-11.07-24.45-24.55l0.24-124.45
		c0.03-13.48,11.07-24.48,24.55-24.45l17.16,0.03c2.71,0.01,4.93,2.23,4.93,4.95l-0.32,163.58
		C122.11,481.78,119.89,484,117.17,483.99z"/>
	<path class="st0" d="M202.03,484.16l-17.16-0.03c-2.71-0.01-4.93-2.23-4.93-4.95l0.32-163.58c0.01-2.71,2.23-4.93,4.95-4.93
		l17.16,0.03c13.48,0.03,24.48,11.07,24.45,24.55l-0.24,124.45C226.55,473.18,215.5,484.18,202.03,484.16z"/>
	<path class="st0" d="M250.5,524.37c0.03-16.85-13.72-30.66-30.57-30.69l-139.7-0.27c-16.85-0.03-30.66,13.72-30.69,30.57
		L49.5,543.4l200.95,0.39L250.5,524.37z"/>
	<path class="st1" d="M100.09,493.45c0,0,55.02,16.5,97.64,0.19L100.09,493.45z"/>
	<path class="st1" d="M113.38,324.34c0,0,33.94,40.63,73.31,0.14l-49.53-34.62L113.38,324.34z"/>
	<g>
		<circle class="st0" cx="150.29" cy="194.53" r="49.62"/>
		<path class="st0" d="M221.93,227.9l-143.42-0.28c-2.56-0.01-4.66-2.11-4.65-4.67l0.07-34.69c0.01-2.56,2.11-4.66,4.67-4.65
			l143.42,0.28c2.56,0.01,4.66,2.11,4.65,4.67l-0.07,34.69C226.6,225.81,224.5,227.9,221.93,227.9z"/>
		<path class="st0" d="M150.01,335.63L150.01,335.63c-37.95-0.07-64.25-32.83-59.26-67.23l9.94-68.51
			c3.02-20.82,25.22-36.04,49.66-35.99h0c24.43,0.05,46.58,15.35,49.52,36.18l9.67,68.55C214.39,303.05,187.96,335.7,150.01,335.63z
			"/>
		<path class="st0" d="M90.07,288.72L90.07,288.72c-6.88-0.45-10.93-11.92-9.27-23.61l3.3-23.28c1-7.07,5.36-12.02,9.79-11.73h0
			c4.43,0.29,8.11,5.76,8.19,12.9l0.26,23.51C102.45,278.31,96.94,289.16,90.07,288.72z"/>
		<path class="st0" d="M210.34,288.95L210.34,288.95c6.88-0.42,10.98-11.88,9.37-23.57l-3.21-23.29
			c-0.97-7.08-5.31-12.04-9.74-11.77h0c-4.43,0.27-8.13,5.73-8.24,12.87l-0.35,23.51C198,278.5,203.46,289.37,210.34,288.95z"/>
	</g>
	<path class="st1" d="M117,226.83c0,0,39.15,7.84,69.47,0.14L117,226.83z"/>
	<path class="st1" d="M115.36,183.68c0,0,39.18-7.69,69.47,0.14L115.36,183.68z"/>
	<circle class="st1" cx="125.57" cy="256.62" r="3.02"/>
	<circle class="st1" cx="175.63" cy="256.72" r="3.02"/>
	<path class="st1" d="M160.65,269.03c-0.56,8.58-5.15,15.86-11.15,15.67h0c-5.62-0.17-9.6-6.82-10.1-14.73
		c-0.62,9.33,3.67,17.98,10.09,18.18h0c6.75,0.21,11.73-9.04,11.16-18.96L160.65,269.03z"/>
	<path class="st1" d="M140.79,276.76c-0.49,4.71-4.62,8.71-10.01,8.6h0c-5.05-0.1-8.63-3.75-9.09-8.1c-0.55,5.13,3.31,9.88,9.08,10
		h0c6.07,0.12,10.54-4.96,10.02-10.41L140.79,276.76z"/>
	<path class="st1" d="M159.68,275.07c0.48,4.71,4.59,8.73,9.97,8.64h0c5.05-0.08,8.65-3.72,9.12-8.06c0.53,5.13-3.35,9.87-9.12,9.96
		h0c-6.07,0.1-10.52-5-9.98-10.45L159.68,275.07z"/>
	<path class="st1" d="M149.63,311.6c-10.03-0.02-18.26-6.14-19.28-13.98c-0.07,0.55-0.11,1.1-0.11,1.66
		c-0.02,8.62,8.66,15.62,19.39,15.64c10.72,0.02,19.43-6.95,19.45-15.56c0-0.56-0.04-1.11-0.11-1.66
		C167.92,305.53,159.65,311.62,149.63,311.6z"/>
	
		<ellipse transform="matrix(1.953895e-03 -1 1 1.953895e-03 20.3547 412.3088)" class="st1" cx="216.73" cy="195.96" rx="6.04" ry="3.45"/>
	
		<ellipse transform="matrix(1.953895e-03 -1 1 1.953895e-03 1.8205 411.8234)" class="st1" cx="207.22" cy="205" rx="3.02" ry="3.45"/>
	<circle class="st1" cx="217.98" cy="218.83" r="2.16"/>
	
		<ellipse transform="matrix(1.953895e-03 -1 1 1.953895e-03 -114.9567 545.1101)" class="st1" cx="215.61" cy="330.15" rx="3.02" ry="3.45"/>
	<circle class="st1" cx="211.69" cy="346.53" r="2.16"/>
	<circle class="st1" cx="209.12" cy="339.63" r="1.29"/>
	<circle class="st1" cx="203.11" cy="321.49" r="2.16"/>
	
		<ellipse transform="matrix(0.9991 -0.0415 0.0415 0.9991 -21.0305 8.6259)" class="st1" cx="197.37" cy="511.16" rx="3.02" ry="3.45"/>
	<circle class="st1" cx="180.83" cy="507.96" r="2.16"/>
	<circle class="st1" cx="187.62" cy="505.09" r="1.29"/>
	<circle class="st1" cx="205.48" cy="498.3" r="2.16"/>
	<circle class="st1" cx="175.81" cy="160.06" r="2.16"/>
	
		<ellipse transform="matrix(0.3718 -0.9283 0.9283 0.3718 -90.1836 210.7729)" class="st1" cx="110.64" cy="172.02" rx="5.61" ry="1.73"/>
	<circle class="st1" cx="182.28" cy="165.69" r="1.73"/>
</g>
<g>
	<path class="st2" d="M114.17,423.37v-27.58h-9.85v-5.62h26.38v5.62h-9.83v27.58H114.17z"/>
	<path class="st2" d="M132.83,406.97c0-3.38,0.51-6.22,1.52-8.51c0.75-1.69,1.78-3.21,3.09-4.55c1.31-1.34,2.74-2.34,4.29-2.99
		c2.07-0.88,4.45-1.31,7.15-1.31c4.89,0,8.8,1.52,11.74,4.55c2.94,3.03,4.4,7.25,4.4,12.66c0,5.36-1.46,9.55-4.37,12.58
		s-6.81,4.54-11.68,4.54c-4.94,0-8.86-1.5-11.77-4.52C134.28,416.4,132.83,412.26,132.83,406.97z M139.73,406.75
		c0,3.76,0.87,6.61,2.6,8.55c1.74,1.94,3.94,2.91,6.61,2.91c2.67,0,4.86-0.96,6.58-2.89c1.71-1.92,2.57-4.81,2.57-8.66
		c0-3.8-0.83-6.64-2.5-8.51c-1.67-1.87-3.88-2.81-6.65-2.81c-2.76,0-4.99,0.95-6.68,2.84S139.73,402.93,139.73,406.75z"/>
	<path class="st2" d="M170.25,423.37v-33.19h10.75c4.08,0,6.73,0.17,7.97,0.5c1.9,0.5,3.49,1.58,4.78,3.25
		c1.28,1.67,1.92,3.82,1.92,6.46c0,2.04-0.37,3.75-1.11,5.14c-0.74,1.39-1.68,2.48-2.82,3.27s-2.3,1.32-3.47,1.57
		c-1.6,0.32-3.92,0.48-6.95,0.48h-4.37v12.52H170.25z M176.95,395.79v9.42h3.67c2.64,0,4.41-0.17,5.3-0.52
		c0.89-0.35,1.59-0.89,2.09-1.63c0.51-0.74,0.76-1.6,0.76-2.58c0-1.21-0.36-2.2-1.06-2.99c-0.71-0.78-1.61-1.28-2.69-1.47
		c-0.8-0.15-2.41-0.23-4.82-0.23H176.95z"/>
</g>
<g>
	<path class="st0" d="M128.49,52.73l20.97-20.97c0.29-0.29,0.77-0.29,1.06,0l20.98,20.97c0.29,0.29,0.29,0.76,0,1.05l0,0
		c-0.29,0.29-0.76,0.29-1.05,0L150,33.33l-20.46,20.46c-0.29,0.29-0.76,0.29-1.05,0l0,0C128.21,53.49,128.21,53.02,128.49,52.73z"/>
</g>
<g>
	<path class="st0" d="M128.49,86.23l20.97-20.97c0.29-0.29,0.77-0.29,1.06,0l20.98,20.97c0.29,0.29,0.29,0.76,0,1.05l0,0
		c-0.29,0.29-0.76,0.29-1.05,0L150,66.83l-20.46,20.46c-0.29,0.29-0.76,0.29-1.05,0l0,0C128.21,86.99,128.21,86.52,128.49,86.23z"/>
</g>
<g>
	<path class="st0" d="M128.49,119.73l20.97-20.97c0.29-0.29,0.77-0.29,1.06,0l20.98,20.97c0.29,0.29,0.29,0.76,0,1.05l0,0
		c-0.29,0.29-0.76,0.29-1.05,0L150,100.33l-20.46,20.46c-0.29,0.29-0.76,0.29-1.05,0l0,0C128.21,120.49,128.21,120.02,128.49,119.73
		z"/>
</g>
<g>
	<g>
		<path class="st3" d="M31.38,295.92c-1.14,3.81,0.76,4.21-0.55,7.96c-0.54,1.55-1.46,2.94-2.04,4.47c-1.91,5-0.01,10.56,1.87,15.57
			c0.51,1.35,1.02,2.71,1.9,3.85c1.3,1.69,3.29,2.72,5.3,3.41c6.97,2.39,14.93,1.16,21.23-2.64c6.3-3.81,10.98-10.02,13.56-16.92
			c0.43-1.15,0.81-2.34,0.82-3.57c0.02-1.36-0.42-2.68-1.01-3.9c-2.34-4.8-7.02-7.98-11.61-10.71c-1.51-0.9-3.08-1.79-4.82-2.05
			c-2.15-0.33-4.33,0.32-6.51,0.26c-3.18-0.09-6.11-1.69-9.24-2.27C37.16,288.8,32.29,292.87,31.38,295.92L31.38,295.92z"/>
	</g>
	<g>
		<path class="st4" d="M32.14,288.77c2.14-3.14,5.54-5.4,9.27-6.15c0.82-0.16,1.67-0.26,2.5-0.13c1.14,0.18,2.16,0.76,3.17,1.3
			c2.28,1.22,4.65,2.28,7.08,3.16c0.21,0.08,0.43,0.16,0.56,0.34c0.27,0.38-0.01,0.9-0.31,1.26c-3.21,3.83-8.86,5.39-13.58,3.75
			c-2.9-1.01-5.47-3.1-8.53-3.33L32.14,288.77z"/>
	</g>
	<path class="st5" d="M32.03,288.69c0,0,6.91-3.59,13.92-0.84C45.95,287.85,39.87,283.82,32.03,288.69z"/>
	<path class="st4" d="M29.13,286.62c-0.5,0.53-0.41,1.34,0.19,1.71c1.57,0.96,4.4,2.79,6.3,4.66c0.22,0.21,0.59-0.04,0.45-0.31
		c-0.88-1.72-2.43-4.37-4.6-6.69c-0.47-0.5-1.32-0.48-1.81,0.05L29.13,286.62z"/>
	<path class="st2" d="M58.64,297.92L58.45,298c-0.13,0.05-0.27-0.01-0.33-0.14l-0.08-0.19c-0.05-0.13,0.01-0.27,0.14-0.33l0.19-0.08
		c0.13-0.05,0.27,0.01,0.33,0.14l0.08,0.19C58.83,297.72,58.76,297.87,58.64,297.92z"/>
	<path class="st2" d="M32.51,314.55l-0.19,0.08c-0.13,0.05-0.27-0.01-0.33-0.14l-0.08-0.19c-0.05-0.13,0.01-0.27,0.14-0.33
		l0.19-0.08c0.13-0.05,0.27,0.01,0.33,0.14l0.08,0.19C32.7,314.35,32.63,314.5,32.51,314.55z"/>
	<path class="st2" d="M43.32,326.23l-0.19,0.08c-0.13,0.05-0.27-0.01-0.33-0.14l-0.08-0.19c-0.05-0.13,0.01-0.27,0.14-0.33
		l0.19-0.08c0.13-0.05,0.27,0.01,0.33,0.14l0.08,0.19C43.51,326.03,43.44,326.18,43.32,326.23z"/>
	<path class="st2" d="M71.67,305.65l-0.19,0.08c-0.13,0.05-0.27-0.01-0.33-0.14l-0.08-0.19c-0.05-0.13,0.01-0.27,0.14-0.33
		l0.19-0.08c0.13-0.05,0.27,0.01,0.33,0.14l0.08,0.19C71.87,305.45,71.8,305.6,71.67,305.65z"/>
	<path class="st2" d="M68.77,302.23l-0.19,0.08c-0.13,0.05-0.27-0.01-0.33-0.14l-0.08-0.19c-0.05-0.13,0.01-0.27,0.14-0.33
		l0.19-0.08c0.13-0.05,0.27,0.01,0.33,0.14l0.08,0.19C68.96,302.04,68.9,302.18,68.77,302.23z"/>
	<path class="st6" d="M68.52,305.39l-0.19,0.08c-0.13,0.05-0.27-0.01-0.33-0.14l-0.08-0.19c-0.05-0.13,0.01-0.27,0.14-0.33
		l0.19-0.08c0.13-0.05,0.27,0.01,0.33,0.14l0.08,0.19C68.71,305.19,68.65,305.34,68.52,305.39z"/>
	<path class="st2" d="M61.16,309.88l-0.19,0.08c-0.13,0.05-0.27-0.01-0.33-0.14l-0.08-0.19c-0.05-0.13,0.01-0.27,0.14-0.33
		l0.19-0.08c0.13-0.05,0.27,0.01,0.33,0.14l0.08,0.19C61.35,309.68,61.29,309.83,61.16,309.88z"/>
	<path class="st2" d="M68.02,315.52l-0.19,0.08c-0.13,0.05-0.27-0.01-0.33-0.14l-0.08-0.19c-0.05-0.13,0.01-0.27,0.14-0.33
		l0.19-0.08c0.13-0.05,0.27,0.01,0.33,0.14l0.08,0.19C68.21,315.32,68.14,315.47,68.02,315.52z"/>
	<path class="st6" d="M68.27,312.36l-0.19,0.08c-0.13,0.05-0.27-0.01-0.33-0.14l-0.08-0.19c-0.05-0.13,0.01-0.27,0.14-0.33
		l0.19-0.08c0.13-0.05,0.27,0.01,0.33,0.14l0.08,0.19C68.46,312.16,68.4,312.31,68.27,312.36z"/>
	<path class="st2" d="M33.97,323.88l-0.19,0.08c-0.13,0.05-0.27-0.01-0.33-0.14l-0.08-0.19c-0.05-0.13,0.01-0.27,0.14-0.33
		l0.19-0.08c0.13-0.05,0.27,0.01,0.33,0.14l0.08,0.19C34.16,323.69,34.1,323.83,33.97,323.88z"/>
	<path class="st6" d="M34.89,320.46l-0.19,0.08c-0.13,0.05-0.27-0.01-0.33-0.14l-0.08-0.19c-0.05-0.13,0.01-0.27,0.14-0.33
		l0.19-0.08c0.13-0.05,0.27,0.01,0.33,0.14l0.08,0.19C35.08,320.26,35.01,320.41,34.89,320.46z"/>
	<path class="st6" d="M38.72,328.08l-0.19,0.08c-0.13,0.05-0.27-0.01-0.33-0.14l-0.08-0.19c-0.05-0.13,0.01-0.27,0.14-0.33
		l0.19-0.08c0.13-0.05,0.27,0.01,0.33,0.14l0.08,0.19C38.91,327.88,38.85,328.03,38.72,328.08z"/>
</g>
<g>
	<g>
		<path class="st3" d="M265.89,462.14c-3.49,0.14-3.28,1.84-6.78,1.83c-1.44,0-2.86-0.37-4.3-0.42c-4.71-0.15-8.79,3.02-12.42,6.02
			c-0.97,0.81-1.96,1.63-2.66,2.69c-1.03,1.57-1.32,3.51-1.31,5.39c0.01,6.48,3.31,12.75,8.29,16.9s11.49,6.26,17.96,6.43
			c1.08,0.03,2.18,0,3.2-0.34c1.13-0.38,2.11-1.12,2.96-1.96c3.32-3.33,4.63-8.13,5.58-12.73c0.31-1.52,0.6-3.08,0.33-4.6
			c-0.34-1.88-1.51-3.51-2.09-5.34c-0.84-2.67-0.35-5.57-0.76-8.34C273.47,464.91,268.69,462.03,265.89,462.14L265.89,462.14z"/>
	</g>
	<g>
		<path class="st4" d="M272.05,460.73c3.23,0.88,6.08,3.06,7.77,5.95c0.37,0.64,0.7,1.32,0.82,2.04c0.18,1-0.01,2.02-0.17,3.01
			c-0.36,2.25-0.56,4.52-0.6,6.8c0,0.2-0.01,0.41-0.12,0.57c-0.24,0.34-0.75,0.25-1.14,0.1c-4.1-1.57-7.02-5.83-7.01-10.22
			c0.01-2.7,1.01-5.44,0.32-8.05L272.05,460.73z"/>
	</g>
	<path class="st5" d="M272.09,460.61c0,0,4.97,4.72,4.7,11.34C276.79,471.95,278.39,465.74,272.09,460.61z"/>
	<path class="st4" d="M272.98,457.6c-0.59-0.26-1.23,0.04-1.37,0.65c-0.35,1.58-1.06,4.46-2.07,6.58c-0.11,0.24,0.2,0.48,0.38,0.29
		c1.18-1.23,2.94-3.28,4.24-5.75c0.28-0.53,0.02-1.23-0.56-1.49L272.98,457.6z"/>
	<path class="st2" d="M272.03,485.37l-0.08-0.09c-0.09-0.1-0.08-0.26,0.02-0.35l0.09-0.08c0.1-0.09,0.26-0.08,0.35,0.02l0.08,0.09
		c0.09,0.1,0.08,0.26-0.02,0.35l-0.09,0.08C272.28,485.49,272.12,485.48,272.03,485.37z"/>
	<path class="st2" d="M250.69,468.4l-0.08-0.09c-0.09-0.1-0.08-0.26,0.02-0.35l0.09-0.08c0.1-0.09,0.26-0.08,0.35,0.03l0.08,0.09
		c0.09,0.1,0.08,0.26-0.02,0.35l-0.09,0.08C250.94,468.52,250.78,468.5,250.69,468.4z"/>
	<path class="st2" d="M244.08,480.75l-0.08-0.09c-0.09-0.1-0.08-0.26,0.03-0.35l0.09-0.08c0.1-0.09,0.26-0.08,0.35,0.03l0.08,0.09
		c0.09,0.1,0.08,0.26-0.03,0.35l-0.09,0.08C244.33,480.86,244.17,480.85,244.08,480.75z"/>
	<path class="st2" d="M269.34,498.44l-0.08-0.09c-0.09-0.1-0.08-0.26,0.02-0.35l0.09-0.08c0.1-0.09,0.26-0.08,0.35,0.02l0.08,0.09
		c0.09,0.1,0.08,0.26-0.02,0.35l-0.09,0.08C269.58,498.55,269.43,498.54,269.34,498.44z"/>
	<path class="st2" d="M271.34,495.04l-0.08-0.09c-0.09-0.1-0.08-0.26,0.02-0.35l0.09-0.08c0.1-0.09,0.26-0.08,0.35,0.02l0.08,0.09
		c0.09,0.1,0.08,0.26-0.03,0.35l-0.09,0.08C271.59,495.16,271.43,495.15,271.34,495.04z"/>
	<path class="st6" d="M268.64,495.74l-0.08-0.09c-0.09-0.1-0.08-0.26,0.03-0.35l0.09-0.08c0.1-0.09,0.26-0.08,0.35,0.02l0.08,0.09
		c0.09,0.1,0.08,0.26-0.02,0.35l-0.09,0.08C268.89,495.85,268.73,495.84,268.64,495.74z"/>
	<path class="st2" d="M262.8,490.9l-0.08-0.09c-0.09-0.1-0.08-0.26,0.02-0.35l0.09-0.08c0.1-0.09,0.26-0.08,0.35,0.02l0.08,0.09
		c0.09,0.1,0.08,0.26-0.02,0.35l-0.09,0.08C263.05,491.02,262.89,491.01,262.8,490.9z"/>
	<path class="st2" d="M260.07,498.22l-0.08-0.09c-0.09-0.1-0.08-0.26,0.02-0.35l0.09-0.08c0.1-0.09,0.26-0.08,0.35,0.02l0.08,0.09
		c0.09,0.1,0.08,0.26-0.02,0.35l-0.09,0.08C260.32,498.34,260.16,498.33,260.07,498.22z"/>
	<path class="st6" d="M262.77,497.53l-0.08-0.09c-0.09-0.1-0.08-0.26,0.02-0.35l0.09-0.08c0.1-0.09,0.26-0.08,0.35,0.03l0.08,0.09
		c0.09,0.1,0.08,0.26-0.02,0.35l-0.09,0.08C263.02,497.65,262.86,497.63,262.77,497.53z"/>
	<path class="st2" d="M243.35,472.3l-0.08-0.09c-0.09-0.1-0.08-0.26,0.02-0.35l0.09-0.08c0.1-0.09,0.26-0.08,0.35,0.02l0.08,0.09
		c0.09,0.1,0.08,0.26-0.03,0.35l-0.09,0.08C243.6,472.41,243.44,472.4,243.35,472.3z"/>
	<path class="st6" d="M246.46,472.08l-0.08-0.09c-0.09-0.1-0.08-0.26,0.03-0.35l0.09-0.08c0.1-0.09,0.26-0.08,0.35,0.02l0.08,0.09
		c0.09,0.1,0.08,0.26-0.03,0.35l-0.09,0.08C246.71,472.19,246.55,472.18,246.46,472.08z"/>
	<path class="st6" d="M241.22,477.45l-0.08-0.09c-0.09-0.1-0.08-0.26,0.02-0.35l0.09-0.08c0.1-0.09,0.26-0.08,0.35,0.03l0.08,0.09
		c0.09,0.1,0.08,0.26-0.02,0.35l-0.09,0.08C241.47,477.57,241.31,477.55,241.22,477.45z"/>
</g>
</svg>
