<?xml version="1.0" encoding="utf-8"?>
<!-- Generator: Adobe Illustrator 24.1.1, SVG Export Plug-In . SVG Version: 6.00 Build 0)  -->
<svg version="1.1" id="Layer_1" xmlns="http://www.w3.org/2000/svg" xmlns:xlink="http://www.w3.org/1999/xlink" x="0px" y="0px"
	 viewBox="0 0 100 100" style="enable-background:new 0 0 100 100;" xml:space="preserve">
<style type="text/css">
	.st0{fill:#EF6D00;}
</style>
<g>
	<path class="st0" d="M50.78,40.9c-5.08,0-9.2,4.11-9.2,9.2c0,5.08,4.12,9.2,9.2,9.2c5.08,0,9.2-4.12,9.2-9.2
		C59.97,45.02,55.86,40.9,50.78,40.9z"/>
	<path class="st0" d="M59,26.55H41c-7.98,0-14.45,6.47-14.45,14.45v18c0,7.98,6.47,14.45,14.45,14.45h18
		c7.98,0,14.45-6.47,14.45-14.45V41C73.45,33.02,66.98,26.55,59,26.55z M50.78,65.39c-8.44,0-15.29-6.85-15.29-15.29
		c0-8.44,6.84-15.29,15.29-15.29c8.44,0,15.29,6.84,15.29,15.29C66.06,58.54,59.22,65.39,50.78,65.39z M65,38.46
		c-2.15,0-3.89-1.74-3.89-3.89c0-2.15,1.74-3.89,3.89-3.89c2.14,0,3.89,1.74,3.89,3.89C68.89,36.72,67.15,38.46,65,38.46z"/>
	<path class="st0" d="M72.67,11.52H27.33c-8.73,0-15.81,7.08-15.81,15.81v45.34c0,8.73,7.08,15.81,15.81,15.81h45.34
		c8.73,0,15.81-7.08,15.81-15.81V27.33C88.48,18.6,81.4,11.52,72.67,11.52z M79.02,61.14c0,9.87-8,17.88-17.88,17.88H38.86
		c-9.88,0-17.88-8-17.88-17.88V38.87c0-9.88,8.01-17.88,17.88-17.88h22.27c9.88,0,17.88,8.01,17.88,17.88V61.14z"/>
</g>
</svg>
