<?xml version="1.0" encoding="utf-8"?>
<!-- Generator: Adobe Illustrator 24.1.1, SVG Export Plug-In . SVG Version: 6.00 Build 0)  -->
<svg version="1.1" id="Layer_1" xmlns="http://www.w3.org/2000/svg" xmlns:xlink="http://www.w3.org/1999/xlink" x="0px" y="0px"
	 viewBox="0 0 100 100" style="enable-background:new 0 0 100 100;" xml:space="preserve">
<style type="text/css">
	.st0{fill:#EF6D00;}
</style>
<path class="st0" d="M86.02,31.91c-0.86-3.23-3.41-5.78-6.65-6.65C73.51,23.69,50,23.69,50,23.69s-23.51,0-29.37,1.57
	c-3.23,0.86-5.78,3.41-6.65,6.65C12.41,37.77,12.41,50,12.41,50s0,12.23,1.57,18.09c0.86,3.23,3.41,5.78,6.65,6.65
	C26.49,76.31,50,76.31,50,76.31s23.51,0,29.37-1.57c3.23-0.87,5.78-3.41,6.65-6.65C87.59,62.23,87.59,50,87.59,50
	S87.59,37.77,86.02,31.91z M42.48,61.28V38.72L62.01,50L42.48,61.28z"/>
</svg>
