<?xml version="1.0" encoding="utf-8"?>
<!-- Generator: Adobe Illustrator 24.1.1, SVG Export Plug-In . SVG Version: 6.00 Build 0)  -->
<svg version="1.1" id="Layer_1" xmlns="http://www.w3.org/2000/svg" xmlns:xlink="http://www.w3.org/1999/xlink" x="0px" y="0px"
	 viewBox="0 0 100 100" style="enable-background:new 0 0 100 100;" xml:space="preserve">
<style type="text/css">
	.st0{fill:#EF6D00;}
</style>
<path class="st0" d="M86,31.9c-0.9-3.2-3.4-5.8-6.7-6.6C73.5,23.7,50,23.7,50,23.7s-23.5,0-29.4,1.6c-3.2,0.9-5.8,3.4-6.6,6.6
	C12.4,37.8,12.4,50,12.4,50s0,12.2,1.6,18.1c0.9,3.2,3.4,5.8,6.6,6.7c5.9,1.6,29.4,1.6,29.4,1.6s23.5,0,29.4-1.6
	c3.2-0.9,5.8-3.4,6.7-6.7c1.6-5.9,1.6-18.1,1.6-18.1S87.6,37.8,86,31.9z M42.5,61.3V38.7L62,50L42.5,61.3z"/>
</svg>
