<?xml version="1.0" encoding="utf-8"?>
<!-- Generator: Adobe Illustrator 24.1.1, SVG Export Plug-In . SVG Version: 6.00 Build 0)  -->
<svg version="1.1" id="Layer_1" xmlns="http://www.w3.org/2000/svg" xmlns:xlink="http://www.w3.org/1999/xlink" x="0px" y="0px"
	 viewBox="0 0 1920 400" style="enable-background:new 0 0 1920 400;" xml:space="preserve">
<style type="text/css">
	.st0{fill:#F29D1C;}
	.st1{fill:#02812F;}
	.st2{fill:#085E24;}
	.st3{fill:#FFFFFF;}
	.st4{opacity:0.6;fill:#FFFFFF;}
	.st5{fill:#008500;}
	.st6{fill:#63A72C;}
	.st7{fill:#F1514B;}
	.st8{fill:#FFAF45;}
</style>
<g>
	<g>
		<g>
			<path class="st0" d="M566.77,76.23c-7.09,2.54-5.57,5.89-12.76,8.12c-2.96,0.92-6.12,1.08-9.11,1.91
				c-9.77,2.71-16.13,11.86-21.65,20.37c-1.48,2.29-2.99,4.61-3.73,7.23c-1.11,3.88-0.45,8.07,0.77,11.92
				c4.19,13.31,15.01,24.07,27.9,29.41c12.89,5.33,27.63,5.47,41.05,1.66c2.24-0.64,4.48-1.4,6.37-2.75
				c2.09-1.5,3.63-3.65,4.82-5.93c4.69-8.97,4.28-19.68,3.27-29.75c-0.33-3.32-0.74-6.71-2.29-9.67c-1.91-3.65-5.37-6.24-7.72-9.63
				c-3.44-4.95-4.3-11.22-6.93-16.64S572.44,74.2,566.77,76.23L566.77,76.23z"/>
		</g>
		<g>
			<path class="st1" d="M578.52,69.36c7.2-0.27,14.46,2.38,19.79,7.22c1.18,1.07,2.28,2.26,3.01,3.67c1.01,1.93,1.27,4.15,1.58,6.31
				c0.71,4.85,1.76,9.65,3.14,14.36c0.12,0.41,0.24,0.84,0.11,1.25c-0.27,0.84-1.39,0.99-2.27,0.94
				c-9.44-0.59-18.18-7.45-20.99-16.49c-1.72-5.56-1.43-11.83-4.52-16.76L578.52,69.36z"/>
		</g>
		<path class="st2" d="M578.52,69.1c0,0,13.25,6.51,16.95,20.29C595.46,89.39,594.77,75.59,578.52,69.1z"/>
		<path class="st1" d="M578.41,62.35c-1.38-0.16-2.51,0.88-2.39,2.22c0.31,3.47,0.69,9.84-0.02,14.85
			c-0.08,0.57,0.72,0.86,0.98,0.35c1.63-3.28,3.93-8.63,5.02-14.54c0.24-1.28-0.75-2.55-2.1-2.71L578.41,62.35z"/>
		<path class="st3" d="M594.56,120.17l-0.72-0.44c-0.12-0.07-0.15-0.23-0.08-0.35l0.44-0.72c0.07-0.12,0.23-0.15,0.35-0.08
			l0.72,0.44c0.12,0.07,0.15,0.23,0.08,0.35l-0.44,0.72C594.83,120.21,594.67,120.24,594.56,120.17z"/>
		<path class="st3" d="M539.81,99.02l-0.72-0.44c-0.12-0.07-0.15-0.23-0.08-0.35l0.44-0.72c0.07-0.12,0.23-0.15,0.35-0.08l0.72,0.44
			c0.12,0.07,0.15,0.23,0.08,0.35l-0.44,0.72C540.08,99.05,539.92,99.09,539.81,99.02z"/>
		<path class="st3" d="M534.15,128.64l-0.72-0.44c-0.12-0.07-0.15-0.23-0.08-0.35l0.44-0.72c0.07-0.12,0.23-0.15,0.35-0.08
			l0.72,0.44c0.12,0.07,0.15,0.23,0.08,0.35l-0.44,0.72C534.42,128.68,534.27,128.71,534.15,128.64z"/>
		<path class="st3" d="M597.43,148.75l-0.72-0.44c-0.12-0.07-0.15-0.23-0.08-0.35l0.44-0.72c0.07-0.12,0.23-0.15,0.35-0.08
			l0.72,0.44c0.12,0.07,0.15,0.23,0.08,0.35l-0.44,0.72C597.7,148.78,597.55,148.82,597.43,148.75z"/>
		<path class="st3" d="M599.37,140.48l-0.72-0.44c-0.12-0.07-0.15-0.23-0.08-0.35l0.44-0.72c0.07-0.12,0.23-0.15,0.35-0.08
			l0.72,0.44c0.12,0.07,0.15,0.23,0.08,0.35l-0.44,0.72C599.64,140.52,599.49,140.56,599.37,140.48z"/>
		<path class="st4" d="M594.27,143.64l-0.72-0.44c-0.12-0.07-0.15-0.23-0.08-0.35l0.44-0.72c0.07-0.12,0.23-0.15,0.35-0.08
			l0.72,0.44c0.12,0.07,0.15,0.23,0.08,0.35l-0.44,0.72C594.54,143.68,594.39,143.72,594.27,143.64z"/>
		<path class="st3" d="M579.15,137.48l-0.72-0.44c-0.12-0.07-0.15-0.23-0.08-0.35l0.44-0.72c0.07-0.12,0.23-0.15,0.35-0.08
			l0.72,0.44c0.12,0.07,0.15,0.23,0.08,0.35l-0.44,0.72C579.43,137.51,579.27,137.55,579.15,137.48z"/>
		<path class="st3" d="M578.26,154.27l-0.72-0.44c-0.12-0.07-0.15-0.23-0.08-0.35l0.44-0.72c0.07-0.12,0.23-0.15,0.35-0.08
			l0.72,0.44c0.12,0.07,0.15,0.23,0.08,0.35l-0.44,0.72C578.53,154.3,578.38,154.34,578.26,154.27z"/>
		<path class="st4" d="M583.36,151.11l-0.72-0.44c-0.12-0.07-0.15-0.23-0.08-0.35l0.44-0.72c0.07-0.12,0.23-0.15,0.35-0.08
			l0.72,0.44c0.12,0.07,0.15,0.23,0.08,0.35l-0.44,0.72C583.63,151.14,583.48,151.18,583.36,151.11z"/>
		<path class="st3" d="M527.22,111.75l-0.72-0.44c-0.12-0.07-0.15-0.23-0.08-0.35l0.44-0.72c0.07-0.12,0.23-0.15,0.35-0.08
			l0.72,0.44c0.12,0.07,0.15,0.23,0.08,0.35l-0.44,0.72C527.49,111.79,527.34,111.83,527.22,111.75z"/>
		<path class="st4" d="M533.47,109.3l-0.72-0.44c-0.12-0.07-0.15-0.23-0.08-0.35l0.44-0.72c0.07-0.12,0.23-0.15,0.35-0.08l0.72,0.44
			c0.12,0.07,0.15,0.23,0.08,0.35l-0.44,0.72C533.74,109.33,533.58,109.37,533.47,109.3z"/>
		<path class="st4" d="M526.16,123.71l-0.72-0.44c-0.12-0.07-0.15-0.23-0.08-0.35l0.44-0.72c0.07-0.12,0.23-0.15,0.35-0.08
			l0.72,0.44c0.12,0.07,0.15,0.23,0.08,0.35l-0.44,0.72C526.43,123.75,526.27,123.78,526.16,123.71z"/>
	</g>
	<g>
		<g>
			<path class="st0" d="M1300.21,70.96c3.98,1.42,3.13,3.31,7.16,4.56c1.66,0.52,3.43,0.61,5.11,1.07
				c5.49,1.52,9.06,6.66,12.16,11.44c0.83,1.28,1.68,2.59,2.1,4.06c0.62,2.18,0.25,4.53-0.43,6.69
				c-2.35,7.47-8.43,13.52-15.67,16.51c-7.24,2.99-15.51,3.07-23.05,0.93c-1.26-0.36-2.52-0.78-3.58-1.55
				c-1.17-0.84-2.04-2.05-2.7-3.33c-2.63-5.04-2.4-11.05-1.84-16.71c0.19-1.86,0.42-3.77,1.29-5.43c1.07-2.05,3.01-3.5,4.33-5.41
				c1.93-2.78,2.42-6.3,3.89-9.35S1297.02,69.82,1300.21,70.96L1300.21,70.96z"/>
		</g>
		<g>
			<path class="st1" d="M1293.61,67.1c-4.04-0.15-8.12,1.33-11.11,4.05c-0.66,0.6-1.28,1.27-1.69,2.06
				c-0.56,1.09-0.71,2.33-0.89,3.54c-0.4,2.72-0.99,5.42-1.76,8.06c-0.07,0.23-0.14,0.47-0.06,0.7c0.15,0.47,0.78,0.56,1.28,0.53
				c5.3-0.33,10.21-4.18,11.78-9.26c0.97-3.12,0.8-6.64,2.54-9.41L1293.61,67.1z"/>
		</g>
		<path class="st2" d="M1293.61,66.96c0,0-7.44,3.66-9.52,11.39C1284.1,78.35,1284.49,70.6,1293.61,66.96z"/>
		<path class="st1" d="M1293.67,63.16c0.77-0.09,1.41,0.5,1.34,1.25c-0.17,1.95-0.39,5.53,0.01,8.34c0.05,0.32-0.41,0.48-0.55,0.2
			c-0.92-1.84-2.2-4.84-2.82-8.17c-0.13-0.72,0.42-1.43,1.18-1.52L1293.67,63.16z"/>
		<path class="st3" d="M1284.7,95.58l0.21-0.13c0.12-0.07,0.15-0.23,0.08-0.35l-0.13-0.21c-0.07-0.12-0.23-0.15-0.35-0.08
			l-0.21,0.13c-0.12,0.07-0.15,0.23-0.08,0.35l0.13,0.21C1284.43,95.61,1284.58,95.65,1284.7,95.58z"/>
		<path class="st3" d="M1315.44,83.7l0.21-0.13c0.12-0.07,0.15-0.23,0.08-0.35l-0.13-0.21c-0.07-0.12-0.23-0.15-0.35-0.08
			l-0.21,0.13c-0.12,0.07-0.15,0.23-0.08,0.35l0.13,0.21C1315.17,83.74,1315.33,83.77,1315.44,83.7z"/>
		<path class="st3" d="M1318.62,100.33l0.21-0.13c0.12-0.07,0.15-0.23,0.08-0.35l-0.13-0.21c-0.07-0.12-0.23-0.15-0.35-0.08
			l-0.21,0.13c-0.12,0.07-0.15,0.23-0.08,0.35l0.13,0.21C1318.35,100.37,1318.5,100.41,1318.62,100.33z"/>
		<path class="st3" d="M1283.09,111.62l0.21-0.13c0.12-0.07,0.15-0.23,0.08-0.35l-0.13-0.21c-0.07-0.12-0.23-0.15-0.35-0.08
			l-0.21,0.13c-0.12,0.07-0.15,0.23-0.08,0.35l0.13,0.21C1282.81,111.66,1282.97,111.7,1283.09,111.62z"/>
		<path class="st3" d="M1281.99,106.98l0.21-0.13c0.12-0.07,0.15-0.23,0.08-0.35l-0.13-0.21c-0.07-0.12-0.23-0.15-0.35-0.08
			l-0.21,0.13c-0.12,0.07-0.15,0.23-0.08,0.35l0.13,0.21C1281.72,107.02,1281.88,107.06,1281.99,106.98z"/>
		<path class="st4" d="M1284.86,108.76l0.21-0.13c0.12-0.07,0.15-0.23,0.08-0.35l-0.13-0.21c-0.07-0.12-0.23-0.15-0.35-0.08
			l-0.21,0.13c-0.12,0.07-0.15,0.23-0.08,0.35l0.13,0.21C1284.59,108.79,1284.74,108.83,1284.86,108.76z"/>
		<path class="st3" d="M1293.35,105.29l0.21-0.13c0.12-0.07,0.15-0.23,0.08-0.35l-0.13-0.21c-0.07-0.12-0.23-0.15-0.35-0.08
			l-0.21,0.13c-0.12,0.07-0.15,0.23-0.08,0.35l0.13,0.21C1293.08,105.33,1293.23,105.37,1293.35,105.29z"/>
		<path class="st3" d="M1293.85,114.72l0.21-0.13c0.12-0.07,0.15-0.23,0.08-0.35l-0.13-0.21c-0.07-0.12-0.23-0.15-0.35-0.08
			l-0.21,0.13c-0.12,0.07-0.15,0.23-0.08,0.35l0.13,0.21C1293.58,114.76,1293.73,114.8,1293.85,114.72z"/>
		<path class="st4" d="M1290.99,112.95l0.21-0.13c0.12-0.07,0.15-0.23,0.08-0.35l-0.13-0.21c-0.07-0.12-0.23-0.15-0.35-0.08
			l-0.21,0.13c-0.12,0.07-0.15,0.23-0.08,0.35l0.13,0.21C1290.71,112.98,1290.87,113.02,1290.99,112.95z"/>
		<path class="st3" d="M1322.51,90.85l0.21-0.13c0.12-0.07,0.15-0.23,0.08-0.35l-0.13-0.21c-0.07-0.12-0.23-0.15-0.35-0.08
			l-0.21,0.13c-0.12,0.07-0.15,0.23-0.08,0.35l0.13,0.21C1322.24,90.89,1322.39,90.92,1322.51,90.85z"/>
		<path class="st4" d="M1319,89.47l0.21-0.13c0.12-0.07,0.15-0.23,0.08-0.35l-0.13-0.21c-0.07-0.12-0.23-0.15-0.35-0.08l-0.21,0.13
			c-0.12,0.07-0.15,0.23-0.08,0.35l0.13,0.21C1318.73,89.51,1318.89,89.54,1319,89.47z"/>
		<path class="st4" d="M1323.11,97.56l0.21-0.13c0.12-0.07,0.15-0.23,0.08-0.35l-0.13-0.21c-0.07-0.12-0.23-0.15-0.35-0.08
			l-0.21,0.13c-0.12,0.07-0.15,0.23-0.08,0.35l0.13,0.21C1322.84,97.6,1322.99,97.64,1323.11,97.56z"/>
	</g>
	<g>
		<g>
			<path class="st0" d="M1472.59,278.96c1.74,3.67-0.12,4.37,1.77,7.97c0.78,1.48,1.92,2.75,2.75,4.21
				c2.69,4.77,1.63,10.68,0.49,16.04c-0.31,1.44-0.62,2.9-1.34,4.19c-1.06,1.91-2.91,3.25-4.84,4.26
				c-6.68,3.48-14.92,3.46-21.88,0.57c-6.96-2.89-12.63-8.45-16.3-15.03c-0.61-1.1-1.18-2.24-1.38-3.48
				c-0.22-1.37,0.01-2.78,0.43-4.1c1.63-5.22,5.88-9.15,10.11-12.61c1.39-1.14,2.85-2.28,4.56-2.82c2.12-0.66,4.43-0.33,6.62-0.73
				c3.2-0.58,5.92-2.64,9-3.71C1465.66,272.65,1471.2,276.02,1472.59,278.96L1472.59,278.96z"/>
		</g>
		<g>
			<path class="st1" d="M1470.73,271.85c-2.64-2.85-6.43-4.61-10.31-4.8c-0.86-0.04-1.73-0.01-2.55,0.25
				c-1.12,0.35-2.07,1.1-3.01,1.8c-2.12,1.58-4.35,3.01-6.68,4.28c-0.2,0.11-0.41,0.23-0.52,0.43c-0.22,0.43,0.15,0.91,0.51,1.23
				c3.83,3.38,9.78,4.09,14.3,1.72c2.78-1.46,5.06-3.97,8.12-4.67L1470.73,271.85z"/>
		</g>
		<path class="st2" d="M1470.83,271.75c0,0-7.54-2.57-14.21,1.28C1456.62,273.03,1462.15,268.03,1470.83,271.75z"/>
		<path class="st1" d="M1473.45,269.22c0.59,0.46,0.62,1.3,0.06,1.76c-1.44,1.21-4.02,3.49-5.66,5.68c-0.19,0.25-0.6,0.05-0.51-0.24
			c0.63-1.88,1.79-4.79,3.63-7.47c0.4-0.58,1.26-0.69,1.84-0.23L1473.45,269.22z"/>
		<path class="st3" d="M1445.33,285.15l0.22,0.05c0.13,0.03,0.27-0.05,0.3-0.19l0.05-0.22c0.03-0.13-0.05-0.27-0.19-0.3l-0.22-0.05
			c-0.13-0.03-0.27,0.05-0.3,0.19l-0.05,0.22C1445.11,284.99,1445.19,285.12,1445.33,285.15z"/>
		<path class="st3" d="M1474.3,297.98l0.22,0.05c0.13,0.03,0.27-0.05,0.3-0.19l0.05-0.22c0.03-0.13-0.05-0.27-0.19-0.3l-0.22-0.05
			c-0.13-0.03-0.27,0.05-0.3,0.19l-0.05,0.22C1474.08,297.81,1474.16,297.95,1474.3,297.98z"/>
		<path class="st3" d="M1465.15,311.44l0.22,0.05c0.13,0.03,0.27-0.05,0.3-0.19l0.05-0.22c0.03-0.13-0.05-0.27-0.19-0.3l-0.22-0.05
			c-0.13-0.03-0.27,0.05-0.3,0.19l-0.05,0.22C1464.93,311.27,1465.02,311.41,1465.15,311.44z"/>
		<path class="st3" d="M1433.32,294.96l0.22,0.05c0.13,0.03,0.27-0.05,0.3-0.19l0.05-0.22c0.03-0.13-0.05-0.27-0.19-0.3l-0.22-0.05
			c-0.13-0.03-0.27,0.05-0.3,0.19l-0.05,0.22C1433.11,294.8,1433.19,294.93,1433.32,294.96z"/>
		<path class="st3" d="M1435.74,291.07l0.22,0.05c0.13,0.03,0.27-0.05,0.3-0.19l0.05-0.22c0.03-0.13-0.05-0.27-0.19-0.3l-0.22-0.05
			c-0.13-0.03-0.27,0.05-0.3,0.19l-0.05,0.22C1435.52,290.9,1435.6,291.04,1435.74,291.07z"/>
		<path class="st4" d="M1436.48,294.22l0.22,0.05c0.13,0.03,0.27-0.05,0.3-0.19l0.05-0.22c0.03-0.13-0.05-0.27-0.19-0.3l-0.22-0.05
			c-0.13-0.03-0.27,0.05-0.3,0.19l-0.05,0.22C1436.26,294.05,1436.34,294.19,1436.48,294.22z"/>
		<path class="st3" d="M1444.6,297.64l0.22,0.05c0.13,0.03,0.27-0.05,0.3-0.19l0.05-0.22c0.03-0.13-0.05-0.27-0.19-0.3l-0.22-0.05
			c-0.13-0.03-0.27,0.05-0.3,0.19l-0.05,0.22C1444.38,297.47,1444.47,297.6,1444.6,297.64z"/>
		<path class="st3" d="M1438.53,304.39l0.22,0.05c0.13,0.03,0.27-0.05,0.3-0.19l0.05-0.22c0.03-0.13-0.05-0.27-0.19-0.3l-0.22-0.05
			c-0.13-0.03-0.27,0.05-0.3,0.19l-0.05,0.22C1438.32,304.22,1438.4,304.36,1438.53,304.39z"/>
		<path class="st4" d="M1437.79,301.23l0.22,0.05c0.13,0.03,0.27-0.05,0.3-0.19l0.05-0.22c0.03-0.13-0.05-0.27-0.19-0.3l-0.22-0.05
			c-0.13-0.03-0.27,0.05-0.3,0.19l-0.05,0.22C1437.57,301.07,1437.66,301.2,1437.79,301.23z"/>
		<path class="st3" d="M1474.24,307.64l0.22,0.05c0.13,0.03,0.27-0.05,0.3-0.19l0.05-0.22c0.03-0.13-0.05-0.27-0.19-0.3l-0.22-0.05
			c-0.13-0.03-0.27,0.05-0.3,0.19l-0.05,0.22C1474.02,307.47,1474.11,307.61,1474.24,307.64z"/>
		<path class="st4" d="M1472.79,304.32l0.22,0.05c0.13,0.03,0.27-0.05,0.3-0.19l0.05-0.22c0.03-0.13-0.05-0.27-0.19-0.3l-0.22-0.05
			c-0.13-0.03-0.27,0.05-0.3,0.19l-0.05,0.22C1472.58,304.15,1472.66,304.29,1472.79,304.32z"/>
		<path class="st4" d="M1470.08,312.61l0.22,0.05c0.13,0.03,0.27-0.05,0.3-0.19l0.05-0.22c0.03-0.13-0.05-0.27-0.19-0.3l-0.22-0.05
			c-0.13-0.03-0.27,0.05-0.3,0.19l-0.05,0.22C1469.87,312.44,1469.95,312.58,1470.08,312.61z"/>
	</g>
	<g>
		<g>
			<path class="st0" d="M453.58,303.32c-1.4,3.31,0.27,3.86-1.27,7.12c-0.64,1.34-1.6,2.5-2.27,3.82c-2.21,4.32-1.05,9.51,0.16,14.2
				c0.32,1.26,0.66,2.54,1.34,3.65c1.01,1.65,2.69,2.77,4.44,3.59c6.04,2.83,13.33,2.51,19.37-0.3c6.05-2.81,10.86-7.95,13.86-13.9
				c0.5-0.99,0.96-2.03,1.09-3.13c0.15-1.22-0.11-2.46-0.53-3.61c-1.64-4.55-5.54-7.87-9.41-10.78c-1.27-0.96-2.6-1.91-4.14-2.32
				c-1.9-0.51-3.93-0.13-5.88-0.4c-2.85-0.39-5.34-2.12-8.1-2.95C459.48,297.48,454.7,300.66,453.58,303.32L453.58,303.32z"/>
		</g>
		<g>
			<path class="st1" d="M454.96,296.96c2.23-2.62,5.52-4.32,8.94-4.63c0.76-0.07,1.53-0.07,2.26,0.13c1.01,0.27,1.87,0.9,2.73,1.48
				c1.93,1.32,3.96,2.51,6.07,3.54c0.18,0.09,0.37,0.19,0.47,0.36c0.21,0.37-0.1,0.81-0.41,1.1c-3.26,3.13-8.5,3.98-12.59,2.05
				c-2.51-1.19-4.62-3.33-7.36-3.83L454.96,296.96z"/>
		</g>
		<path class="st2" d="M454.87,296.87c0,0,6.58-2.55,12.62,0.6C467.49,297.48,462.41,293.26,454.87,296.87z"/>
		<path class="st1" d="M452.46,294.73c-0.5,0.43-0.5,1.17,0.01,1.56c1.32,1.02,3.68,2.94,5.22,4.81c0.17,0.21,0.54,0.02,0.44-0.23
			c-0.63-1.64-1.76-4.17-3.49-6.47c-0.37-0.5-1.14-0.56-1.63-0.14L452.46,294.73z"/>
		<path class="st3" d="M477.9,307.79l-0.13,0.04c-0.13,0.04-0.27-0.04-0.31-0.17l-0.04-0.13c-0.04-0.13,0.04-0.27,0.17-0.31
			l0.13-0.04c0.13-0.04,0.27,0.04,0.31,0.17l0.04,0.13C478.11,307.62,478.03,307.75,477.9,307.79z"/>
		<path class="st3" d="M452.74,320.21l-0.13,0.04c-0.13,0.04-0.27-0.04-0.31-0.17l-0.04-0.13c-0.04-0.13,0.04-0.27,0.17-0.31
			l0.13-0.04c0.13-0.04,0.27,0.04,0.31,0.17l0.04,0.13C452.96,320.03,452.88,320.17,452.74,320.21z"/>
		<path class="st3" d="M461.33,331.78l-0.13,0.04c-0.13,0.04-0.27-0.04-0.31-0.17l-0.04-0.13c-0.04-0.13,0.04-0.27,0.17-0.31
			l0.13-0.04c0.13-0.04,0.27,0.04,0.31,0.17l0.04,0.13C461.55,331.6,461.47,331.74,461.33,331.78z"/>
		<path class="st3" d="M488.88,316.03l-0.13,0.04c-0.13,0.04-0.27-0.04-0.31-0.17l-0.04-0.13c-0.04-0.13,0.04-0.27,0.17-0.31
			l0.13-0.04c0.13-0.04,0.27,0.04,0.31,0.17l0.04,0.13C489.09,315.85,489.01,315.99,488.88,316.03z"/>
		<path class="st3" d="M486.6,312.67l-0.13,0.04c-0.13,0.04-0.27-0.04-0.31-0.17l-0.04-0.13c-0.04-0.13,0.04-0.27,0.17-0.31
			l0.13-0.04c0.13-0.04,0.27,0.04,0.31,0.17l0.04,0.13C486.81,312.49,486.74,312.63,486.6,312.67z"/>
		<path class="st4" d="M486.06,315.49l-0.13,0.04c-0.13,0.04-0.27-0.04-0.31-0.17l-0.04-0.13c-0.04-0.13,0.04-0.27,0.17-0.31
			l0.13-0.04c0.13-0.04,0.27,0.04,0.31,0.17l0.04,0.13C486.27,315.31,486.2,315.45,486.06,315.49z"/>
		<path class="st3" d="M479,318.81l-0.13,0.04c-0.13,0.04-0.27-0.04-0.31-0.17l-0.04-0.13c-0.04-0.13,0.04-0.27,0.17-0.31l0.13-0.04
			c0.13-0.04,0.27,0.04,0.31,0.17l0.04,0.13C479.21,318.63,479.14,318.77,479,318.81z"/>
		<path class="st3" d="M484.62,324.56l-0.13,0.04c-0.13,0.04-0.27-0.04-0.31-0.17l-0.04-0.13c-0.04-0.13,0.04-0.27,0.17-0.31
			l0.13-0.04c0.13-0.04,0.27,0.04,0.31,0.17l0.04,0.13C484.83,324.38,484.75,324.52,484.62,324.56z"/>
		<path class="st4" d="M485.16,321.74l-0.13,0.04c-0.13,0.04-0.27-0.04-0.31-0.17l-0.04-0.13c-0.04-0.13,0.04-0.27,0.17-0.31
			l0.13-0.04c0.13-0.04,0.27,0.04,0.31,0.17l0.04,0.13C485.37,321.56,485.29,321.7,485.16,321.74z"/>
		<path class="st3" d="M453.15,328.76l-0.13,0.04c-0.13,0.04-0.27-0.04-0.31-0.17l-0.04-0.13c-0.04-0.13,0.04-0.27,0.17-0.31
			l0.13-0.04c0.13-0.04,0.27,0.04,0.31,0.17l0.04,0.13C453.36,328.58,453.29,328.72,453.15,328.76z"/>
		<path class="st4" d="M454.31,325.76l-0.13,0.04c-0.13,0.04-0.27-0.04-0.31-0.17l-0.04-0.13c-0.04-0.13,0.04-0.27,0.17-0.31
			l0.13-0.04c0.13-0.04,0.27,0.04,0.31,0.17l0.04,0.13C454.52,325.59,454.44,325.73,454.31,325.76z"/>
		<path class="st4" d="M457.01,333l-0.13,0.04c-0.13,0.04-0.27-0.04-0.31-0.17l-0.04-0.13c-0.04-0.13,0.04-0.27,0.17-0.31l0.13-0.04
			c0.13-0.04,0.27,0.04,0.31,0.17l0.04,0.13C457.22,332.82,457.15,332.96,457.01,333z"/>
	</g>
	<g>
		<path class="st5" d="M607.95,224.41c4.78,6.04,4.63,14.12,4.63,14.12s-7.9-1.72-12.67-7.76c-4.78-6.04-4.63-14.12-4.63-14.12
			S603.17,218.37,607.95,224.41z"/>
		<path class="st6" d="M597.84,230.41c7.51,1.7,12.47,8.09,12.47,8.09s-7.22,3.62-14.73,1.92s-12.47-8.09-12.47-8.09
			S590.33,228.71,597.84,230.41z"/>
		<path class="st7" d="M617.49,224c-5.78-1.06-11.34,2.42-13.01,7.9c-4.32,0.99-7.86,4.45-8.71,9.09
			c-0.85,4.63,1.21,9.11,4.88,11.58c-0.51,5.81,3.47,11.16,9.33,12.24c3.3,0.61,6.53-0.27,9.01-2.15c0.5,0.16,1.01,0.3,1.54,0.4
			c6.21,1.14,12.18-2.97,13.32-9.18c0.43-2.34,0.12-4.64-0.77-6.67c1.55-1.58,2.67-3.62,3.1-5.95c1.12-6.11-2.93-12.09-9.03-13.29
			c-1.04-0.21-2.07-0.26-3.08-0.19C622.42,225.87,620.15,224.49,617.49,224z"/>
		<path class="st8" d="M615.86,235.49c-0.96-0.01-1.75,0.77-1.75,1.73c-0.01,0.88,0.64,1.61,1.49,1.73l-0.04,5.74l-5.64-1.04
			c0.04-0.86-0.55-1.63-1.42-1.79c-0.95-0.17-1.85,0.45-2.03,1.4c-0.17,0.95,0.45,1.85,1.4,2.03c0.87,0.16,1.69-0.36,1.96-1.17
			l5.59,1.03l-2.88,4.9c-0.79-0.33-1.72-0.04-2.17,0.72c-0.49,0.83-0.21,1.9,0.62,2.38c0.83,0.49,1.9,0.21,2.38-0.62
			c0.45-0.76,0.25-1.71-0.43-2.24l2.88-4.9l3.62,4.38c-0.58,0.63-0.63,1.6-0.07,2.28c0.61,0.74,1.71,0.85,2.45,0.23
			c0.74-0.61,0.85-1.71,0.23-2.45c-0.56-0.68-1.53-0.82-2.25-0.37l-3.62-4.38l5.35-1.9c0.39,0.76,1.29,1.14,2.12,0.84
			c0.91-0.32,1.38-1.32,1.06-2.22c-0.32-0.91-1.32-1.38-2.22-1.06c-0.83,0.29-1.29,1.15-1.11,1.99l-5.35,1.9l0.04-5.68
			c0.85-0.11,1.51-0.83,1.52-1.71C617.59,236.28,616.82,235.49,615.86,235.49z"/>
	</g>
	<g>
		<path class="st5" d="M375.58,183.31c-12.11,4.39-24.86-0.11-24.86-0.11s6.89-11.63,19.01-16.02c12.11-4.39,24.86,0.11,24.86,0.11
			S387.69,178.91,375.58,183.31z"/>
		<path class="st6" d="M371.39,164.1c-6.67,11.02-19.42,15.52-19.42,15.52s-1.93-13.38,4.74-24.4s19.42-15.52,19.42-15.52
			S378.06,153.07,371.39,164.1z"/>
		<path class="st7" d="M371.19,198.66c4.74-8.61,2.15-19.27-5.67-24.83c0.72-7.38-2.92-14.82-9.82-18.63
			c-6.89-3.79-15.1-2.89-20.96,1.64c-8.95-3.88-19.56-0.38-24.36,8.34c-2.71,4.92-3.03,10.51-1.34,15.44
			c-0.52,0.7-1.01,1.44-1.44,2.23c-5.1,9.26-1.72,20.9,7.54,26c3.49,1.92,7.31,2.64,10.99,2.29c1.68,3.3,4.33,6.14,7.82,8.06
			c9.11,5.01,20.73,1.73,25.87-7.31c0.88-1.54,1.51-3.15,1.93-4.79C365.62,205.51,369,202.63,371.19,198.66z"/>
		<path class="st8" d="M353.82,190.01c0.52-1.52-0.29-3.18-1.82-3.7c-1.39-0.48-2.89,0.17-3.53,1.45l-9.09-3.1l4.63-8.41
			c1.34,0.51,2.88-0.01,3.59-1.3c0.78-1.41,0.26-3.18-1.15-3.96s-3.18-0.26-3.96,1.15c-0.71,1.29-0.33,2.87,0.82,3.73l-4.58,8.33
			l-6.26-7.16c0.94-1.08,0.97-2.71,0-3.82c-1.06-1.21-2.9-1.33-4.11-0.28c-1.21,1.06-1.33,2.9-0.28,4.11
			c0.97,1.11,2.59,1.29,3.79,0.51l6.26,7.16l-8.86,3.43c-0.69-1.25-2.21-1.84-3.59-1.31c-1.5,0.58-2.24,2.27-1.66,3.77
			c0.58,1.5,2.27,2.25,3.77,1.66c1.37-0.53,2.1-1.99,1.77-3.38l8.86-3.43l0.19,9.5c-1.41,0.22-2.49,1.45-2.46,2.92
			c0.03,1.61,1.36,2.89,2.97,2.85c1.61-0.03,2.89-1.36,2.85-2.97c-0.03-1.47-1.15-2.65-2.57-2.82l-0.19-9.5l9,3.07
			c-0.27,1.41,0.51,2.83,1.91,3.31C351.65,192.35,353.3,191.54,353.82,190.01z"/>
	</g>
	<g>
		<path class="st5" d="M1492.53,120.86c-15.15,5.49-31.09-0.14-31.09-0.14s8.62-14.54,23.77-20.03c15.15-5.49,31.09,0.14,31.09,0.14
			S1507.68,115.37,1492.53,120.86z"/>
		<path class="st6" d="M1487.3,96.84c-8.34,13.78-24.29,19.4-24.29,19.4s-2.41-16.73,5.93-30.51s24.29-19.4,24.29-19.4
			S1495.64,83.06,1487.3,96.84z"/>
		<path class="st7" d="M1487.04,140.06c5.93-10.77,2.69-24.1-7.09-31.04c0.89-9.23-3.65-18.54-12.28-23.29
			c-8.62-4.75-18.89-3.62-26.2,2.05c-11.2-4.85-24.46-0.48-30.46,10.43c-3.39,6.15-3.78,13.14-1.68,19.3
			c-0.65,0.88-1.26,1.8-1.8,2.79c-6.38,11.58-2.15,26.14,9.43,32.51c4.36,2.4,9.14,3.3,13.74,2.87c2.1,4.12,5.42,7.68,9.78,10.08
			c11.39,6.27,25.93,2.16,32.35-9.14c1.09-1.93,1.89-3.94,2.41-5.98C1480.08,148.63,1484.31,145.02,1487.04,140.06z"/>
		<path class="st8" d="M1465.32,129.25c0.65-1.9-0.37-3.97-2.27-4.62c-1.74-0.59-3.61,0.22-4.42,1.82l-11.36-3.87l5.79-10.52
			c1.67,0.64,3.6-0.02,4.49-1.63c0.97-1.76,0.33-3.98-1.43-4.95c-1.76-0.97-3.98-0.33-4.95,1.43c-0.89,1.61-0.41,3.59,1.02,4.66
			l-5.73,10.41l-7.82-8.95c1.18-1.35,1.22-3.39,0-4.78c-1.32-1.51-3.62-1.67-5.14-0.34c-1.51,1.32-1.67,3.62-0.34,5.14
			c1.21,1.39,3.24,1.62,4.73,0.63l7.82,8.95l-11.08,4.29c-0.87-1.57-2.77-2.3-4.49-1.64c-1.88,0.73-2.81,2.84-2.08,4.71
			c0.73,1.88,2.84,2.81,4.71,2.08c1.72-0.67,2.63-2.49,2.21-4.23l11.08-4.29l0.24,11.88c-1.77,0.28-3.11,1.81-3.07,3.66
			c0.04,2.01,1.7,3.61,3.72,3.57c2.01-0.04,3.61-1.7,3.57-3.72c-0.04-1.84-1.44-3.32-3.22-3.53l-0.24-11.88l11.25,3.84
			c-0.34,1.76,0.64,3.54,2.38,4.14C1462.6,132.17,1464.67,131.15,1465.32,129.25z"/>
	</g>
	<g>
		<path class="st5" d="M1588.77,271.96c-6.25-5.86-7.41-14.77-7.41-14.77s8.97,0.59,15.21,6.45s7.41,14.77,7.41,14.77
			S1595.01,277.81,1588.77,271.96z"/>
		<path class="st6" d="M1598.89,263.7c-8.54-0.64-15.04-6.84-15.04-6.84s7.35-5.17,15.89-4.53c8.54,0.64,15.04,6.84,15.04,6.84
			S1607.43,264.33,1598.89,263.7z"/>
		<path class="st7" d="M1578.34,273.97c6.53,0.22,12.07-4.52,13.01-10.83c4.59-1.8,7.91-6.19,8.08-11.43
			c0.18-5.23-2.83-9.82-7.27-11.93c-0.39-6.47-5.66-11.71-12.27-11.93c-3.73-0.13-7.14,1.37-9.55,3.85
			c-0.57-0.1-1.16-0.16-1.76-0.18c-7.02-0.24-12.91,5.27-13.14,12.29c-0.09,2.64,0.64,5.12,1.95,7.2c-1.45,1.99-2.34,4.41-2.43,7.06
			c-0.23,6.91,5.21,12.81,12.11,13.14c1.18,0.06,2.32-0.05,3.42-0.3C1572.61,272.73,1575.34,273.87,1578.34,273.97z"/>
		<path class="st8" d="M1578.25,261.08c1.06-0.15,1.79-1.13,1.64-2.19c-0.14-0.97-0.97-1.66-1.92-1.66l-0.9-6.32l6.38,0.21
			c0.1,0.95,0.87,1.7,1.85,1.74c1.07,0.04,1.96-0.8,2-1.87c0.04-1.07-0.8-1.96-1.87-2c-0.98-0.03-1.8,0.67-1.96,1.61l-6.31-0.21
			l2.36-5.86c0.92,0.23,1.9-0.24,2.26-1.15c0.4-0.99-0.08-2.12-1.07-2.52c-0.99-0.4-2.12,0.08-2.52,1.07
			c-0.37,0.91,0.01,1.92,0.84,2.4l-2.36,5.86l-4.7-4.22c0.53-0.79,0.43-1.87-0.3-2.52c-0.8-0.71-2.02-0.65-2.73,0.15
			c-0.71,0.8-0.65,2.02,0.15,2.73c0.73,0.65,1.81,0.65,2.54,0.03l4.7,4.22l-5.57,2.97c-0.56-0.77-1.61-1.04-2.47-0.58
			c-0.94,0.5-1.3,1.68-0.8,2.62s1.68,1.3,2.62,0.8c0.86-0.46,1.23-1.48,0.9-2.37l5.57-2.97l0.89,6.26
			c-0.92,0.26-1.53,1.16-1.39,2.13C1576.21,260.49,1577.19,261.23,1578.25,261.08z"/>
	</g>
</g>
</svg>
