<?xml version="1.0" encoding="utf-8"?>
<!-- Generator: Adobe Illustrator 24.1.1, SVG Export Plug-In . SVG Version: 6.00 Build 0)  -->
<svg version="1.1" id="Layer_1" xmlns="http://www.w3.org/2000/svg" xmlns:xlink="http://www.w3.org/1999/xlink" x="0px" y="0px"
	 viewBox="0 0 1920 400" style="enable-background:new 0 0 1920 400;" xml:space="preserve">
<style type="text/css">
	.st0{fill:#F29D1C;}
	.st1{fill:#02812F;}
	.st2{fill:#085E24;}
	.st3{fill:#FFFFFF;}
	.st4{opacity:0.6;fill:#FFFFFF;enable-background:new    ;}
	.st5{fill:#008500;}
	.st6{fill:#63A72C;}
	.st7{fill:#F1514B;}
	.st8{fill:#FFAF45;}
</style>
<g>
	<g>
		<g>
			<g>
				<path class="st0" d="M380.85,75.07c-6.5,2.33-5.11,5.4-11.7,7.44c-2.71,0.84-5.61,0.99-8.35,1.75
					c-8.96,2.48-14.79,10.87-19.85,18.67c-1.36,2.1-2.74,4.23-3.42,6.63c-1.02,3.56-0.41,7.4,0.71,10.93
					c3.84,12.2,13.76,22.07,25.58,26.96c11.82,4.89,25.33,5.01,37.63,1.52c2.05-0.59,4.11-1.28,5.84-2.52
					c1.92-1.38,3.33-3.35,4.42-5.44c4.3-8.22,3.92-18.04,3-27.27c-0.3-3.04-0.68-6.15-2.1-8.86c-1.75-3.35-4.92-5.72-7.08-8.83
					c-3.15-4.54-3.94-10.29-6.35-15.25C396.76,75.83,386.05,73.21,380.85,75.07L380.85,75.07z"/>
			</g>
			<g>
				<path class="st1" d="M391.62,68.77c6.6-0.25,13.26,2.18,18.14,6.62c1.08,0.98,2.09,2.07,2.76,3.36c0.93,1.77,1.16,3.8,1.45,5.78
					c0.65,4.45,1.61,8.85,2.88,13.16c0.11,0.38,0.22,0.77,0.1,1.15c-0.25,0.77-1.27,0.91-2.08,0.86
					c-8.65-0.54-16.67-6.83-19.24-15.12c-1.58-5.1-1.31-10.84-4.14-15.36L391.62,68.77z"/>
			</g>
			<path class="st2" d="M391.62,68.53c0,0,12.15,5.97,15.54,18.6C407.15,87.13,406.52,74.48,391.62,68.53z"/>
			<path class="st1" d="M391.52,62.35c-1.27-0.15-2.3,0.81-2.19,2.04c0.28,3.18,0.63,9.02-0.02,13.61c-0.07,0.52,0.66,0.79,0.9,0.32
				c1.49-3.01,3.6-7.91,4.6-13.33c0.22-1.17-0.69-2.34-1.93-2.48L391.52,62.35z"/>
			<path class="st3" d="M406.32,115.35l-0.66-0.4c-0.11-0.06-0.14-0.21-0.07-0.32l0.4-0.66c0.06-0.11,0.21-0.14,0.32-0.07l0.66,0.4
				c0.11,0.06,0.14,0.21,0.07,0.32l-0.4,0.66C406.57,115.39,406.43,115.41,406.32,115.35z"/>
			<path class="st3" d="M356.13,95.96l-0.66-0.4c-0.11-0.06-0.14-0.21-0.07-0.32l0.4-0.66c0.06-0.11,0.21-0.14,0.32-0.07l0.66,0.4
				c0.11,0.06,0.14,0.21,0.07,0.32l-0.4,0.66C356.38,95.99,356.24,96.03,356.13,95.96z"/>
			<path class="st3" d="M350.95,123.11l-0.66-0.4c-0.11-0.06-0.14-0.21-0.07-0.32l0.4-0.66c0.06-0.11,0.21-0.14,0.32-0.07l0.66,0.4
				c0.11,0.06,0.14,0.21,0.07,0.32l-0.4,0.66C351.19,123.15,351.06,123.18,350.95,123.11z"/>
			<path class="st3" d="M408.96,141.55l-0.66-0.4c-0.11-0.06-0.14-0.21-0.07-0.32l0.4-0.66c0.06-0.11,0.21-0.14,0.32-0.07l0.66,0.4
				c0.11,0.06,0.14,0.21,0.07,0.32l-0.4,0.66C409.2,141.58,409.07,141.61,408.96,141.55z"/>
			<path class="st3" d="M410.73,133.97l-0.66-0.4c-0.11-0.06-0.14-0.21-0.07-0.32l0.4-0.66c0.06-0.11,0.21-0.14,0.32-0.07l0.66,0.4
				c0.11,0.06,0.14,0.21,0.07,0.32l-0.4,0.66C410.98,134.01,410.84,134.04,410.73,133.97z"/>
			<path class="st4" d="M406.06,136.87l-0.66-0.4c-0.11-0.06-0.14-0.21-0.07-0.32l0.4-0.66c0.06-0.11,0.21-0.14,0.32-0.07l0.66,0.4
				c0.11,0.06,0.14,0.21,0.07,0.32l-0.4,0.66C406.31,136.9,406.17,136.94,406.06,136.87z"/>
			<path class="st3" d="M392.2,131.22l-0.66-0.4c-0.11-0.06-0.14-0.21-0.07-0.32l0.4-0.66c0.06-0.11,0.21-0.14,0.32-0.07l0.66,0.4
				c0.11,0.06,0.14,0.21,0.07,0.32l-0.4,0.66C392.45,131.25,392.31,131.28,392.2,131.22z"/>
			<path class="st3" d="M391.38,146.61l-0.66-0.4c-0.11-0.06-0.14-0.21-0.07-0.32l0.4-0.66c0.06-0.11,0.21-0.14,0.32-0.07l0.66,0.4
				c0.11,0.06,0.14,0.21,0.07,0.32l-0.4,0.66C391.63,146.64,391.49,146.67,391.38,146.61z"/>
			<path class="st4" d="M396.06,143.71l-0.66-0.4c-0.11-0.06-0.14-0.21-0.07-0.32l0.4-0.66c0.06-0.11,0.21-0.14,0.32-0.07l0.66,0.4
				c0.11,0.06,0.14,0.21,0.07,0.32l-0.4,0.66C396.3,143.74,396.17,143.78,396.06,143.71z"/>
			<path class="st3" d="M344.59,107.63l-0.66-0.4c-0.11-0.06-0.14-0.21-0.07-0.32l0.4-0.66c0.06-0.11,0.21-0.14,0.32-0.07l0.66,0.4
				c0.11,0.06,0.14,0.21,0.07,0.32l-0.4,0.66C344.84,107.67,344.7,107.7,344.59,107.63z"/>
			<path class="st4" d="M350.32,105.39l-0.66-0.4c-0.11-0.06-0.14-0.21-0.07-0.32l0.4-0.66c0.06-0.11,0.21-0.14,0.32-0.07l0.66,0.4
				c0.11,0.06,0.14,0.21,0.07,0.32l-0.4,0.66C350.57,105.41,350.42,105.45,350.32,105.39z"/>
			<path class="st4" d="M343.62,118.6l-0.66-0.4c-0.11-0.06-0.14-0.21-0.07-0.32l0.4-0.66c0.06-0.11,0.21-0.14,0.32-0.07l0.66,0.4
				c0.11,0.06,0.14,0.21,0.07,0.32l-0.4,0.66C343.87,118.63,343.72,118.66,343.62,118.6z"/>
		</g>
		<g>
			<g>
				<path class="st0" d="M277.09,283.25c-1.28,3.03,0.25,3.54-1.16,6.53c-0.59,1.23-1.47,2.29-2.08,3.5
					c-2.03,3.96-0.96,8.72,0.15,13.02c0.29,1.16,0.61,2.33,1.23,3.35c0.93,1.51,2.47,2.54,4.07,3.29c5.54,2.59,12.22,2.3,17.76-0.28
					c5.55-2.58,9.96-7.29,12.71-12.74c0.46-0.91,0.88-1.86,1-2.87c0.14-1.12-0.1-2.26-0.49-3.31c-1.5-4.17-5.08-7.21-8.63-9.88
					c-1.16-0.88-2.38-1.75-3.8-2.13c-1.74-0.47-3.6-0.12-5.39-0.37c-2.61-0.36-4.9-1.94-7.43-2.7
					C282.5,277.89,278.11,280.81,277.09,283.25L277.09,283.25z"/>
			</g>
			<g>
				<path class="st1" d="M278.35,277.42c2.04-2.4,5.06-3.96,8.2-4.24c0.7-0.06,1.4-0.06,2.07,0.12c0.93,0.25,1.71,0.83,2.5,1.36
					c1.77,1.21,3.63,2.3,5.56,3.25c0.16,0.08,0.34,0.17,0.43,0.33c0.19,0.34-0.09,0.74-0.38,1.01c-2.99,2.87-7.79,3.65-11.54,1.88
					c-2.3-1.09-4.24-3.05-6.75-3.51L278.35,277.42z"/>
			</g>
			<path class="st2" d="M278.27,277.33c0,0,6.03-2.34,11.57,0.55C289.84,277.89,285.18,274.02,278.27,277.33z"/>
			<path class="st1" d="M276.06,275.37c-0.46,0.39-0.46,1.07,0.01,1.43c1.21,0.94,3.37,2.7,4.79,4.41c0.16,0.19,0.5,0.02,0.4-0.21
				c-0.58-1.5-1.61-3.82-3.2-5.93c-0.34-0.46-1.05-0.51-1.49-0.13L276.06,275.37z"/>
			<path class="st3" d="M299.38,287.34l-0.12,0.04c-0.12,0.04-0.25-0.04-0.28-0.16l-0.04-0.12c-0.04-0.12,0.04-0.25,0.16-0.28
				l0.12-0.04c0.12-0.04,0.25,0.04,0.28,0.16l0.04,0.12C299.57,287.19,299.5,287.31,299.38,287.34z"/>
			<path class="st3" d="M276.32,298.73l-0.12,0.04c-0.12,0.04-0.25-0.04-0.28-0.16l-0.04-0.12c-0.04-0.12,0.04-0.25,0.16-0.28
				l0.12-0.04c0.12-0.04,0.25,0.04,0.28,0.16l0.04,0.12C276.52,298.56,276.45,298.69,276.32,298.73z"/>
			<path class="st3" d="M284.19,309.34l-0.12,0.04c-0.12,0.04-0.25-0.04-0.28-0.16l-0.04-0.12c-0.04-0.12,0.04-0.25,0.16-0.28
				l0.12-0.04c0.12-0.04,0.25,0.04,0.28,0.16l0.04,0.12C284.39,309.17,284.32,309.3,284.19,309.34z"/>
			<path class="st3" d="M309.45,294.9l-0.12,0.04c-0.12,0.04-0.25-0.04-0.28-0.16l-0.04-0.12c-0.04-0.12,0.04-0.25,0.16-0.28
				l0.12-0.04c0.12-0.04,0.25,0.04,0.28,0.16l0.04,0.12C309.64,294.73,309.57,294.86,309.45,294.9z"/>
			<path class="st3" d="M307.36,291.82l-0.12,0.04c-0.12,0.04-0.25-0.04-0.28-0.16l-0.04-0.12c-0.04-0.12,0.04-0.25,0.16-0.28
				l0.12-0.04c0.12-0.04,0.25,0.04,0.28,0.16l0.04,0.12C307.55,291.65,307.48,291.78,307.36,291.82z"/>
			<path class="st4" d="M306.86,294.4l-0.12,0.04c-0.12,0.04-0.25-0.04-0.28-0.16l-0.04-0.12c-0.04-0.12,0.04-0.25,0.16-0.28
				l0.12-0.04c0.12-0.04,0.25,0.04,0.28,0.16l0.04,0.12C307.05,294.24,306.99,294.37,306.86,294.4z"/>
			<path class="st3" d="M300.39,297.45l-0.12,0.04c-0.12,0.04-0.25-0.04-0.28-0.16l-0.04-0.12c-0.04-0.12,0.04-0.25,0.16-0.28
				l0.12-0.04c0.12-0.04,0.25,0.04,0.28,0.16l0.04,0.12C300.58,297.28,300.52,297.41,300.39,297.45z"/>
			<path class="st3" d="M305.54,302.72l-0.12,0.04c-0.12,0.04-0.25-0.04-0.28-0.16l-0.04-0.12c-0.04-0.12,0.04-0.25,0.16-0.28
				l0.12-0.04c0.12-0.04,0.25,0.04,0.28,0.16l0.04,0.12C305.73,302.55,305.66,302.68,305.54,302.72z"/>
			<path class="st4" d="M306.04,300.13l-0.12,0.04c-0.12,0.04-0.25-0.04-0.28-0.16l-0.04-0.12c-0.04-0.12,0.04-0.25,0.16-0.28
				l0.12-0.04c0.12-0.04,0.25,0.04,0.28,0.16l0.04,0.12C306.23,299.97,306.16,300.09,306.04,300.13z"/>
			<path class="st3" d="M276.69,306.57l-0.12,0.04c-0.12,0.04-0.25-0.04-0.28-0.16l-0.04-0.12c-0.04-0.12,0.04-0.25,0.16-0.28
				l0.12-0.04c0.12-0.04,0.25,0.04,0.28,0.16l0.04,0.12C276.89,306.4,276.82,306.53,276.69,306.57z"/>
			<path class="st4" d="M277.76,303.82l-0.12,0.04c-0.12,0.04-0.25-0.04-0.28-0.16l-0.04-0.12c-0.04-0.12,0.04-0.25,0.16-0.28
				l0.12-0.04c0.12-0.04,0.25,0.04,0.28,0.16l0.04,0.12C277.95,303.66,277.88,303.79,277.76,303.82z"/>
			<path class="st4" d="M280.23,310.45l-0.12,0.04c-0.12,0.04-0.25-0.04-0.28-0.16l-0.04-0.12c-0.04-0.12,0.04-0.25,0.16-0.28
				l0.12-0.04c0.12-0.04,0.25,0.04,0.28,0.16l0.04,0.12C280.42,310.29,280.36,310.42,280.23,310.45z"/>
		</g>
		<g>
			<path class="st5" d="M418.6,210.91c4.38,5.54,4.24,12.94,4.24,12.94s-7.24-1.58-11.61-7.11c-4.38-5.54-4.24-12.94-4.24-12.94
				S414.22,205.37,418.6,210.91z"/>
			<path class="st6" d="M409.33,216.41c6.88,1.56,11.43,7.42,11.43,7.42s-6.62,3.32-13.5,1.76c-6.88-1.56-11.43-7.42-11.43-7.42
				S402.45,214.85,409.33,216.41z"/>
			<path class="st7" d="M427.34,210.53c-5.3-0.97-10.4,2.22-11.93,7.24c-3.96,0.91-7.21,4.08-7.98,8.33
				c-0.78,4.24,1.11,8.35,4.47,10.62c-0.47,5.33,3.18,10.23,8.55,11.22c3.03,0.56,5.99-0.25,8.26-1.97
				c0.46,0.15,0.93,0.28,1.41,0.37c5.69,1.05,11.17-2.72,12.21-8.42c0.39-2.15,0.11-4.25-0.71-6.11c1.42-1.45,2.45-3.32,2.84-5.45
				c1.03-5.6-2.69-11.08-8.28-12.18c-0.95-0.19-1.9-0.24-2.82-0.17C431.86,212.25,429.78,210.98,427.34,210.53z"/>
			<path class="st8" d="M425.85,221.07c-0.88-0.01-1.6,0.71-1.6,1.59c-0.01,0.81,0.59,1.48,1.37,1.59l-0.04,5.26l-5.17-0.95
				c0.04-0.79-0.5-1.49-1.3-1.64c-0.87-0.16-1.7,0.41-1.86,1.28c-0.16,0.87,0.41,1.7,1.28,1.86c0.8,0.15,1.55-0.33,1.8-1.07
				l5.12,0.94l-2.64,4.49c-0.72-0.3-1.58-0.04-1.99,0.66c-0.45,0.76-0.19,1.74,0.57,2.18c0.76,0.45,1.74,0.19,2.18-0.57
				c0.41-0.7,0.23-1.57-0.39-2.05l2.64-4.49l3.32,4.02c-0.53,0.58-0.58,1.47-0.06,2.09c0.56,0.68,1.57,0.78,2.25,0.21
				c0.68-0.56,0.78-1.57,0.21-2.25c-0.51-0.62-1.4-0.75-2.06-0.34l-3.32-4.02l4.9-1.74c0.36,0.7,1.18,1.05,1.94,0.77
				c0.83-0.29,1.27-1.21,0.97-2.04c-0.29-0.83-1.21-1.27-2.04-0.97c-0.76,0.27-1.18,1.05-1.02,1.82l-4.9,1.74l0.04-5.21
				c0.78-0.1,1.38-0.76,1.39-1.57C427.44,221.79,426.73,221.07,425.85,221.07z"/>
		</g>
		<g>
			<path class="st5" d="M205.58,173.23c-11.1,4.02-22.79-0.1-22.79-0.1s6.32-10.66,17.43-14.69c11.1-4.02,22.79,0.1,22.79,0.1
				S216.68,169.2,205.58,173.23z"/>
			<path class="st6" d="M201.74,155.62c-6.11,10.1-17.8,14.23-17.8,14.23s-1.77-12.27,4.35-22.37s17.8-14.23,17.8-14.23
				S207.86,145.51,201.74,155.62z"/>
			<path class="st7" d="M201.56,187.3c4.35-7.89,1.97-17.66-5.2-22.76c0.66-6.77-2.68-13.59-9-17.08
				c-6.32-3.47-13.84-2.65-19.21,1.5c-8.2-3.56-17.93-0.35-22.33,7.65c-2.48,4.51-2.78,9.63-1.23,14.15
				c-0.48,0.64-0.93,1.32-1.32,2.04c-4.68,8.49-1.58,19.16,6.91,23.83c3.2,1.76,6.7,2.42,10.07,2.1c1.54,3.03,3.97,5.63,7.17,7.39
				c8.35,4.59,19,1.59,23.72-6.7c0.81-1.41,1.38-2.89,1.77-4.39C196.45,193.58,199.55,190.94,201.56,187.3z"/>
			<path class="st8" d="M185.64,179.37c0.48-1.39-0.27-2.92-1.67-3.39c-1.27-0.44-2.65,0.16-3.24,1.33l-8.33-2.84l4.24-7.71
				c1.23,0.47,2.64-0.01,3.29-1.19c0.72-1.29,0.24-2.92-1.05-3.63c-1.29-0.72-2.92-0.24-3.63,1.05c-0.65,1.18-0.3,2.63,0.75,3.42
				l-4.2,7.64l-5.74-6.56c0.86-0.99,0.89-2.48,0-3.5c-0.97-1.11-2.66-1.22-3.77-0.26c-1.11,0.97-1.22,2.66-0.26,3.77
				c0.89,1.02,2.37,1.18,3.47,0.47l5.74,6.56l-8.12,3.14c-0.63-1.15-2.03-1.69-3.29-1.2c-1.38,0.53-2.05,2.08-1.52,3.46
				c0.53,1.38,2.08,2.06,3.46,1.52c1.26-0.49,1.93-1.82,1.62-3.1l8.12-3.14l0.17,8.71c-1.29,0.2-2.28,1.33-2.26,2.68
				c0.03,1.48,1.25,2.65,2.72,2.61c1.48-0.03,2.65-1.25,2.61-2.72c-0.03-1.35-1.05-2.43-2.36-2.59l-0.17-8.71l8.25,2.81
				c-0.25,1.29,0.47,2.59,1.75,3.03C183.65,181.52,185.16,180.78,185.64,179.37z"/>
		</g>
	</g>
	<g>
		<g>
			<path class="st0" d="M1490.54,78.74c3.65,1.3,2.87,3.03,6.56,4.18c1.52,0.48,3.14,0.56,4.68,0.98
				c5.03,1.39,8.31,6.11,11.15,10.49c0.76,1.17,1.54,2.37,1.93,3.72c0.57,2,0.23,4.15-0.39,6.13c-2.15,6.85-7.73,12.39-14.36,15.13
				s-14.22,2.81-21.13,0.85c-1.16-0.33-2.31-0.72-3.28-1.42c-1.07-0.77-1.87-1.88-2.48-3.05c-2.41-4.62-2.2-10.13-1.69-15.32
				c0.17-1.71,0.39-3.46,1.18-4.98c0.98-1.88,2.76-3.21,3.97-4.96c1.77-2.55,2.22-5.78,3.57-8.57S1487.62,77.69,1490.54,78.74
				L1490.54,78.74z"/>
		</g>
		<g>
			<path class="st1" d="M1484.49,75.2c-3.7-0.14-7.44,1.22-10.18,3.71c-0.61,0.55-1.17,1.16-1.55,1.89c-0.51,1-0.65,2.14-0.82,3.25
				c-0.37,2.49-0.91,4.97-1.61,7.39c-0.06,0.21-0.13,0.43-0.06,0.64c0.14,0.43,0.72,0.51,1.17,0.49c4.86-0.3,9.36-3.83,10.8-8.49
				c0.89-2.86,0.73-6.09,2.33-8.63L1484.49,75.2z"/>
		</g>
		<path class="st2" d="M1484.49,75.07c0,0-6.82,3.36-8.73,10.44C1475.78,85.51,1476.13,78.41,1484.49,75.07z"/>
		<path class="st1" d="M1484.55,71.59c0.71-0.08,1.29,0.46,1.23,1.15c-0.16,1.79-0.36,5.07,0.01,7.65c0.05,0.29-0.38,0.44-0.5,0.18
			c-0.84-1.69-2.02-4.44-2.58-7.49c-0.12-0.66,0.39-1.31,1.08-1.39L1484.55,71.59z"/>
		<path class="st3" d="M1476.33,101.31l0.19-0.12c0.11-0.06,0.14-0.21,0.07-0.32l-0.12-0.19c-0.06-0.11-0.21-0.14-0.32-0.07
			l-0.19,0.12c-0.11,0.06-0.14,0.21-0.07,0.32l0.12,0.19C1476.08,101.34,1476.22,101.37,1476.33,101.31z"/>
		<path class="st3" d="M1504.51,90.42l0.19-0.12c0.11-0.06,0.14-0.21,0.07-0.32l-0.12-0.19c-0.06-0.11-0.21-0.14-0.32-0.07
			l-0.19,0.12c-0.11,0.06-0.14,0.21-0.07,0.32l0.12,0.19C1504.26,90.46,1504.4,90.48,1504.51,90.42z"/>
		<path class="st3" d="M1507.42,105.66l0.19-0.12c0.11-0.06,0.14-0.21,0.07-0.32l-0.12-0.19c-0.06-0.11-0.21-0.14-0.32-0.07
			l-0.19,0.12c-0.11,0.06-0.14,0.21-0.07,0.32l0.12,0.19C1507.17,105.7,1507.31,105.74,1507.42,105.66z"/>
		<path class="st3" d="M1474.85,116.01l0.19-0.12c0.11-0.06,0.14-0.21,0.07-0.32l-0.12-0.19c-0.06-0.11-0.21-0.14-0.32-0.07
			l-0.19,0.12c-0.11,0.06-0.14,0.21-0.07,0.32l0.12,0.19C1474.59,116.05,1474.74,116.09,1474.85,116.01z"/>
		<path class="st3" d="M1473.84,111.76l0.19-0.12c0.11-0.06,0.14-0.21,0.07-0.32l-0.12-0.19c-0.06-0.11-0.21-0.14-0.32-0.07
			l-0.19,0.12c-0.11,0.06-0.14,0.21-0.07,0.32l0.12,0.19C1473.59,111.8,1473.74,111.83,1473.84,111.76z"/>
		<path class="st4" d="M1476.47,113.39l0.19-0.12c0.11-0.06,0.14-0.21,0.07-0.32l-0.12-0.19c-0.06-0.11-0.21-0.14-0.32-0.07
			l-0.19,0.12c-0.11,0.06-0.14,0.21-0.07,0.32l0.12,0.19C1476.22,113.42,1476.36,113.46,1476.47,113.39z"/>
		<path class="st3" d="M1484.26,110.21l0.19-0.12c0.11-0.06,0.14-0.21,0.07-0.32l-0.12-0.19c-0.06-0.11-0.21-0.14-0.32-0.07
			l-0.19,0.12c-0.11,0.06-0.14,0.21-0.07,0.32l0.12,0.19C1484.01,110.25,1484.15,110.28,1484.26,110.21z"/>
		<path class="st3" d="M1484.71,118.85l0.19-0.12c0.11-0.06,0.14-0.21,0.07-0.32l-0.12-0.19c-0.06-0.11-0.21-0.14-0.32-0.07
			l-0.19,0.12c-0.11,0.06-0.14,0.21-0.07,0.32l0.12,0.19C1484.47,118.89,1484.6,118.93,1484.71,118.85z"/>
		<path class="st4" d="M1482.09,117.23l0.19-0.12c0.11-0.06,0.14-0.21,0.07-0.32l-0.12-0.19c-0.06-0.11-0.21-0.14-0.32-0.07
			l-0.19,0.12c-0.11,0.06-0.14,0.21-0.07,0.32l0.12,0.19C1481.83,117.26,1481.98,117.3,1482.09,117.23z"/>
		<path class="st3" d="M1510.99,96.97l0.19-0.12c0.11-0.06,0.14-0.21,0.07-0.32l-0.12-0.19c-0.06-0.11-0.21-0.14-0.32-0.07
			l-0.19,0.12c-0.11,0.06-0.14,0.21-0.07,0.32l0.12,0.19C1510.74,97.01,1510.88,97.04,1510.99,96.97z"/>
		<path class="st4" d="M1507.77,95.71l0.19-0.12c0.11-0.06,0.14-0.21,0.07-0.32l-0.12-0.19c-0.06-0.11-0.21-0.14-0.32-0.07
			l-0.19,0.12c-0.11,0.06-0.14,0.21-0.07,0.32l0.12,0.19C1507.52,95.74,1507.67,95.77,1507.77,95.71z"/>
		<path class="st4" d="M1511.54,103.12l0.19-0.12c0.11-0.06,0.14-0.21,0.07-0.32l-0.12-0.19c-0.06-0.11-0.21-0.14-0.32-0.07
			l-0.19,0.12c-0.11,0.06-0.14,0.21-0.07,0.32l0.12,0.19C1511.29,103.16,1511.43,103.2,1511.54,103.12z"/>
	</g>
	<g>
		<g>
			<path class="st0" d="M1601.31,259c0.32,5.45-2.35,5.38-1.82,10.82c0.22,2.24,1,4.4,1.3,6.63c0.94,7.3-3.36,14.13-7.48,20.23
				c-1.11,1.64-2.24,3.3-3.78,4.54c-2.28,1.84-5.27,2.58-8.18,2.87c-10.08,0.96-20.34-3.22-27.55-10.33
				c-7.21-7.11-11.47-16.9-12.72-26.95c-0.2-1.68-0.34-3.39,0.04-5.03c0.42-1.82,1.42-3.46,2.61-4.89
				c4.67-5.68,11.94-8.43,18.96-10.61c2.31-0.72,4.7-1.4,7.1-1.21c2.97,0.25,5.69,1.82,8.62,2.43c4.28,0.89,8.71-0.3,13.09-0.08
				C1595.86,247.64,1601.06,254.64,1601.31,259L1601.31,259z"/>
		</g>
		<g>
			<path class="st1" d="M1602.58,249.2c-1.85-4.88-5.68-8.99-10.42-11.18c-1.05-0.48-2.15-0.89-3.3-0.98
				c-1.57-0.13-3.13,0.33-4.66,0.72c-3.44,0.9-6.94,1.55-10.48,1.96c-0.3,0.04-0.63,0.08-0.86,0.27c-0.49,0.42-0.27,1.21,0.01,1.79
				c3.07,6.14,10.12,10.03,16.95,9.36c4.2-0.42,8.31-2.39,12.47-1.72L1602.58,249.2z"/>
		</g>
		<path class="st2" d="M1602.75,249.13c0,0-8.1-7.01-18.35-5.58C1584.4,243.55,1593.82,240.11,1602.75,249.13z"/>
		<path class="st1" d="M1607.3,247.3c0.5,0.87,0.12,1.93-0.81,2.22c-2.4,0.78-6.77,2.32-9.92,4.22c-0.36,0.22-0.77-0.24-0.51-0.56
			c1.73-2.02,4.65-5.06,8.29-7.48c0.79-0.52,1.92-0.22,2.41,0.64L1607.3,247.3z"/>
		<path class="st3" d="M1564.22,252.96l0.25,0.17c0.15,0.1,0.36,0.07,0.47-0.09l0.17-0.25c0.1-0.15,0.07-0.36-0.09-0.47l-0.25-0.17
			c-0.15-0.1-0.36-0.07-0.47,0.09l-0.17,0.25C1564.03,252.65,1564.06,252.85,1564.22,252.96z"/>
		<path class="st3" d="M1593.84,283.56l0.25,0.17c0.15,0.1,0.36,0.07,0.47-0.09l0.17-0.25c0.1-0.15,0.07-0.36-0.09-0.47l-0.25-0.17
			c-0.15-0.1-0.36-0.07-0.47,0.09l-0.17,0.25C1593.65,283.24,1593.68,283.46,1593.84,283.56z"/>
		<path class="st3" d="M1575.64,295.72l0.25,0.17c0.15,0.1,0.36,0.07,0.47-0.09l0.17-0.25c0.1-0.15,0.07-0.36-0.09-0.47l-0.25-0.17
			c-0.15-0.1-0.36-0.07-0.47,0.09l-0.17,0.25C1575.46,295.39,1575.5,295.61,1575.64,295.72z"/>
		<path class="st3" d="M1544.3,259.12l0.25,0.17c0.15,0.1,0.36,0.07,0.47-0.09l0.17-0.25c0.1-0.15,0.07-0.36-0.09-0.47l-0.25-0.17
			c-0.15-0.1-0.36-0.07-0.47,0.09l-0.17,0.25C1544.12,258.81,1544.16,259.01,1544.3,259.12z"/>
		<path class="st3" d="M1549.28,255.49l0.25,0.17c0.15,0.1,0.36,0.07,0.47-0.09l0.17-0.25c0.1-0.15,0.07-0.36-0.09-0.47l-0.25-0.17
			c-0.15-0.1-0.36-0.07-0.47,0.09l-0.17,0.25C1549.09,255.17,1549.12,255.38,1549.28,255.49z"/>
		<path class="st4" d="M1548.61,259.79l0.25,0.17c0.15,0.1,0.36,0.07,0.47-0.09l0.17-0.25c0.1-0.15,0.07-0.36-0.09-0.47l-0.25-0.17
			c-0.15-0.1-0.36-0.07-0.47,0.09l-0.17,0.25C1548.43,259.47,1548.45,259.68,1548.61,259.79z"/>
		<path class="st3" d="M1557.01,268.15l0.25,0.17c0.15,0.1,0.36,0.07,0.47-0.09l0.17-0.25c0.1-0.15,0.07-0.36-0.09-0.47l-0.25-0.17
			c-0.15-0.1-0.36-0.07-0.47,0.09l-0.17,0.25C1556.82,267.83,1556.86,268.03,1557.01,268.15z"/>
		<path class="st3" d="M1546.04,273.5l0.25,0.17c0.15,0.1,0.36,0.07,0.47-0.09l0.17-0.25c0.1-0.15,0.07-0.36-0.09-0.47l-0.25-0.17
			c-0.15-0.1-0.36-0.07-0.47,0.09l-0.17,0.25C1545.86,273.18,1545.89,273.39,1546.04,273.5z"/>
		<path class="st4" d="M1546.71,269.19l0.25,0.17c0.15,0.1,0.36,0.07,0.47-0.09l0.17-0.25c0.1-0.15,0.07-0.36-0.09-0.47l-0.25-0.17
			c-0.15-0.1-0.36-0.07-0.47,0.09l-0.17,0.25C1546.51,268.88,1546.56,269.08,1546.71,269.19z"/>
		<path class="st3" d="M1588.89,295.57l0.25,0.17c0.15,0.1,0.36,0.07,0.47-0.09l0.17-0.25c0.1-0.15,0.07-0.36-0.09-0.47l-0.25-0.17
			c-0.15-0.1-0.36-0.07-0.47,0.09l-0.17,0.25C1588.7,295.25,1588.74,295.47,1588.89,295.57z"/>
		<path class="st4" d="M1588.76,290.7l0.25,0.17c0.15,0.1,0.36,0.07,0.47-0.09l0.17-0.25c0.1-0.15,0.07-0.36-0.09-0.47l-0.25-0.17
			c-0.15-0.1-0.36-0.07-0.47,0.09l-0.17,0.25C1588.58,290.38,1588.61,290.6,1588.76,290.7z"/>
		<path class="st4" d="M1581.2,299.66l0.25,0.17c0.15,0.1,0.36,0.07,0.47-0.09l0.17-0.25c0.1-0.15,0.07-0.36-0.09-0.47l-0.25-0.17
			c-0.15-0.1-0.36-0.07-0.47,0.09l-0.17,0.25C1581.02,299.34,1581.05,299.56,1581.2,299.66z"/>
	</g>
	<g>
		<path class="st5" d="M1666.85,124.48c-13.89,5.03-28.5-0.13-28.5-0.13s7.9-13.33,21.79-18.36s28.5,0.13,28.5,0.13
			S1680.73,119.45,1666.85,124.48z"/>
		<path class="st6" d="M1662.05,102.46c-7.65,12.63-22.27,17.78-22.27,17.78s-2.21-15.34,5.44-27.97
			c7.65-12.63,22.27-17.78,22.27-17.78S1669.7,89.83,1662.05,102.46z"/>
		<path class="st7" d="M1661.81,142.08c5.44-9.87,2.47-22.09-6.5-28.45c0.82-8.46-3.35-17-11.26-21.35
			c-7.9-4.35-17.32-3.32-24.02,1.88c-10.27-4.45-22.42-0.44-27.92,9.56c-3.11,5.64-3.47,12.05-1.54,17.69
			c-0.6,0.81-1.16,1.65-1.65,2.56c-5.85,10.62-1.97,23.96,8.64,29.8c4,2.2,8.38,3.03,12.6,2.63c1.93,3.78,4.97,7.04,8.97,9.24
			c10.44,5.75,23.77,1.98,29.66-8.38c1-1.77,1.73-3.61,2.21-5.48C1655.43,149.94,1659.31,146.63,1661.81,142.08z"/>
		<path class="st8" d="M1641.9,132.17c0.6-1.74-0.34-3.64-2.08-4.24c-1.59-0.54-3.31,0.2-4.05,1.67l-10.41-3.55l5.31-9.64
			c1.53,0.59,3.3-0.02,4.12-1.49c0.89-1.61,0.3-3.65-1.31-4.54s-3.65-0.3-4.54,1.31c-0.82,1.48-0.38,3.29,0.94,4.27l-5.25,9.54
			l-7.17-8.2c1.08-1.24,1.12-3.11,0-4.38c-1.21-1.38-3.32-1.53-4.71-0.31c-1.38,1.21-1.53,3.32-0.31,4.71
			c1.11,1.27,2.97,1.49,4.34,0.58l7.17,8.2l-10.16,3.93c-0.8-1.44-2.54-2.11-4.12-1.5c-1.72,0.67-2.58,2.6-1.91,4.32
			c0.67,1.72,2.6,2.58,4.32,1.91c1.58-0.61,2.41-2.28,2.03-3.88l10.16-3.93l0.22,10.89c-1.62,0.26-2.85,1.66-2.81,3.36
			c0.04,1.84,1.56,3.31,3.41,3.27c1.84-0.04,3.31-1.56,3.27-3.41c-0.04-1.69-1.32-3.04-2.95-3.24l-0.22-10.89l10.31,3.52
			c-0.31,1.61,0.59,3.25,2.18,3.8C1639.41,134.85,1641.31,133.92,1641.9,132.17z"/>
	</g>
	<g>
		<path class="st5" d="M1755.07,263c-5.73-5.37-6.79-13.54-6.79-13.54s8.22,0.54,13.94,5.91c5.72,5.37,6.79,13.54,6.79,13.54
			S1760.79,268.36,1755.07,263z"/>
		<path class="st6" d="M1764.35,255.43c-7.83-0.59-13.79-6.27-13.79-6.27s6.74-4.74,14.57-4.15c7.83,0.59,13.79,6.27,13.79,6.27
			S1772.18,256,1764.35,255.43z"/>
		<path class="st7" d="M1745.51,264.84c5.99,0.2,11.06-4.14,11.93-9.93c4.21-1.65,7.25-5.67,7.41-10.48c0.17-4.79-2.59-9-6.66-10.94
			c-0.36-5.93-5.19-10.73-11.25-10.94c-3.42-0.12-6.55,1.26-8.75,3.53c-0.52-0.09-1.06-0.15-1.61-0.16
			c-6.44-0.22-11.83,4.83-12.05,11.27c-0.08,2.42,0.59,4.69,1.79,6.6c-1.33,1.82-2.15,4.04-2.23,6.47
			c-0.21,6.33,4.78,11.74,11.1,12.05c1.08,0.05,2.13-0.05,3.14-0.27C1740.26,263.7,1742.76,264.75,1745.51,264.84z"/>
		<path class="st8" d="M1745.43,253.02c0.97-0.14,1.64-1.04,1.5-2.01c-0.13-0.89-0.89-1.52-1.76-1.52l-0.83-5.79l5.85,0.19
			c0.09,0.87,0.8,1.56,1.7,1.6c0.98,0.04,1.8-0.73,1.83-1.71c0.04-0.98-0.73-1.8-1.71-1.83c-0.9-0.03-1.65,0.61-1.8,1.48l-5.78-0.19
			l2.16-5.37c0.84,0.21,1.74-0.22,2.07-1.05c0.37-0.91-0.07-1.94-0.98-2.31c-0.91-0.37-1.94,0.07-2.31,0.98
			c-0.34,0.83,0.01,1.76,0.77,2.2l-2.16,5.37l-4.31-3.87c0.49-0.72,0.39-1.71-0.28-2.31c-0.73-0.65-1.85-0.6-2.5,0.14
			c-0.65,0.73-0.6,1.85,0.14,2.5c0.67,0.6,1.66,0.6,2.33,0.03l4.31,3.87l-5.11,2.72c-0.51-0.71-1.48-0.95-2.26-0.53
			c-0.86,0.46-1.19,1.54-0.73,2.4s1.54,1.19,2.4,0.73c0.79-0.42,1.13-1.36,0.83-2.17l5.11-2.72l0.82,5.74
			c-0.84,0.24-1.4,1.06-1.27,1.95C1743.56,252.48,1744.45,253.16,1745.43,253.02z"/>
	</g>
</g>
</svg>
