<?xml version="1.0" encoding="utf-8"?>
<!-- Generator: Adobe Illustrator 24.1.1, SVG Export Plug-In . SVG Version: 6.00 Build 0)  -->
<svg version="1.1" id="Layer_1" xmlns="http://www.w3.org/2000/svg" xmlns:xlink="http://www.w3.org/1999/xlink" x="0px" y="0px"
	 viewBox="0 0 1920 1000" style="enable-background:new 0 0 1920 1000;" xml:space="preserve">
<style type="text/css">
	.st0{fill:url(#SVGID_1_);}
	.st1{fill:#995914;}
	.st2{fill:#63A72C;}
	.st3{fill:#C6E27C;}
	.st4{fill:#008500;}
	.st5{fill:url(#SVGID_2_);}
	.st6{fill:#A2DBF7;}
	.st7{fill:#935E36;}
	.st8{fill:#00511F;}
	.st9{fill:#EFF268;}
	.st10{fill:#AFAF4B;}
	.st11{fill:#696963;}
	.st12{fill:#4B4B4A;}
	.st13{fill:#191819;}
	.st14{fill:#514F51;}
	.st15{fill:#433E2B;}
	.st16{fill:#635C40;}
	.st17{fill:#666661;}
	.st18{fill:#8B8CA4;}
</style>
<radialGradient id="SVGID_1_" cx="1095.0349" cy="1011.9742" r="371.2929" gradientTransform="matrix(1.1982 0 0 -0.3477 -352.0709 1117.0792)" gradientUnits="userSpaceOnUse">
	<stop  offset="0" style="stop-color:#00B5F1"/>
	<stop  offset="1" style="stop-color:#FFFFFF"/>
</radialGradient>
<rect x="375.32" y="633.78" class="st0" width="1169.36" height="262.87"/>
<g>
	<g>
		<polygon class="st1" points="1172.47,666.74 1172.43,671.19 1175.28,670.29 		"/>
		<polygon class="st2" points="1203.19,654.84 1206.68,659.58 1204.91,661.25 1201.99,655.99 		"/>
		<g>
			<path class="st1" d="M1195.93,651.99c-3.45-2.2-7.72,1.01-10.51,4c-3.72,3.96-7.44,7.92-11.16,11.89c-0.97,1.03-2,2.27-1.8,3.67
				c0.12,0.85,0.68,1.55,1.22,2.22c1.52,1.88,3.05,3.75,4.57,5.63c0.68,0.84,1.39,1.71,2.36,2.22c1.19,0.63,2.59,0.64,3.93,0.63
				c5.17-0.03,10.34-0.06,15.51-0.1c0.85-0.01,1.74-0.02,2.49-0.43c0.74-0.4,1.24-1.13,1.66-1.85c2.97-5.13,3.32-11.69,0.91-17.11
				c-2.41-5.42-3.45-9.55-9.24-10.79"/>
		</g>
		<path class="st2" d="M1172.46,667.8l0.1,0.19c-0.04-0.13-0.08-0.27-0.1-0.42L1172.46,667.8z"/>
		<path class="st2" d="M1173.13,669.06L1173.13,669.06c0-0.01-0.01-0.01-0.01-0.01L1173.13,669.06z"/>
		<g>
			<path class="st2" d="M1173.13,669.06l-0.56-1.07C1172.69,668.37,1172.88,668.72,1173.13,669.06z"/>
		</g>
		<g>
			<path class="st2" d="M1195.93,648c-0.01-0.01-0.01-0.01-0.01-0.01c-0.02-0.01-0.04-0.01-0.07-0.01L1195.93,648z"/>
		</g>
		<g>
			<path class="st2" d="M1205.09,658.76c-2.4-5.4-3.44-9.51-9.18-10.77c0.01,0.01,0.01,0.01,0.01,0.01l-0.07-0.02
				c0.02,0.01,0.04,0.01,0.07,0.01c-3.44-2.19-7.7,1.02-10.5,4c-3.72,3.96-7.44,7.92-11.16,11.89c-0.04,0.04-0.07,0.07-0.1,0.1
				l-1.72-2.27l-0.01,0.07l0.02,5.06l0.01,0.72c0.02,0.15,0.06,0.28,0.1,0.42l0.56,1.07l0.01,0.01c0.17,0.24,0.36,0.48,0.54,0.7
				c1.52,1.88,3.05,3.75,4.57,5.63c0.68,0.84,1.39,1.71,2.36,2.22c1.19,0.63,2.59,0.64,3.93,0.63c5.17-0.03,10.34-0.07,15.51-0.1
				c0.85-0.01,1.74-0.02,2.49-0.43c0.74-0.4,1.24-1.13,1.66-1.85C1207.15,670.74,1207.5,664.18,1205.09,658.76z"/>
		</g>
		<g>
			<path class="st3" d="M1196.14,643.01c-5.04-0.9-7.93,0.74-10.73,3.72c-3.72,3.96-7.44,7.92-11.16,11.89
				c-0.97,1.03-2,2.27-1.8,3.67c0.12,0.85,0.68,1.55,1.22,2.22c1.52,1.88,3.05,3.75,4.57,5.63c0.68,0.84,1.39,1.71,2.36,2.22
				c1.19,0.63,2.59,0.64,3.93,0.63c5.17-0.03,10.34-0.07,15.51-0.1c0.85-0.01,1.74-0.02,2.49-0.43c0.74-0.4,1.24-1.13,1.66-1.85
				c2.97-5.13,3.32-11.69,0.91-17.11C1202.68,648.08,1201.94,644.24,1196.14,643.01"/>
		</g>
	</g>
	<path class="st1" d="M1167.81,728.45L1167.81,728.45L1167.81,728.45c0-0.02,0.01-0.04,0.01-0.07l0.66-10.94l-4.99,2.27
		c-0.32-0.37-0.65-0.72-0.97-1.07c-2.23-2.37-4.35-5.78-4.4-8.77c-0.04-2.02-1.55-3.73-3.53-4.16c-8.39-1.8-15.56-9.41-15.72-18.22
		c-0.02-1.14-0.23-2.28-0.67-3.33c-2.33-5.69-7.75-3.28-12.21-3.91c-8.08-1.16-11.57-12-19.45-14.09
		c-7.7-2.05-14.94,5.23-22.91,5.43c-6.65,0.17-12.36-4.56-18.77-6.33c-17.47-4.84-36.31,12.66-53.01,5.62
		c-3.58-1.51-6.77-4.09-10.6-4.73c-9.18-1.5-16.34,8.43-25.51,9.97c-5.37,0.9-10.74-1.18-16.12-1.99
		c-15.57-2.33-31.44,6.11-46.87,2.95c-9.48-1.94-18.65-8.2-28.03-5.82c-5.12,1.3-9.91,5.15-15.09,4.08
		c-3.04-0.62-5.71-2.91-8.81-2.78c-4.32,0.18-7.5,4.98-11.82,4.84c-4.07-0.13-6.91-4.6-10.96-5.06c-1.84-0.21-3.65,0.45-5.39,1.11
		c-8.37,3.14-14.55,10.82-22.89,14.04c-0.13,0.05-0.27,0.12-0.4,0.18c-0.3,0.16-0.65,0.21-0.98,0.12
		c-9.38-2.34-19.57-1.32-28.29,2.87c-4.49,2.16-8.62,5.13-13.38,6.6c-5.27,1.63-11.07,1.33-16.16,3.47
		c-9,3.79-13.45,14.07-21.52,19.59c-1.63,1.11-3.45,2.07-5.21,3.07l2.11-2.08l-9.98,21.76l1.05,0.04c-0.48,4.81-0.97,8.45-0.7,6.13
		c-0.11,0.93-0.3,1.85-0.55,2.75l-1.15-2.91l-1.2,11.66c-0.04,0.39-0.07,0.78-0.07,1.17l-0.01,0.12l0.01,0.01
		c-0.01,0.39,0.01,0.78,0.04,1.17c0.35,3.56,2.54,6.67,4.99,9.26c7.95,8.37,19.06,12.82,29.68,17.33
		c14.49,6.15,29.33,13.3,38.88,25.81c3.75,4.9,6.6,10.54,11.05,14.81c4.46,4.27,11.3,6.94,16.85,4.25c3.34-1.62,5.57-4.82,8.03-7.61
		c9.24-10.43,23.86-15.83,37.66-13.91c6.32,0.88,12.65,3.18,18.92,1.99c4.45-0.85,8.38-3.39,12.67-4.81
		c4.29-1.43,9.67-1.44,12.66,1.96c1.38,1.57,2.06,3.66,3.5,5.17c3.17,3.33,8.69,2.65,12.89,0.79c4.2-1.86,8.18-4.68,12.77-4.95
		c5.01-0.29,9.76,2.56,14.78,2.53c7.33-0.05,13.3-6.1,20.48-7.56c12.62-2.56,26.58,9.26,37.63,2.62c4.88-2.94,8.15-9.15,13.84-9.48
		c3.55-0.21,6.88,2.09,10.43,1.97c4.54-0.15,8.01-4.1,12.33-5.51c10.62-3.47,19.7,8.83,30.62,11.21
		c9.81,2.15,19.42-4.06,26.92-10.75s14.85-14.51,24.67-16.66c3.68-0.8,7.76-0.85,10.69-3.2c5.19-4.18,3.72-12.95,8.2-17.88
		c4.36-4.78,13.16-4.59,15.91-10.45c2.16-4.57-0.72-10.69,2.32-14.73c1.21-1.61,3.17-2.56,4.25-4.26
		C1167.51,730.28,1167.77,729.38,1167.81,728.45z"/>
	<path class="st2" d="M1168.58,720.01L1168.58,720.01L1168.58,720.01c0-0.02,0.01-0.04,0.01-0.07l0.66-10.94l-4.99,2.27
		c-0.32-0.37-0.65-0.72-0.97-1.07c-2.23-2.37-4.35-5.78-4.4-8.77c-0.04-2.02-1.55-3.73-3.53-4.16c-8.39-1.8-15.56-9.41-15.72-18.22
		c-0.02-1.14-0.23-2.28-0.67-3.33c-2.33-5.69-7.75-3.28-12.21-3.91c-8.08-1.16-11.57-12-19.45-14.09
		c-7.7-2.05-14.94,5.23-22.91,5.43c-6.65,0.17-12.36-4.56-18.77-6.33c-17.47-4.84-36.3,12.66-53,5.62
		c-3.58-1.51-6.77-4.09-10.61-4.73c-9.18-1.5-16.34,8.43-25.51,9.97c-5.37,0.9-10.74-1.18-16.12-1.99
		c-15.57-2.33-31.44,6.11-46.87,2.95c-9.48-1.94-18.65-8.2-28.03-5.82c-5.12,1.3-9.91,5.15-15.09,4.08
		c-3.04-0.62-5.71-2.91-8.81-2.78c-4.32,0.18-7.5,4.98-11.82,4.84c-4.07-0.13-6.91-4.6-10.96-5.06c-1.84-0.21-3.65,0.45-5.39,1.11
		c-8.37,3.14-14.55,10.82-22.89,14.04c-0.13,0.05-0.27,0.12-0.4,0.18c-0.3,0.16-0.65,0.21-0.98,0.12
		c-9.38-2.34-19.57-1.32-28.29,2.87c-4.49,2.16-8.62,5.13-13.38,6.6c-5.27,1.63-11.07,1.33-16.16,3.47
		c-9,3.79-13.45,14.07-21.52,19.59c-1.63,1.11-3.45,2.07-5.21,3.07l-1.28,3.04l-6.6,16.64l1.05,0.04c-0.48,4.81-0.97,8.45-0.7,6.13
		c-0.11,0.93-0.3,1.85-0.55,2.75l-1.77-0.55l-0.57,9.29c-0.04,0.39-0.07,0.78-0.07,1.17l-0.01,0.12l0.01,0.01
		c-0.01,0.39,0.01,0.78,0.04,1.17c0.35,3.56,2.54,6.67,4.99,9.26c7.95,8.37,19.06,12.82,29.68,17.33
		c14.49,6.15,29.33,13.3,38.88,25.81c3.75,4.9,6.6,10.54,11.05,14.81c4.46,4.27,11.3,6.94,16.85,4.24c3.34-1.62,5.57-4.82,8.03-7.61
		c9.24-10.43,23.86-15.83,37.66-13.91c6.32,0.88,12.65,3.18,18.92,1.99c4.45-0.85,8.38-3.39,12.67-4.81
		c4.29-1.43,9.67-1.44,12.66,1.96c1.38,1.57,2.06,3.66,3.5,5.17c3.17,3.33,8.69,2.65,12.89,0.79c4.2-1.86,8.18-4.68,12.77-4.95
		c5.01-0.29,9.76,2.56,14.78,2.53c7.33-0.05,13.3-6.1,20.48-7.56c12.62-2.56,26.58,9.26,37.63,2.63c4.88-2.94,8.15-9.15,13.84-9.48
		c3.55-0.21,6.88,2.09,10.43,1.97c4.54-0.15,8.01-4.1,12.33-5.51c10.62-3.47,19.7,8.83,30.62,11.21
		c9.81,2.15,19.42-4.06,26.92-10.75c7.5-6.69,14.85-14.51,24.67-16.66c3.68-0.8,7.76-0.85,10.69-3.2c5.19-4.18,3.72-12.95,8.2-17.88
		c4.36-4.78,13.16-4.59,15.91-10.45c2.16-4.57-0.72-10.69,2.32-14.73c1.21-1.61,3.17-2.56,4.25-4.26
		C1168.28,721.85,1168.54,720.94,1168.58,720.01z"/>
	<g>
		<path class="st3" d="M810.78,668.73c-0.3,0.16-0.65,0.21-0.98,0.12c-9.38-2.34-19.57-1.32-28.29,2.87
			c-4.49,2.16-8.62,5.13-13.38,6.6c-5.27,1.63-11.07,1.33-16.16,3.47c-9,3.79-13.45,14.07-21.52,19.59
			c-4.37,2.98-10.02,4.79-12.45,9.48c-3.02,5.83,0.49,12.91-0.28,19.43c-0.56,4.76-3.41,9.21-2.93,13.97
			c0.35,3.56,2.54,6.67,4.99,9.26c7.95,8.37,19.06,12.82,29.68,17.33c14.49,6.15,29.33,13.3,38.88,25.81
			c3.75,4.9,6.6,10.54,11.05,14.81c4.46,4.27,11.3,6.94,16.85,4.24c3.34-1.62,5.57-4.82,8.03-7.61
			c9.24-10.43,23.86-15.83,37.66-13.91c6.32,0.88,12.65,3.18,18.92,1.99c4.45-0.85,8.38-3.39,12.67-4.81s9.67-1.44,12.66,1.96
			c1.38,1.57,2.06,3.66,3.5,5.17c3.17,3.33,8.69,2.65,12.89,0.79c4.2-1.86,8.18-4.68,12.77-4.95c5.01-0.29,9.76,2.56,14.78,2.53
			c7.33-0.05,13.3-6.1,20.48-7.56c12.62-2.56,26.58,9.26,37.63,2.62c4.88-2.94,8.15-9.15,13.84-9.48c3.55-0.21,6.88,2.09,10.43,1.97
			c4.54-0.15,8.01-4.1,12.33-5.51c10.62-3.47,19.7,8.83,30.62,11.21c9.81,2.15,19.42-4.06,26.92-10.75
			c7.49-6.69,14.85-14.51,24.67-16.66c3.68-0.8,7.76-0.85,10.69-3.2c5.19-4.18,3.72-12.95,8.2-17.88
			c4.36-4.78,13.16-4.59,15.91-10.45c2.16-4.57-0.72-10.69,2.32-14.73c1.21-1.61,3.17-2.56,4.25-4.26
			c2.57-4.05-1.17-9.03-4.46-12.52c-2.23-2.37-4.35-5.78-4.4-8.77c-0.04-2.02-1.55-3.73-3.53-4.16c-8.39-1.8-15.56-9.41-15.72-18.22
			c-0.02-1.14-0.23-2.28-0.67-3.33c-2.33-5.69-7.75-3.28-12.21-3.91c-8.08-1.16-11.57-12-19.45-14.09
			c-7.7-2.05-14.94,5.23-22.91,5.43c-6.65,0.17-12.36-4.56-18.77-6.33c-17.47-4.84-36.31,12.66-53.01,5.62
			c-3.58-1.51-6.77-4.09-10.61-4.73c-9.18-1.5-16.34,8.43-25.51,9.97c-5.37,0.9-10.74-1.18-16.12-1.99
			c-15.57-2.33-31.44,6.11-46.87,2.95c-9.48-1.94-18.65-8.2-28.03-5.82c-5.12,1.3-9.91,5.15-15.09,4.08
			c-3.04-0.62-5.71-2.91-8.81-2.78c-4.32,0.18-7.5,4.98-11.82,4.84c-4.07-0.13-6.91-4.6-10.96-5.06c-1.84-0.21-3.65,0.45-5.39,1.11
			c-8.37,3.14-14.55,10.82-22.89,14.04C811.05,668.59,810.92,668.66,810.78,668.73L810.78,668.73z"/>
	</g>
	<g>
		<g>
			<path class="st4" d="M910.59,603.51c1.14-0.7,2.35-1.23,3.61-1.57c2.92-0.79,5.87-1.49,8.86-1.69c3.29-0.23,6.6,0.15,9.88-0.23
				c5.19-0.6,10.3-3.09,15.44-2.33c4.98,0.73,9.14,4.44,12.27,8.66c3.14,4.22,5.53,9.06,8.68,13.26c1.55,2.05,3.28,3.96,4.51,6.24
				c1.24,2.29,1.96,5.08,1.27,7.67c-0.69,2.57-2.64,4.51-4.51,6.27c-3.56,3.34-7.25,6.61-11.48,8.79c-4.08,2.1-8.53,3.12-12.97,3.94
				c-5.84,1.08-11.76,1.85-17.66,1.54c-4.27-0.23-8.49-1.02-12.7-1.8c-2.87-0.54-5.75-1.08-8.63-1.62
				c-3.47-0.65-7.07-1.36-9.87-3.64c-3.4-2.78-5.02-7.37-7.21-11.34l0.02-0.58c-1.17-1.14-1.39-3.12-0.96-4.79s1.42-3.12,2.4-4.51
				c4.42-6.29,9.13-12.34,14.1-18.13c1.3-1.52,2.81-2.83,4.47-3.86L910.59,603.51z"/>
		</g>
		<g>
			
				<linearGradient id="SVGID_2_" gradientUnits="userSpaceOnUse" x1="940.7516" y1="-188.9405" x2="940.7516" y2="-291.7017" gradientTransform="matrix(1 -3.933449e-03 3.933449e-03 1 -6.7487 922.905)">
				<stop  offset="0" style="stop-color:#C6E27C"/>
				<stop  offset="1" style="stop-color:#63A72C"/>
			</linearGradient>
			<path class="st5" d="M1054.95,724.99c-11.69-9.68-21.81-21.38-31.88-33.03c-17.55-20.3-35.09-40.62-52.01-61.53
				c-1.28,1.11-2.92,1.74-4.53,1.51c-2.82-0.4-4.91-2.86-7.14-4.74c-2.24-1.88-5.52-3.23-7.84-1.36c-1.06,0.86-1.72,2.27-2.9,2.91
				c-2.63,1.44-5.2-1.74-7.89-2.86c-3.89-1.61-8.74,1.97-9.2,6.52c-0.18,1.8,0.15,3.79-0.82,5.28c-1.3,1.99-4.21,1.72-5.9,0.21
				c-1.69-1.51-2.53-3.83-3.58-5.92c-1.05-2.09-2.58-4.18-4.75-4.55c-4.2,1.03-7.04,5.72-11.22,6.85c-3.09,0.83-6.35-0.48-8.76-2.64
				c-0.47-0.42-0.91-0.88-1.33-1.35c-20.08,26.4-37.63,55.39-61.65,77.5c-7.72,7.11-16.02,13.44-23.7,20.6
				c16.4,4.62,33.42,6.85,50.47,6.58c25.6-0.4,51.34-6.35,76.67-2.98c6.97,0.93,13.97,2.56,20.98,1.56
				c5.48-0.78,10.69-3.12,16.07-4.56c27.11-7.2,55.81,9.32,82.6,0.74L1054.95,724.99z"/>
		</g>
		<g>
			<path class="st6" d="M947.62,601.89c-1.2-0.4-2.5-0.3-3.75-0.12c-1.26,0.18-2.56,0.46-3.73,0.99c-1.89,0.86-3.87,1.43-5.9,1.52
				c-5.87,0.26-11.91-0.89-17.33,1.6c-0.97,0.45-1.99,1.08-1.98,2.54c0.01,0.79,0.33,1.52,0.82,2.09c2,2.33,5.51,2.81,8.09,1.23
				c1.45-0.89,2.73-2.39,4.38-2.45c1.38-0.05,2.56,0.94,3.9,1.3c2.56,0.69,5.12-1.02,7.64-2.02c2.38-0.94,4.94-1.28,7.45-1.19
				c1.03,0.04,2.2,0.1,2.81-1.06c0.17-0.32,0.25-0.69,0.25-1.05C950.28,603.59,949.02,602.35,947.62,601.89z"/>
		</g>
	</g>
	<g>
		<path class="st7" d="M800.2,644.95c0,0-0.66,52.39,30.69,83.41c0,0-6.5,8.65-17.22,2.42C813.66,730.77,792.52,692.96,800.2,644.95
			z"/>
		<path class="st8" d="M800.4,646.19c0,0,3.16-29.59,40.82-7.3C841.23,638.89,809.59,634.36,800.4,646.19z"/>
		<path class="st8" d="M799.09,646.11c0,0,26.02-14.43,29.45,29.2C828.54,675.31,814.06,646.82,799.09,646.11z"/>
		<circle class="st9" cx="804.32" cy="649.05" r="5.3"/>
		<path class="st4" d="M799.84,645.28c0,0,32.21-17.94,50.53,22.17C850.37,667.44,821.16,643.36,799.84,645.28z"/>
		<path class="st10" d="M801.35,645.32c0.32,0.56,0.5,1.22,0.48,1.92c-0.07,1.99-1.74,3.53-3.73,3.45
			c-1.99-0.07-3.53-1.74-3.45-3.73c0.01-0.38,0.09-0.74,0.21-1.08C797.05,645.26,799.24,645.02,801.35,645.32z"/>
		<path class="st8" d="M799.38,643.7c0.79,0.52,1.39,0.98,1.75,1.29c0.27,0.23,0.43,0.37,0.43,0.37c-0.07-0.01-0.13-0.01-0.21-0.02
			c-2.11-0.29-4.29-0.05-6.5,0.57c-13.24,3.75-27,21.37-27,21.37C777.62,633.28,793.6,639.9,799.38,643.7z"/>
	</g>
	<g>
		<g>
			<path class="st11" d="M1042.6,719.78c-0.43-1.09,0.06-2.65-1.33-3.09c-0.18-0.05-0.37-0.08-0.55-0.09
				c-2.28-0.07-4.68-0.13-6.75,0.83c-1.97,0.91-3.56,3.01-3.17,5.15c0.23,1.28,1.17,2.41,2.38,2.86c0.93,0.35,2.03,0.34,2.8,0.98
				c0.51,0.43,0.78,1.08,1.19,1.61c0.73,0.94,1.97,1.46,3.15,1.31c1.18-0.14,2.27-0.93,2.76-2.02c0.51-1.11,0.4-2.4,0.58-3.61
				c0.19-1.24,0.54-2.84-0.55-3.46l0,0C1042.88,720.18,1042.69,720.01,1042.6,719.78z"/>
		</g>
		<path class="st12" d="M1039.85,723.86c-0.25-0.35-0.79,0.04-0.54,0.39S1040.1,724.22,1039.85,723.86z"/>
		<path class="st12" d="M1039.77,725.81c0.04-0.04,0.06-0.1,0.07-0.15c0-0.03,0-0.05,0.01-0.09c-0.01-0.06-0.02-0.12-0.06-0.16
			l-0.08-0.11c-0.02-0.04-0.06-0.07-0.1-0.09s-0.07-0.04-0.12-0.05c-0.04-0.01-0.09-0.01-0.13,0.01c-0.04,0.01-0.09,0.02-0.12,0.05
			c-0.02,0.02-0.04,0.04-0.07,0.06c-0.04,0.04-0.06,0.1-0.07,0.15c0,0.03,0,0.05-0.01,0.09c0.01,0.06,0.02,0.12,0.06,0.16l0.08,0.11
			c0.02,0.04,0.06,0.07,0.1,0.09c0.04,0.02,0.07,0.04,0.12,0.05s0.09,0.01,0.13-0.01c0.04-0.01,0.09-0.02,0.12-0.05
			C1039.73,725.86,1039.75,725.84,1039.77,725.81z"/>
		<path class="st12" d="M1040.95,720.23c-0.15-0.21-0.48,0.02-0.32,0.23C1040.78,720.68,1041.1,720.45,1040.95,720.23z"/>
		<path class="st12" d="M1040.5,721.96c0.02-0.02,0.04-0.06,0.04-0.1c0-0.01,0-0.04,0-0.05c-0.01-0.04-0.01-0.07-0.04-0.1
			l-0.08-0.11c-0.01-0.02-0.04-0.04-0.06-0.05c-0.02-0.01-0.04-0.02-0.07-0.03c-0.02-0.01-0.05-0.01-0.07,0.01
			c-0.02,0.01-0.05,0.01-0.07,0.03c-0.01,0.01-0.02,0.02-0.04,0.04c-0.02,0.02-0.04,0.06-0.04,0.1v0.05
			c0.01,0.04,0.01,0.07,0.04,0.1l0.08,0.11c0.01,0.02,0.04,0.04,0.06,0.05c0.02,0.01,0.04,0.02,0.07,0.03s0.05,0.01,0.07-0.01
			c0.02-0.01,0.05-0.01,0.07-0.03C1040.48,721.99,1040.48,721.98,1040.5,721.96z"/>
		<path class="st12" d="M1035.88,723.68c-0.15-0.21-0.48,0.02-0.32,0.23C1035.7,724.12,1036.03,723.89,1035.88,723.68z"/>
		<path class="st12" d="M1033.53,723.18l-0.24-0.34c-0.03-0.04-0.08-0.07-0.13-0.08c-0.05-0.01-0.11,0.01-0.15,0.04
			c-0.09,0.07-0.11,0.19-0.04,0.28l0.24,0.33c0.03,0.04,0.08,0.07,0.13,0.08c0.05,0.01,0.11-0.01,0.15-0.04
			C1033.56,723.4,1033.59,723.28,1033.53,723.18z"/>
		<path class="st12" d="M1034.58,724.24c-0.01-0.02-0.01-0.04-0.01-0.07c0-0.01,0-0.02,0-0.03c0-0.01,0-0.01,0-0.02
			c0,0.01,0,0.02,0,0.03c-0.01-0.04,0.01-0.1,0.02-0.13c0-0.01,0.01-0.02,0.01-0.03c0.01-0.02,0.01-0.04,0.02-0.05
			c0.01-0.04,0.03-0.07,0.05-0.1c0.03-0.04,0.07-0.09,0.1-0.12c0.01-0.01,0.02-0.01,0.03-0.02c0.09-0.07,0.12-0.19,0.04-0.28
			c-0.07-0.09-0.19-0.12-0.28-0.04c-0.27,0.21-0.43,0.56-0.38,0.91c0.01,0.1,0.11,0.19,0.22,0.18
			C1034.51,724.44,1034.6,724.35,1034.58,724.24z"/>
		<path class="st12" d="M1033.7,720.11c0.01-0.02,0.02-0.04,0.03-0.07s0.01-0.05-0.01-0.07c-0.01-0.02-0.01-0.05-0.03-0.07
			c-0.01-0.01-0.02-0.02-0.04-0.04c-0.02-0.02-0.06-0.04-0.1-0.04h-0.05c-0.04,0.01-0.07,0.01-0.1,0.04l-0.11,0.08
			c-0.02,0.01-0.04,0.04-0.05,0.06c-0.01,0.02-0.02,0.04-0.03,0.07c-0.01,0.02-0.01,0.05,0.01,0.07c0.01,0.02,0.01,0.05,0.03,0.07
			c0.01,0.01,0.02,0.02,0.04,0.04c0.02,0.02,0.06,0.04,0.1,0.04c0.01,0,0.04,0,0.05,0c0.04-0.01,0.07-0.01,0.1-0.04l0.11-0.08
			C1033.67,720.16,1033.68,720.14,1033.7,720.11z"/>
		<path class="st12" d="M1038.05,726.48c-0.15-0.21-0.48,0.02-0.32,0.23C1037.87,726.93,1038.2,726.7,1038.05,726.48z"/>
		<path class="st12" d="M1042.33,721.59c-0.04-0.05-0.12-0.07-0.18-0.03l-0.34,0.24c-0.05,0.04-0.07,0.13-0.03,0.18
			s0.12,0.07,0.18,0.03l0.33-0.24C1042.36,721.74,1042.38,721.65,1042.33,721.59z"/>
		<path class="st12" d="M1041.43,723.76c0.09-0.12,0.17-0.23,0.26-0.34c0.04-0.05,0.04-0.15-0.02-0.19
			c-0.05-0.04-0.15-0.04-0.19,0.02c-0.09,0.12-0.17,0.23-0.26,0.34c-0.04,0.05-0.04,0.15,0.02,0.19
			C1041.29,723.82,1041.38,723.82,1041.43,723.76z"/>
		<path class="st12" d="M1042.44,724.85c-0.02-0.13-0.15-0.26-0.29-0.24l-0.9,0.14c-0.14,0.02-0.26,0.14-0.24,0.29
			c0.02,0.13,0.15,0.26,0.29,0.24l0.9-0.14C1042.33,725.12,1042.46,725,1042.44,724.85z"/>
		<path class="st12" d="M1041.8,726.48c-0.2-0.28-0.63,0.03-0.43,0.31C1041.57,727.07,1042,726.76,1041.8,726.48z"/>
	</g>
	<g>
		<g>
			<path class="st13" d="M848.31,745.28c1.22,0.01,2.57-0.12,3.76,0.18c1.06,0.26,2.24,1.19,1.74,2.3c-0.18,0.38-0.9,1.07-1.37,0.68
				c-0.52-0.41,0.16-1.22,0.56-1.45c1.03-0.61,2.22,0.02,3.03,0.64c1.16,0.88,2.11,2,2.84,3.2c0.15,0.25,0.59,0.07,0.44-0.18
				c-0.82-1.38-1.94-2.69-3.33-3.62c-1.09-0.73-2.66-1.11-3.69-0.05c-0.41,0.42-0.66,1.06-0.37,1.58c0.3,0.54,1.02,0.51,1.52,0.23
				c1.26-0.69,1.19-2.18,0.21-3.03c-1.35-1.18-3.58-0.91-5.29-0.91C848.05,744.84,848,745.28,848.31,745.28L848.31,745.28z"/>
		</g>
		<g>
			<polygon class="st14" points="858.21,769.46 858.73,773.5 859.96,774.01 861.16,773.15 861.02,768.15 859.77,766.8 			"/>
			<g>
				<path class="st14" d="M921.97,750.08c-0.71-1.59-1.94-1.46-3.06-1.68c-2.36-0.46-3.99-2.36-5.91-3.69
					c-3.51-2.43-8.11-2.98-12.54-3.36c-0.19-0.01-0.4-0.04-0.59-0.05c-0.37-0.02-0.75-0.03-1.13-0.02l0,0
					c-2.45,0.07-4.9-0.19-7.27-0.77c-7.31-1.77-15.04-1.97-24.06,1.38c-0.56,0.21-1.11,0.45-1.63,0.71
					c-2.74,1.36-10.48,5.64-10.35,10.41l0,0c0.07,2.5,1.1,4.77,2.76,6.54c-0.51,4.14-0.36,8.4,0.45,12.49
					c0.18,0.92,0.65,2.04,1.44,1.96c0.54-0.05,0.9-0.67,1-1.28c0.1-0.61,0-1.24,0.01-1.85c0.01-1.25,0.45-2.39,0.97-3.5
					c1,1.63,2.22,3.14,3.63,4.5c1.29,1.23,3.08,2.42,4.87,1.94c-0.94-1.9-3.53-3.08-3.62-5.16c-0.07-1.67,1.53-2.95,2.42-4.42
					c0.21-0.33,0.37-0.69,0.51-1.05l20.3-0.55c0.03,2.4,0.28,4.81,0.74,7.15c0.18,0.92,0.65,2.04,1.44,1.96
					c0.54-0.05,0.9-0.67,1-1.28c0.1-0.61,0-1.24,0.01-1.85c0.02-1.47,0.62-2.78,1.26-4.08c1.11,2.05,2.54,3.96,4.27,5.62
					c1.29,1.23,3.08,2.42,4.87,1.94c-0.94-1.9-3.53-3.08-3.62-5.16c-0.07-1.67,1.53-2.95,2.42-4.42c0.15-0.24,0.27-0.5,0.38-0.76
					c0.72-0.24,1.4-0.54,2.05-0.9c3.24-0.94,6.19-2.67,9.41-3.73c2.3-0.76,4.85-1.22,6.58-2.8
					C922.21,753.2,922.62,751.53,921.97,750.08z"/>
			</g>
			<g>
				<path class="st13" d="M914.87,741.87c-0.65,0.23-1.33,0.44-2.02,0.44c-0.37,0-0.71-0.05-1.06-0.11
					c-0.35-0.05-0.7-0.12-1.05-0.17c-0.86-0.14-1.75-0.28-2.66-0.21c-0.9,0.07-1.83,0.4-2.33,0.99c-0.67,0.8-0.3,1.91,0.65,2.44
					c0.95,0.53,2.32,0.55,3.48,0.21c0.36-0.1,0.71-0.24,1.03-0.4c0.65-0.33,1.21-0.76,1.74-1.2c0.78-0.63,1.54-1.28,2.39-1.86
					L914.87,741.87z"/>
			</g>
			<path class="st13" d="M922.05,753.7l-0.19,0.02c-0.37,0.05-0.7-0.18-0.76-0.51l-0.69-4.04c-0.05-0.33,0.19-0.65,0.56-0.7
				l0.19-0.02c0.37-0.05,0.7,0.18,0.76,0.51l0.69,4.04C922.67,753.32,922.41,753.64,922.05,753.7z"/>
			
				<ellipse transform="matrix(0.9996 -0.0274 0.0274 0.9996 -20.1711 25.2801)" class="st13" cx="912.35" cy="748.65" rx="0.61" ry="0.55"/>
			<g>
				<path class="st13" d="M858.66,773.46c0.01,0.4,0.05,0.8,0.15,1.19c0.04,0.15,0.24,0.18,0.33,0.05c0.18-0.26,0.41-0.5,0.67-0.7
					c0.03-0.02,0.07-0.05,0.1-0.06c0.07-0.01,0.14,0.04,0.19,0.09l0.58,0.55c0.1,0.1,0.29,0.04,0.31-0.1l0.15-1.33
					c-0.83-0.02-1.72-0.24-2.46,0.12L858.66,773.46z"/>
			</g>
			<path class="st14" d="M865.22,771.41c0,0,2.38,2.67,3.61,3.2l1.18-1.7l-4.97-3.2L865.22,771.41z"/>
			<path class="st14" d="M896.96,768.01"/>
			<g>
				<path class="st13" d="M868.53,774.52c0.29,0.27,0.6,0.51,0.94,0.72c0.12,0.07,0.29-0.02,0.26-0.15
					c-0.05-0.29-0.07-0.57-0.04-0.86c0.01-0.04,0.01-0.07,0.03-0.1c0.04-0.05,0.12-0.05,0.19-0.05l0.78,0.03
					c0.15,0.01,0.23-0.15,0.14-0.25l-0.84-0.98c-0.58,0.47-1.34,0.84-1.58,1.51L868.53,774.52z"/>
			</g>
			<polygon class="st14" points="890.6,767.94 891.02,771.5 893.4,771.44 893.36,767.82 891.8,766.47 			"/>
			<path class="st14" d="M897.46,768.61c0,0,3.05,4.01,4.58,4.24l-0.35-1.66l-4.4-4.6L897.46,768.61z"/>
			<g>
				<path class="st13" d="M901.32,772.64c0.31,0.29,0.65,0.55,1.01,0.77c0.13,0.09,0.31-0.02,0.28-0.16
					c-0.06-0.3-0.08-0.62-0.05-0.93c0.01-0.04,0.01-0.07,0.04-0.11c0.04-0.05,0.13-0.06,0.21-0.05l0.85,0.04
					c0.15,0.01,0.25-0.15,0.15-0.26l-0.9-1.06c-0.62,0.51-1.44,0.91-1.71,1.63L901.32,772.64z"/>
			</g>
			<g>
				<path class="st13" d="M890.95,771.46c0.01,0.4,0.05,0.8,0.15,1.19c0.04,0.15,0.24,0.18,0.33,0.05c0.18-0.26,0.41-0.5,0.67-0.71
					c0.03-0.02,0.07-0.05,0.1-0.06c0.07-0.01,0.14,0.04,0.19,0.09l0.58,0.55c0.1,0.1,0.29,0.04,0.31-0.1l0.15-1.33
					c-0.83-0.02-1.72-0.24-2.46,0.12L890.95,771.46z"/>
			</g>
		</g>
		<path class="st14" d="M856.55,749.66c0,0-6.05,7.72,2.98,14.95l14.15-14.2L856.55,749.66z"/>
	</g>
	<g>
		<path class="st7" d="M1058.63,625.87c0,0-6.46,64.23-49.14,97.85c0,0,6.76,11.5,20.75,5.35
			C1030.24,729.07,1061.37,685.71,1058.63,625.87z"/>
		<path class="st8" d="M1058.21,627.37c0,0,0.23-36.66-48.97-14.59C1009.24,612.77,1048.6,611.6,1058.21,627.37z"/>
		<path class="st8" d="M1059.83,627.44c0,0-29.86-21.27-40.1,31.67C1019.73,659.11,1041.4,626.24,1059.83,627.44z"/>
		<circle class="st9" cx="1053.01" cy="630.32" r="6.54"/>
		<path class="st4" d="M1059.02,626.32c0,0-36.95-26.43-64.94,20.13C994.09,646.46,1033.19,621.02,1059.02,626.32z"/>
		<path class="st10" d="M1057.17,626.16c-0.48,0.65-0.78,1.43-0.85,2.29c-0.18,2.44,1.65,4.56,4.09,4.74
			c2.44,0.18,4.56-1.65,4.74-4.09c0.04-0.46-0.01-0.92-0.1-1.35C1062.44,626.69,1059.79,626.1,1057.17,626.16z"/>
		<path class="st8" d="M1059.81,624.44c-1.04,0.52-1.83,1.01-2.33,1.33c-0.37,0.24-0.57,0.39-0.57,0.39c0.09-0.01,0.17,0,0.26-0.01
			c2.62-0.07,5.27,0.53,7.88,1.6c15.69,6.41,30.09,29.91,30.09,29.91C1087.89,614.72,1067.41,620.6,1059.81,624.44z"/>
	</g>
	<g>
		<g>
			<path class="st15" d="M1036.27,662.65c-1.28,0.32-1.88,2.24-1.02,3.28c-1.18-0.46-2.65-0.86-3.57,0.04
				c-1.14,1.11-0.35,3.11,0.66,4.32c1.44,1.73,3.28,3.11,5.31,3.99l0.01,0.02c1.66-2.38,3.42-4.68,5.27-6.91l-4.88-4.73
				C1037.46,662.64,1036.85,662.5,1036.27,662.65z"/>
		</g>
		<g>
			<path class="st15" d="M1038.7,669.39c1.07-2.45,2.73-4.66,4.82-6.41c1.47-1.22,3.88-2.16,5.23-0.79c1.09,1.11,0.6,2.89,0.05,4.31
				c1.25-1.04,3.57-0.31,3.95,1.24c0.27,1.11-0.32,2.33,0.14,3.39c0.72-0.89,2.38-0.46,2.93,0.55c0.55,1,0.26,2.24-0.23,3.26
				c0.88-0.41,1.85-0.83,2.8-0.59c1.9,0.48,2.1,2.96,1.88,4.82c2.25-0.39,4.4,2.2,3.51,4.21c1.06-0.09,1.85,1.13,1.67,2.13
				c-0.18,1-0.97,1.79-1.77,2.47c-0.8,0.68-1.66,1.36-2.03,2.31c-6.66-7.87-14.4-14.92-22.95-20.88L1038.7,669.39z"/>
		</g>
		<path class="st16" d="M1115.95,737.45l-3.3-13.1l-2.1-15.45l0.14-1.57c0.78-8.75-5.73-16.54-14.47-17.32l-32.34-2.9
			c-0.45-0.04-0.9-0.03-1.34,0.02l-12.17-13.34l-7.69-9.92c-0.06-2.7-0.79-4.74-1.86-4.83c-1.3-0.12-2.61,2.65-2.96,6.22
			l-13.83,14.82c-0.6,0.65-0.71,1.6-0.27,2.36l1.6,2.8c0.53,0.93,1.69,1.28,2.64,0.79l14.93-7.53l12.94,18.19l-0.23,0.43
			l-2.91,38.75l6.17,0.55l5.15-24.42l1.51,0.13l0.67,22.96l5.01,0.45l2.37-22.69l19.4,1.74l-1.85,24.71l6.17,0.55l4.92-23.3
			l8.86,22.19L1115.95,737.45z"/>
		<circle class="st15" cx="1034.73" cy="671.77" r="0.84"/>
		<polygon class="st15" points="1052.91,733.52 1052.51,738.38 1058.47,738.06 1059.31,734.46 		"/>
		<polygon class="st15" points="1091.22,738.32 1090.92,741.82 1097.09,742.37 1097.32,739.85 		"/>
		<polygon class="st15" points="1066.2,733.59 1066.48,737.09 1071.52,737.54 1071.39,734.05 		"/>
		<polygon class="st15" points="1110.41,737.01 1112.39,742.05 1117.1,739.93 1115.6,736.03 		"/>
		<g>
			<path class="st15" d="M1123.82,721.93c1.66,1.86,3.87,3.21,6.21,3.12c-4.45-3.42-5.87-10.15-7.03-16.27
				c-1.16-6.11-2.78-12.85-7.4-15.96c-3.99-2.69-9.64-1.55-12.78,2.59c0,0,9.36-1.81,13.47,7.64c0.24,0.55,0.42,1.12,0.57,1.72
				C1117.64,707.76,1120.63,718.77,1123.82,721.93z"/>
		</g>
	</g>
	<g>
		<g>
			<path class="st12" d="M1034.02,724.02c-1.64-0.55-2.96-2.57-4.78-1.41c-0.23,0.15-0.44,0.34-0.62,0.54
				c-2.24,2.52-4.57,5.2-5.43,8.47c-0.82,3.1,0.07,6.89,2.86,8.47c1.67,0.95,3.84,0.95,5.51-0.01c1.28-0.73,2.31-1.99,3.76-2.26
				c0.97-0.18,1.96,0.13,2.95,0.16c1.76,0.05,3.51-0.87,4.47-2.34c0.96-1.47,1.08-3.45,0.32-5.04c-0.79-1.63-2.35-2.72-3.56-4.07
				c-1.23-1.38-2.72-3.29-4.46-2.64l0,0C1034.73,724.08,1034.36,724.13,1034.02,724.02z"/>
		</g>
		<path class="st17" d="M1036.06,731c-0.63-0.04-0.71,0.94-0.07,0.98C1036.62,732.02,1036.69,731.04,1036.06,731z"/>
		<path class="st17" d="M1038.21,732.93c-0.01-0.09-0.05-0.16-0.11-0.23c-0.03-0.03-0.07-0.05-0.1-0.09
			c-0.07-0.05-0.15-0.08-0.24-0.09l-0.2-0.01c-0.07-0.01-0.13,0-0.19,0.03c-0.07,0.01-0.12,0.04-0.16,0.09
			c-0.05,0.04-0.09,0.09-0.12,0.15c-0.04,0.05-0.05,0.12-0.05,0.18c0.01,0.04,0.01,0.09,0.01,0.13c0.01,0.09,0.05,0.16,0.11,0.23
			c0.03,0.03,0.07,0.05,0.1,0.09c0.07,0.05,0.15,0.08,0.24,0.09l0.2,0.01c0.07,0.01,0.13,0,0.19-0.03c0.07-0.01,0.12-0.04,0.16-0.09
			c0.05-0.04,0.09-0.09,0.12-0.15c0.04-0.05,0.05-0.12,0.05-0.18C1038.22,733.02,1038.21,732.97,1038.21,732.93z"/>
		<path class="st17" d="M1032.97,726.32c-0.38-0.03-0.43,0.56-0.04,0.59C1033.31,726.93,1033.36,726.35,1032.97,726.32z"/>
		<path class="st17" d="M1034.51,728.47c-0.01-0.05-0.03-0.1-0.07-0.13c-0.02-0.01-0.04-0.04-0.05-0.05
			c-0.04-0.03-0.1-0.04-0.15-0.05l-0.2-0.01c-0.04-0.01-0.08,0-0.12,0.01c-0.04,0.01-0.07,0.02-0.1,0.05
			c-0.03,0.02-0.05,0.05-0.07,0.09c-0.02,0.04-0.03,0.07-0.04,0.11c0,0.02,0.01,0.05,0.01,0.08c0.01,0.05,0.03,0.1,0.07,0.13
			l0.05,0.05c0.04,0.03,0.1,0.04,0.15,0.05l0.2,0.01c0.04,0.01,0.08,0,0.12-0.01c0.04-0.01,0.07-0.02,0.1-0.05
			c0.03-0.02,0.05-0.05,0.07-0.09c0.02-0.04,0.03-0.07,0.04-0.11C1034.52,728.52,1034.52,728.49,1034.51,728.47z"/>
		<path class="st17" d="M1032.11,735.34c-0.38-0.03-0.43,0.56-0.04,0.59C1032.44,735.96,1032.49,735.36,1032.11,735.34z"/>
		<path class="st17" d="M1029.31,737.56l-0.6-0.04c-0.07-0.01-0.16,0.02-0.21,0.07s-0.1,0.13-0.1,0.21
			c-0.01,0.16,0.11,0.3,0.27,0.32l0.6,0.04c0.07,0.01,0.16-0.02,0.21-0.07s0.1-0.13,0.1-0.21
			C1029.59,737.71,1029.48,737.57,1029.31,737.56z"/>
		<path class="st17" d="M1031.51,737.34c-0.03-0.02-0.05-0.04-0.09-0.06c-0.01-0.01-0.02-0.02-0.04-0.03
			c-0.01-0.01-0.01-0.01-0.02-0.02c0.01,0.01,0.02,0.02,0.04,0.03c-0.05-0.04-0.1-0.1-0.13-0.15c-0.01-0.01-0.02-0.02-0.02-0.04
			c-0.01-0.02-0.03-0.05-0.04-0.07c-0.02-0.05-0.04-0.1-0.07-0.15c-0.02-0.07-0.04-0.15-0.04-0.23c0-0.02,0-0.04,0-0.05
			c0.01-0.15-0.11-0.32-0.27-0.32c-0.15-0.01-0.32,0.11-0.32,0.27c-0.01,0.51,0.24,1.02,0.67,1.3c0.13,0.09,0.32,0.07,0.41-0.07
			C1031.67,737.62,1031.65,737.43,1031.51,737.34z"/>
		<path class="st17" d="M1025.98,734.46c-0.01-0.04-0.02-0.07-0.05-0.1c-0.02-0.03-0.05-0.05-0.09-0.07
			c-0.04-0.02-0.07-0.03-0.11-0.04c-0.02,0-0.05,0.01-0.08,0.01c-0.05,0.01-0.1,0.03-0.13,0.07l-0.05,0.05
			c-0.03,0.04-0.04,0.1-0.05,0.15l-0.01,0.2c-0.01,0.04,0,0.08,0.01,0.12c0.01,0.04,0.02,0.07,0.05,0.1
			c0.02,0.03,0.05,0.05,0.09,0.07c0.04,0.02,0.07,0.03,0.11,0.04c0.02,0,0.05-0.01,0.08-0.01c0.05-0.01,0.1-0.03,0.13-0.07
			c0.01-0.02,0.04-0.04,0.05-0.05c0.03-0.04,0.04-0.1,0.05-0.15l0.01-0.2C1026,734.54,1025.99,734.5,1025.98,734.46z"/>
		<path class="st17" d="M1037.34,735.53c-0.38-0.03-0.43,0.56-0.04,0.59C1037.68,736.14,1037.72,735.55,1037.34,735.53z"/>
		<path class="st17" d="M1035.82,726.03c-0.1-0.01-0.21,0.07-0.21,0.18l-0.04,0.6c-0.01,0.1,0.07,0.21,0.18,0.21
			c0.1,0.01,0.21-0.07,0.21-0.18l0.04-0.6C1036.01,726.13,1035.93,726.03,1035.82,726.03z"/>
		<path class="st17" d="M1037.43,729.1c-0.05-0.21-0.1-0.41-0.15-0.62c-0.02-0.1-0.12-0.18-0.23-0.15c-0.1,0.02-0.18,0.12-0.15,0.23
			c0.05,0.21,0.1,0.41,0.15,0.62c0.02,0.1,0.12,0.18,0.23,0.15C1037.38,729.32,1037.46,729.21,1037.43,729.1z"/>
		<path class="st17" d="M1039.63,728.99c-0.17-0.11-0.43-0.09-0.55,0.1l-0.69,1.16c-0.1,0.18-0.09,0.43,0.1,0.55
			c0.17,0.11,0.43,0.09,0.55-0.1l0.69-1.16C1039.84,729.35,1039.82,729.1,1039.63,728.99z"/>
		<path class="st17" d="M1040.89,731.25c-0.51-0.04-0.56,0.75-0.06,0.79C1041.33,732.07,1041.39,731.29,1040.89,731.25z"/>
	</g>
	<g>
		<g>
			<path class="st11" d="M1011.14,720.71c-0.85-0.81-1.08-2.42-2.53-2.24c-0.18,0.02-0.37,0.08-0.54,0.15
				c-2.1,0.9-4.29,1.87-5.76,3.63c-1.39,1.66-1.94,4.24-0.68,6.01c0.75,1.06,2.08,1.68,3.37,1.58c0.99-0.09,1.99-0.56,2.95-0.3
				c0.65,0.17,1.17,0.65,1.76,0.95c1.06,0.54,2.4,0.48,3.41-0.15c1-0.63,1.66-1.81,1.64-3c-0.01-1.22-0.66-2.34-1.01-3.51
				c-0.36-1.19-0.72-2.8-1.97-2.9l0,0C1011.56,720.95,1011.32,720.88,1011.14,720.71z"/>
		</g>
		<path class="st12" d="M1010.39,725.57c-0.37-0.21-0.7,0.37-0.33,0.58C1010.44,726.36,1010.77,725.78,1010.39,725.57z"/>
		<path class="st12" d="M1011.15,727.37c0.01-0.05,0.01-0.12-0.01-0.17c-0.01-0.02-0.02-0.05-0.04-0.08
			c-0.03-0.05-0.07-0.1-0.12-0.12l-0.12-0.07c-0.04-0.02-0.08-0.04-0.12-0.04c-0.04-0.01-0.09-0.01-0.13,0.01
			c-0.04,0.01-0.08,0.03-0.12,0.06c-0.04,0.02-0.07,0.05-0.09,0.1c-0.01,0.03-0.02,0.05-0.04,0.09c-0.01,0.05-0.01,0.12,0.01,0.17
			c0.01,0.02,0.02,0.05,0.04,0.08c0.03,0.05,0.07,0.1,0.12,0.12l0.12,0.07c0.04,0.02,0.08,0.04,0.12,0.04
			c0.04,0.01,0.09,0.01,0.13-0.01c0.04-0.01,0.08-0.03,0.12-0.06c0.04-0.02,0.07-0.05,0.09-0.1
			C1011.13,727.43,1011.14,727.4,1011.15,727.37z"/>
		<path class="st12" d="M1009.84,721.82c-0.23-0.12-0.42,0.23-0.19,0.35C1009.87,722.3,1010.07,721.95,1009.84,721.82z"/>
		<path class="st12" d="M1010.17,723.58c0.01-0.04,0.01-0.07,0-0.1c-0.01-0.01-0.01-0.03-0.02-0.04c-0.02-0.03-0.04-0.05-0.07-0.07
			l-0.12-0.07c-0.02-0.01-0.05-0.02-0.07-0.02c-0.02-0.01-0.05-0.01-0.07,0.01c-0.02,0.01-0.05,0.02-0.07,0.04
			c-0.02,0.01-0.04,0.04-0.05,0.06c-0.01,0.01-0.01,0.04-0.02,0.05c-0.01,0.04-0.01,0.07,0,0.1l0.02,0.04
			c0.02,0.03,0.04,0.05,0.07,0.07l0.12,0.07c0.02,0.01,0.05,0.02,0.07,0.02c0.02,0.01,0.05,0.01,0.07-0.01
			c0.02-0.01,0.05-0.02,0.07-0.04c0.02-0.01,0.04-0.04,0.05-0.06C1010.15,723.62,1010.16,723.6,1010.17,723.58z"/>
		<path class="st12" d="M1006.72,727.1c-0.23-0.12-0.42,0.23-0.19,0.35C1006.75,727.57,1006.95,727.23,1006.72,727.1z"/>
		<path class="st12" d="M1004.38,727.65l-0.35-0.2c-0.04-0.02-0.1-0.03-0.15-0.02c-0.04,0.01-0.1,0.05-0.12,0.1
			c-0.05,0.1-0.02,0.22,0.07,0.27l0.35,0.2c0.04,0.02,0.1,0.03,0.15,0.02c0.04-0.01,0.1-0.05,0.12-0.1
			C1004.5,727.84,1004.48,727.71,1004.38,727.65z"/>
		<path class="st12" d="M1005.78,728.15c-0.01-0.02-0.02-0.04-0.04-0.06c-0.01-0.01-0.01-0.02-0.01-0.02c0-0.01-0.01-0.01-0.01-0.02
			c0.01,0.01,0.01,0.02,0.01,0.03c-0.02-0.04-0.03-0.09-0.04-0.13c0-0.01-0.01-0.02-0.01-0.03c0-0.02-0.01-0.04-0.01-0.06
			c0-0.04,0-0.07,0.01-0.11c0.01-0.05,0.02-0.1,0.04-0.15c0.01-0.01,0.01-0.02,0.01-0.04c0.04-0.1,0.02-0.23-0.07-0.27
			c-0.1-0.04-0.23-0.02-0.27,0.07c-0.15,0.31-0.15,0.69,0.04,0.99c0.05,0.09,0.18,0.13,0.27,0.07
			C1005.8,728.37,1005.84,728.25,1005.78,728.15z"/>
		<path class="st12" d="M1003.22,724.8c0.01-0.02,0.01-0.05-0.01-0.07c-0.01-0.02-0.02-0.05-0.04-0.07
			c-0.01-0.02-0.04-0.04-0.06-0.05c-0.01-0.01-0.04-0.01-0.05-0.02c-0.04-0.01-0.07-0.01-0.1,0l-0.04,0.02
			c-0.03,0.02-0.05,0.04-0.07,0.07l-0.07,0.12c-0.01,0.02-0.02,0.05-0.02,0.07s-0.01,0.05,0.01,0.07c0.01,0.02,0.02,0.05,0.04,0.07
			c0.01,0.02,0.04,0.04,0.06,0.05c0.01,0.01,0.04,0.01,0.05,0.02c0.04,0.01,0.07,0.01,0.1,0c0.01-0.01,0.03-0.01,0.04-0.02
			c0.03-0.02,0.05-0.04,0.07-0.07l0.07-0.12C1003.22,724.86,1003.22,724.83,1003.22,724.8z"/>
		<path class="st12" d="M1009.87,728.72c-0.23-0.12-0.42,0.23-0.19,0.35C1009.9,729.19,1010.1,728.84,1009.87,728.72z"/>
		<path class="st12" d="M1011.67,722.46c-0.07-0.04-0.15-0.01-0.18,0.05l-0.2,0.35c-0.04,0.06-0.01,0.15,0.05,0.18
			c0.07,0.04,0.15,0.01,0.18-0.05l0.2-0.35C1011.76,722.58,1011.74,722.49,1011.67,722.46z"/>
		<path class="st12" d="M1011.77,724.81c0.03-0.14,0.05-0.28,0.09-0.43c0.01-0.07-0.02-0.15-0.1-0.16c-0.07-0.01-0.15,0.02-0.16,0.1
			c-0.03,0.14-0.05,0.28-0.09,0.43c-0.01,0.07,0.02,0.15,0.1,0.16C1011.68,724.92,1011.76,724.88,1011.77,724.81z"/>
		<path class="st12" d="M1013.16,725.37c-0.07-0.12-0.24-0.18-0.37-0.1l-0.76,0.51c-0.12,0.08-0.18,0.24-0.1,0.37
			c0.07,0.12,0.24,0.18,0.37,0.1l0.76-0.51C1013.17,725.66,1013.23,725.49,1013.16,725.37z"/>
		<path class="st12" d="M1013.28,727.11c-0.3-0.17-0.56,0.29-0.26,0.46C1013.31,727.74,1013.58,727.28,1013.28,727.11z"/>
	</g>
	<g>
		
			<rect x="817.3" y="698.36" transform="matrix(0.0268 -0.9996 0.9996 0.0268 102.3472 1526.3661)" class="st18" width="35.59" height="24.53"/>
		<path class="st18" d="M826.71,723.8l-4.54-0.12c-1.35-0.04-2.43-1.17-2.39-2.53l0.81-30.28c0.04-1.35,1.17-2.43,2.53-2.39
			l4.54,0.12c1.35,0.04,2.43,1.17,2.39,2.53l-0.81,30.28C829.21,722.76,828.07,723.85,826.71,723.8z"/>
		<path class="st18" d="M847.9,724.38l-4.54-0.12c-1.35-0.04-2.43-1.17-2.39-2.53l0.81-30.28c0.04-1.35,1.17-2.43,2.53-2.39
			l4.54,0.12c1.35,0.04,2.43,1.17,2.39,2.53l-0.81,30.28C850.39,723.33,849.26,724.41,847.9,724.38z"/>
		<path class="st18" d="M855.02,732.71c0.09-3.42-2.63-6.29-6.05-6.38l-28.34-0.76c-3.42-0.09-6.29,2.63-6.38,6.05l-0.1,3.94
			l40.78,1.09L855.02,732.71z"/>
		<path class="st14" d="M824.65,725.68c0,0,11.08,3.62,19.81,0.53L824.65,725.68z"/>
		<path class="st14" d="M828.21,691.43c0,0,6.69,8.42,14.88,0.4l-9.88-7.27L828.21,691.43z"/>
		<g>
			<circle class="st18" cx="836.34" cy="665.27" r="10.07"/>
			<path class="st18" d="M849.34,672.36l-26.35-0.7c-1.28-0.04-2.29-1.11-2.27-2.38l0.12-4.29c0.04-1.28,1.11-2.29,2.38-2.27
				l26.35,0.7c1.28,0.04,2.29,1.11,2.27,2.38l-0.12,4.29C851.69,671.38,850.62,672.4,849.34,672.36z"/>
			<path class="st18" d="M835.58,693.91L835.58,693.91c-7.7-0.21-12.88-6.99-11.69-13.94l2.36-13.85c0.72-4.21,5.3-7.19,10.26-7.05
				l0,0c4.96,0.13,9.37,3.35,9.87,7.59l1.61,13.96C848.81,687.62,843.28,694.11,835.58,693.91z"/>
			<path class="st18" d="M823.65,684.08L823.65,684.08c-1.39-0.12-2.16-2.47-1.77-4.84l0.79-4.71c0.24-1.43,1.15-2.41,2.05-2.33l0,0
				c0.9,0.08,1.61,1.21,1.6,2.66l-0.07,4.77C826.22,682.03,825.05,684.21,823.65,684.08z"/>
			<path class="st18" d="M848.06,684.74L848.06,684.74c1.4-0.05,2.29-2.36,2.02-4.74l-0.54-4.74c-0.16-1.44-1.02-2.47-1.92-2.44l0,0
				c-0.9,0.04-1.68,1.12-1.74,2.57l-0.19,4.77C845.61,682.55,846.66,684.79,848.06,684.74z"/>
		</g>
		<path class="st14" d="M829.43,671.66c0,0,7.91,1.79,14.1,0.38L829.43,671.66z"/>
		<path class="st14" d="M829.32,662.89c0,0,7.99-1.36,14.1,0.38L829.32,662.89z"/>
		<circle class="st14" cx="831.01" cy="677.75" r="0.62"/>
		<circle class="st14" cx="841.17" cy="678.02" r="0.62"/>
		<path class="st14" d="M838.07,680.44c-0.15,1.74-1.13,3.19-2.34,3.12l0,0c-1.14-0.07-1.91-1.43-1.97-3.04
			c-0.18,1.89,0.65,3.67,1.96,3.74l0,0c1.37,0.07,2.43-1.77,2.36-3.79L838.07,680.44z"/>
		<path class="st14" d="M834.01,681.91c-0.12,0.95-0.98,1.74-2.07,1.69l0,0c-1.02-0.04-1.74-0.81-1.8-1.69
			c-0.13,1.04,0.62,2.02,1.8,2.07l0,0c1.23,0.05,2.16-0.95,2.08-2.06L834.01,681.91L834.01,681.91z"/>
		<path class="st14" d="M837.85,681.66c0.07,0.96,0.89,1.8,1.98,1.8l0,0c1.03,0.01,1.77-0.71,1.89-1.59
			c0.08,1.04-0.72,1.99-1.9,1.97l0,0c-1.23-0.01-2.11-1.07-1.97-2.17L837.85,681.66z"/>
		<path class="st14" d="M835.63,689.02c-2.03-0.05-3.67-1.33-3.84-2.94c-0.02,0.11-0.03,0.23-0.03,0.33
			c-0.04,1.75,1.68,3.22,3.86,3.27c2.18,0.06,3.98-1.31,4.02-3.06c0.01-0.12,0-0.23-0.01-0.34
			C839.36,687.88,837.66,689.08,835.63,689.02z"/>
		
			<ellipse transform="matrix(0.0268 -0.9996 0.9996 0.0268 161.3462 1497.6077)" class="st14" cx="849.82" cy="665.94" rx="1.22" ry="0.7"/>
		
			<ellipse transform="matrix(0.0268 -0.9996 0.9996 0.0268 157.634 1497.3676)" class="st14" cx="847.84" cy="667.73" rx="0.62" ry="0.7"/>
		<circle class="st14" cx="849.96" cy="670.54" r="0.44"/>
		
			<ellipse transform="matrix(0.0268 -0.9996 0.9996 0.0268 133.2511 1523.1919)" class="st14" cx="848.91" cy="693.16" rx="0.62" ry="0.7"/>
		<circle class="st14" cx="848.04" cy="696.43" r="0.44"/>
		<circle class="st14" cx="847.56" cy="695.01" r="0.26"/>
		<circle class="st14" cx="846.43" cy="691.3" r="0.44"/>
		
			<ellipse transform="matrix(0.9999 -0.0167 0.0167 0.9999 -12.0692 14.2018)" class="st14" cx="844.35" cy="729.78" rx="0.62" ry="0.7"/>
		<circle class="st14" cx="840.97" cy="729.03" r="0.44"/>
		<circle class="st14" cx="842.36" cy="728.48" r="0.26"/>
		<circle class="st14" cx="846.02" cy="727.2" r="0.44"/>
		<circle class="st14" cx="841.7" cy="658.4" r="0.44"/>
		
			<ellipse transform="matrix(0.3947 -0.9188 0.9188 0.3947 -105.4514 1160.9542)" class="st14" cx="828.41" cy="660.51" rx="1.14" ry="0.35"/>
		<circle class="st14" cx="842.98" cy="659.58" r="0.35"/>
	</g>
	<g>
		<g>
			<path class="st12" d="M815.47,727.64c-1.28-0.37-2.34-1.89-3.71-0.95c-0.18,0.12-0.32,0.27-0.46,0.43
				c-1.65,1.99-3.36,4.1-3.94,6.64c-0.54,2.4,0.24,5.29,2.42,6.43c1.3,0.68,2.97,0.62,4.23-0.15c0.96-0.6,1.72-1.59,2.83-1.83
				c0.74-0.16,1.51,0.05,2.27,0.04c1.35-0.01,2.67-0.76,3.36-1.92c0.69-1.16,0.73-2.68,0.1-3.88c-0.65-1.23-1.88-2.02-2.84-3.03
				c-0.98-1.03-2.18-2.45-3.49-1.91l0,0C816.01,727.67,815.73,727.71,815.47,727.64z"/>
		</g>
		<path class="st17" d="M817.23,732.94c-0.49-0.02-0.52,0.74-0.03,0.76C817.68,733.71,817.71,732.96,817.23,732.94z"/>
		<path class="st17" d="M818.93,734.36c-0.01-0.07-0.04-0.12-0.09-0.17c-0.02-0.02-0.05-0.04-0.07-0.06
			c-0.06-0.04-0.12-0.05-0.19-0.06l-0.15-0.01c-0.05-0.01-0.1,0.01-0.15,0.02c-0.05,0.01-0.09,0.04-0.12,0.07
			c-0.04,0.04-0.07,0.07-0.09,0.12c-0.02,0.04-0.04,0.1-0.04,0.15c0.01,0.04,0.01,0.07,0.01,0.1c0.01,0.07,0.04,0.12,0.09,0.17
			c0.02,0.02,0.05,0.04,0.07,0.06c0.06,0.04,0.12,0.05,0.19,0.06l0.15,0.01c0.05,0.01,0.1-0.01,0.15-0.02
			c0.05-0.01,0.09-0.04,0.12-0.07c0.04-0.04,0.07-0.07,0.09-0.12c0.02-0.04,0.04-0.1,0.04-0.15
			C818.94,734.43,818.93,734.4,818.93,734.36z"/>
		<path class="st17" d="M814.73,729.43c-0.29-0.01-0.31,0.44-0.02,0.45C815,729.9,815.02,729.45,814.73,729.43z"/>
		<path class="st17" d="M815.97,731.05c-0.01-0.04-0.03-0.07-0.05-0.1c-0.01-0.01-0.03-0.02-0.04-0.04
			c-0.04-0.02-0.07-0.04-0.12-0.04l-0.15-0.01c-0.03,0-0.06,0.01-0.09,0.01c-0.03,0.01-0.05,0.02-0.07,0.04
			c-0.02,0.02-0.04,0.04-0.05,0.07c-0.01,0.02-0.02,0.05-0.02,0.09c0,0.02,0.01,0.04,0.01,0.06c0.01,0.04,0.03,0.07,0.05,0.1
			l0.04,0.04c0.04,0.02,0.07,0.04,0.12,0.04l0.15,0.01c0.03,0,0.06-0.01,0.09-0.01c0.03-0.01,0.05-0.02,0.07-0.04
			c0.02-0.02,0.04-0.04,0.05-0.07c0.01-0.02,0.02-0.05,0.02-0.09C815.97,731.08,815.97,731.06,815.97,731.05z"/>
		<path class="st17" d="M814.3,736.38c-0.29-0.01-0.31,0.44-0.02,0.45C814.58,736.84,814.6,736.39,814.3,736.38z"/>
		<path class="st17" d="M812.23,738.16l-0.46-0.02c-0.06,0-0.12,0.02-0.16,0.06c-0.04,0.04-0.07,0.1-0.07,0.16
			c0,0.12,0.09,0.23,0.22,0.23l0.46,0.02c0.06,0,0.12-0.02,0.16-0.06c0.04-0.04,0.07-0.1,0.07-0.16
			C812.45,738.27,812.35,738.16,812.23,738.16z"/>
		<path class="st17" d="M813.91,737.93c-0.02-0.01-0.04-0.03-0.07-0.04c-0.01-0.01-0.02-0.01-0.02-0.02
			c-0.01-0.01-0.01-0.01-0.02-0.01c0.01,0.01,0.02,0.01,0.02,0.02c-0.04-0.02-0.07-0.07-0.1-0.11c-0.01-0.01-0.01-0.02-0.02-0.02
			c-0.01-0.02-0.02-0.04-0.04-0.05c-0.02-0.04-0.04-0.07-0.05-0.12c-0.02-0.05-0.04-0.12-0.04-0.18c0-0.01,0-0.03,0-0.04
			c0-0.12-0.09-0.23-0.22-0.23c-0.12,0-0.23,0.09-0.23,0.22c0,0.4,0.21,0.78,0.55,0.97c0.1,0.06,0.25,0.04,0.32-0.07
			C814.03,738.14,814.02,737.99,813.91,737.93z"/>
		<path class="st17" d="M809.58,735.88c-0.01-0.03-0.02-0.05-0.04-0.07c-0.02-0.02-0.04-0.04-0.07-0.05
			c-0.02-0.01-0.05-0.02-0.09-0.02c-0.02,0-0.04,0.01-0.06,0.01c-0.04,0.01-0.07,0.03-0.1,0.05l-0.04,0.04
			c-0.02,0.04-0.04,0.07-0.04,0.12l-0.01,0.15c0,0.03,0.01,0.06,0.01,0.09c0.01,0.03,0.02,0.05,0.04,0.07
			c0.02,0.02,0.04,0.04,0.07,0.05c0.02,0.01,0.05,0.02,0.09,0.02c0.02,0,0.04-0.01,0.06-0.01c0.04-0.01,0.07-0.03,0.1-0.05
			c0.01-0.01,0.02-0.03,0.04-0.04c0.02-0.04,0.04-0.07,0.04-0.12l0.01-0.15C809.6,735.93,809.6,735.91,809.58,735.88z"/>
		<path class="st17" d="M818.33,736.38c-0.29-0.01-0.31,0.44-0.02,0.45C818.6,736.84,818.62,736.39,818.33,736.38z"/>
		<path class="st17" d="M816.9,729.13c-0.08,0-0.15,0.06-0.16,0.15l-0.02,0.46c-0.01,0.08,0.07,0.16,0.15,0.16s0.15-0.06,0.16-0.15
			l0.02-0.46C817.06,729.21,816.99,729.13,816.9,729.13z"/>
		<path class="st17" d="M818.23,731.45c-0.04-0.15-0.09-0.32-0.13-0.47c-0.02-0.07-0.1-0.13-0.18-0.12
			c-0.07,0.02-0.13,0.1-0.12,0.18c0.04,0.15,0.09,0.32,0.13,0.47c0.02,0.07,0.1,0.13,0.18,0.12
			C818.19,731.61,818.25,731.53,818.23,731.45z"/>
		<path class="st17" d="M819.91,731.3c-0.13-0.08-0.34-0.05-0.42,0.1l-0.5,0.91c-0.07,0.14-0.05,0.33,0.1,0.42
			c0.13,0.08,0.34,0.05,0.42-0.1l0.5-0.91C820.08,731.58,820.06,731.39,819.91,731.3z"/>
		<path class="st17" d="M820.94,733c-0.39-0.01-0.41,0.59-0.02,0.6C821.3,733.63,821.33,733.02,820.94,733z"/>
	</g>
</g>
</svg>
