<?xml version="1.0" encoding="utf-8"?>
<!-- Generator: Adobe Illustrator 24.1.1, SVG Export Plug-In . SVG Version: 6.00 Build 0)  -->
<svg version="1.1" id="Layer_1" xmlns="http://www.w3.org/2000/svg" xmlns:xlink="http://www.w3.org/1999/xlink" x="0px" y="0px"
	 viewBox="0 0 1920 1000" style="enable-background:new 0 0 1920 1000;" xml:space="preserve">
<style type="text/css">
	.st0{fill:url(#SVGID_1_);}
	.st1{fill:#995914;}
	.st2{fill:#63A72C;}
	.st3{fill:#C6E27C;}
	.st4{fill:#008500;}
	.st5{fill:url(#SVGID_2_);}
	.st6{fill:#A2DBF7;}
	.st7{fill:#935E36;}
	.st8{fill:#00511F;}
	.st9{fill:#EFF268;}
	.st10{fill:#AFAF4B;}
	.st11{fill:#696963;}
	.st12{fill:#4B4B4A;}
	.st13{fill:#191819;}
	.st14{fill:#514F51;}
	.st15{fill:#433E2B;}
	.st16{fill:#635C40;}
	.st17{fill:#666661;}
	.st18{fill:#8B8CA4;}
</style>
<radialGradient id="SVGID_1_" cx="952.7659" cy="886.8038" r="609.63" gradientTransform="matrix(1.1982 0 0 0.3477 -181.6189 475.8442)" gradientUnits="userSpaceOnUse">
	<stop  offset="0" style="stop-color:#00B5F1"/>
	<stop  offset="1" style="stop-color:#FFFFFF"/>
</radialGradient>
<rect y="568.39" class="st0" width="1920" height="431.61"/>
<g>
	<g>
		<polygon class="st1" points="1308.86,622.51 1308.79,629.81 1313.47,628.33 		"/>
		<polygon class="st2" points="1359.31,602.96 1365.03,610.75 1362.13,613.49 1357.33,604.85 		"/>
		<g>
			<path class="st1" d="M1347.38,598.28c-5.66-3.62-12.67,1.66-17.26,6.56c-6.11,6.51-12.21,13.01-18.32,19.53
				c-1.59,1.69-3.29,3.72-2.96,6.02c0.2,1.39,1.11,2.55,2,3.64c2.5,3.08,5,6.16,7.5,9.24c1.12,1.38,2.29,2.81,3.87,3.65
				c1.95,1.03,4.26,1.05,6.46,1.03c8.49-0.05,16.97-0.1,25.46-0.16c1.4-0.01,2.86-0.03,4.09-0.7c1.21-0.65,2.03-1.85,2.73-3.04
				c4.88-8.43,5.45-19.2,1.5-28.1c-3.95-8.9-5.66-15.68-15.17-17.71"/>
		</g>
		<path class="st2" d="M1308.85,624.24l0.16,0.32c-0.07-0.22-0.13-0.45-0.17-0.69L1308.85,624.24z"/>
		<path class="st2" d="M1309.94,626.32L1309.94,626.32c0-0.01-0.01-0.01-0.01-0.02L1309.94,626.32z"/>
		<g>
			<path class="st2" d="M1309.94,626.31l-0.92-1.75C1309.22,625.18,1309.54,625.75,1309.94,626.31z"/>
		</g>
		<g>
			<path class="st2" d="M1347.38,591.73c-0.01-0.01-0.02-0.01-0.02-0.01c-0.03-0.01-0.07-0.02-0.11-0.02L1347.38,591.73z"/>
		</g>
		<g>
			<path class="st2" d="M1362.42,609.4c-3.94-8.86-5.65-15.62-15.07-17.69c0.01,0.01,0.02,0.01,0.02,0.01l-0.12-0.04
				c0.03,0.01,0.07,0.02,0.11,0.02c-5.65-3.59-12.65,1.68-17.24,6.57c-6.11,6.51-12.21,13.01-18.32,19.53
				c-0.06,0.06-0.11,0.11-0.16,0.17l-2.82-3.72l-0.02,0.11l0.04,8.31l0.01,1.18c0.03,0.24,0.1,0.46,0.17,0.69l0.92,1.75l0.01,0.01
				c0.28,0.4,0.59,0.78,0.89,1.15c2.5,3.08,5,6.16,7.5,9.24c1.12,1.38,2.29,2.81,3.87,3.65c1.95,1.03,4.26,1.05,6.46,1.03
				c8.49-0.05,16.97-0.11,25.46-0.16c1.4-0.01,2.86-0.03,4.09-0.7c1.21-0.65,2.03-1.85,2.73-3.04
				C1365.8,629.07,1366.38,618.3,1362.42,609.4z"/>
		</g>
		<g>
			<path class="st3" d="M1347.73,583.54c-8.28-1.48-13.02,1.22-17.61,6.11c-6.11,6.51-12.21,13.01-18.32,19.53
				c-1.59,1.69-3.29,3.72-2.96,6.02c0.2,1.39,1.11,2.55,2,3.64c2.5,3.08,5,6.16,7.5,9.24c1.12,1.38,2.29,2.81,3.87,3.65
				c1.95,1.03,4.26,1.05,6.46,1.03c8.49-0.05,16.97-0.11,25.46-0.16c1.4-0.01,2.86-0.03,4.09-0.7c1.21-0.65,2.03-1.85,2.73-3.04
				c4.88-8.43,5.45-19.2,1.5-28.1C1358.47,591.87,1357.25,585.57,1347.73,583.54"/>
		</g>
	</g>
	<path class="st1" d="M1301.21,723.83L1301.21,723.83L1301.21,723.83c0-0.04,0.01-0.07,0.01-0.11l1.08-17.97l-8.2,3.72
		c-0.53-0.61-1.07-1.19-1.6-1.75c-3.66-3.89-7.14-9.49-7.23-14.4c-0.06-3.32-2.55-6.12-5.8-6.83
		c-13.77-2.95-25.55-15.45-25.81-29.91c-0.03-1.87-0.38-3.74-1.1-5.47c-3.82-9.35-12.73-5.38-20.04-6.42
		c-13.26-1.9-18.99-19.7-31.94-23.14c-12.64-3.36-24.53,8.59-37.61,8.92c-10.92,0.28-20.29-7.48-30.82-10.39
		c-28.69-7.94-59.61,20.78-87.03,9.22c-5.88-2.48-11.11-6.72-17.41-7.76c-15.07-2.47-26.83,13.84-41.89,16.37
		c-8.81,1.48-17.63-1.94-26.47-3.27c-25.57-3.82-51.63,10.04-76.96,4.85c-15.56-3.19-30.63-13.46-46.03-9.55
		c-8.41,2.14-16.27,8.45-24.77,6.7c-4.99-1.02-9.37-4.78-14.46-4.57c-7.09,0.29-12.32,8.18-19.41,7.95
		c-6.69-0.21-11.34-7.55-17.99-8.3c-3.02-0.34-6,0.74-8.85,1.82c-13.75,5.16-23.89,17.77-37.58,23.06c-0.22,0.09-0.44,0.19-0.65,0.3
		c-0.49,0.27-1.07,0.34-1.61,0.2c-15.4-3.85-32.14-2.17-46.45,4.71c-7.37,3.54-14.15,8.42-21.97,10.84
		c-8.66,2.68-18.18,2.18-26.53,5.7c-14.78,6.23-22.08,23.11-35.33,32.16c-2.68,1.83-5.67,3.4-8.56,5.04l3.46-3.41l-16.38,35.72
		l1.72,0.07c-0.79,7.89-1.59,13.87-1.15,10.06c-0.18,1.52-0.5,3.03-0.9,4.52l-1.89-4.78l-1.97,19.14c-0.07,0.64-0.11,1.28-0.12,1.92
		l-0.02,0.2l0.01,0.01c-0.01,0.64,0.01,1.28,0.07,1.92c0.58,5.84,4.17,10.95,8.2,15.2c13.05,13.75,31.29,21.05,48.74,28.45
		c23.79,10.09,48.15,21.84,63.84,42.37c6.15,8.05,10.83,17.31,18.14,24.32c7.32,7.01,18.55,11.39,27.67,6.97
		c5.49-2.66,9.14-7.92,13.18-12.49c15.17-17.13,39.17-25.99,61.83-22.84c10.38,1.44,20.77,5.22,31.06,3.26
		c7.3-1.39,13.76-5.56,20.81-7.9c7.05-2.34,15.87-2.37,20.78,3.22c2.26,2.57,3.38,6.01,5.74,8.49c5.21,5.47,14.27,4.35,21.17,1.29
		c6.9-3.05,13.43-7.69,20.96-8.12c8.23-0.47,16.02,4.2,24.26,4.15c12.04-0.08,21.83-10.01,33.63-12.41
		c20.72-4.2,43.65,15.21,61.78,4.31c8.02-4.82,13.38-15.03,22.72-15.57c5.83-0.34,11.29,3.43,17.12,3.23
		c7.46-0.25,13.15-6.73,20.24-9.04c17.44-5.7,32.35,14.49,50.27,18.41c16.11,3.53,31.89-6.67,44.2-17.65s24.38-23.83,40.5-27.35
		c6.04-1.32,12.74-1.39,17.56-5.26c8.52-6.86,6.11-21.27,13.47-29.35c7.16-7.85,21.6-7.53,26.12-17.15
		c3.54-7.51-1.18-17.56,3.81-24.19c1.99-2.64,5.21-4.2,6.98-6.99C1300.72,726.84,1301.15,725.35,1301.21,723.83z"/>
	<path class="st2" d="M1302.47,709.97L1302.47,709.97L1302.47,709.97c0-0.04,0.01-0.07,0.01-0.11l1.08-17.97l-8.2,3.72
		c-0.53-0.61-1.07-1.19-1.6-1.75c-3.66-3.89-7.14-9.49-7.23-14.4c-0.06-3.32-2.55-6.12-5.8-6.83
		c-13.77-2.95-25.55-15.45-25.81-29.91c-0.03-1.87-0.38-3.74-1.1-5.47c-3.82-9.35-12.73-5.38-20.04-6.42
		c-13.26-1.9-18.99-19.7-31.94-23.14c-12.64-3.36-24.53,8.59-37.61,8.92c-10.92,0.28-20.29-7.48-30.82-10.39
		c-28.69-7.94-59.61,20.78-87.03,9.22c-5.88-2.48-11.11-6.72-17.42-7.76c-15.07-2.47-26.83,13.84-41.89,16.37
		c-8.81,1.48-17.63-1.94-26.47-3.27c-25.57-3.82-51.63,10.04-76.96,4.85c-15.56-3.19-30.63-13.46-46.03-9.55
		c-8.41,2.14-16.27,8.45-24.77,6.7c-4.99-1.02-9.37-4.78-14.46-4.57c-7.09,0.29-12.32,8.18-19.41,7.95
		c-6.69-0.21-11.34-7.55-17.99-8.3c-3.02-0.34-6,0.74-8.85,1.82c-13.75,5.16-23.89,17.77-37.58,23.06c-0.22,0.09-0.44,0.19-0.65,0.3
		c-0.49,0.27-1.07,0.34-1.61,0.2c-15.4-3.85-32.14-2.17-46.45,4.71c-7.37,3.54-14.15,8.42-21.97,10.84
		c-8.66,2.68-18.18,2.18-26.53,5.7c-14.78,6.23-22.08,23.11-35.33,32.16c-2.68,1.83-5.67,3.4-8.56,5.04l-2.1,4.99l-10.83,27.32
		l1.72,0.07c-0.79,7.89-1.59,13.87-1.15,10.06c-0.18,1.52-0.5,3.03-0.9,4.52l-2.91-0.9L556.34,763c-0.07,0.64-0.11,1.28-0.12,1.92
		l-0.02,0.2l0.01,0.01c-0.01,0.64,0.01,1.28,0.07,1.92c0.58,5.84,4.17,10.95,8.2,15.2c13.05,13.75,31.29,21.05,48.74,28.45
		c23.79,10.09,48.15,21.84,63.84,42.37c6.15,8.05,10.83,17.31,18.14,24.32c7.32,7.01,18.55,11.39,27.67,6.97
		c5.49-2.66,9.14-7.92,13.18-12.49c15.17-17.13,39.17-25.99,61.83-22.84c10.38,1.44,20.77,5.22,31.06,3.26
		c7.3-1.39,13.76-5.56,20.81-7.9s15.87-2.37,20.78,3.22c2.26,2.57,3.38,6.01,5.74,8.49c5.21,5.47,14.27,4.35,21.17,1.29
		s13.43-7.69,20.96-8.12c8.23-0.47,16.02,4.2,24.26,4.15c12.04-0.08,21.83-10.01,33.63-12.41c20.72-4.2,43.65,15.21,61.78,4.31
		c8.02-4.82,13.38-15.03,22.72-15.57c5.83-0.34,11.29,3.43,17.12,3.23c7.46-0.25,13.15-6.73,20.24-9.04
		c17.44-5.7,32.35,14.49,50.27,18.41c16.11,3.53,31.89-6.67,44.2-17.65s24.38-23.83,40.5-27.35c6.04-1.32,12.74-1.39,17.56-5.26
		c8.52-6.86,6.11-21.27,13.47-29.35c7.16-7.85,21.6-7.53,26.12-17.15c3.54-7.51-1.18-17.56,3.81-24.19c1.99-2.64,5.21-4.2,6.98-6.99
		C1301.98,712.99,1302.41,711.49,1302.47,709.97z"/>
	<g>
		<path class="st3" d="M715,625.77c-0.49,0.27-1.07,0.34-1.61,0.2c-15.4-3.85-32.14-2.17-46.45,4.71
			c-7.37,3.54-14.15,8.42-21.97,10.84c-8.66,2.68-18.18,2.18-26.53,5.7c-14.78,6.23-22.08,23.11-35.33,32.16
			c-7.18,4.89-16.46,7.87-20.45,15.57c-4.96,9.57,0.8,21.2-0.46,31.9c-0.92,7.81-5.6,15.12-4.81,22.94
			c0.58,5.84,4.17,10.95,8.2,15.2c13.05,13.75,31.29,21.05,48.74,28.45c23.79,10.09,48.15,21.84,63.84,42.37
			c6.15,8.05,10.83,17.31,18.14,24.32c7.32,7.01,18.55,11.39,27.67,6.97c5.49-2.66,9.14-7.92,13.18-12.49
			c15.17-17.13,39.17-25.99,61.83-22.84c10.38,1.44,20.77,5.22,31.06,3.26c7.3-1.39,13.76-5.56,20.81-7.9
			c7.05-2.34,15.87-2.37,20.78,3.22c2.26,2.57,3.38,6.01,5.74,8.49c5.21,5.47,14.27,4.35,21.17,1.29s13.43-7.69,20.96-8.12
			c8.23-0.47,16.02,4.2,24.26,4.15c12.04-0.08,21.83-10.01,33.63-12.41c20.72-4.2,43.65,15.21,61.78,4.31
			c8.02-4.82,13.38-15.03,22.72-15.57c5.83-0.34,11.29,3.43,17.12,3.23c7.46-0.25,13.15-6.73,20.24-9.04
			c17.44-5.7,32.35,14.49,50.27,18.41c16.11,3.53,31.89-6.67,44.2-17.65c12.3-10.98,24.38-23.83,40.5-27.35
			c6.04-1.32,12.74-1.39,17.56-5.26c8.52-6.86,6.11-21.27,13.47-29.35c7.16-7.85,21.6-7.53,26.12-17.15
			c3.54-7.51-1.18-17.56,3.81-24.19c1.99-2.64,5.21-4.2,6.98-6.99c4.22-6.65-1.92-14.82-7.32-20.56c-3.66-3.89-7.14-9.49-7.23-14.4
			c-0.06-3.32-2.55-6.12-5.8-6.83c-13.77-2.95-25.55-15.45-25.81-29.91c-0.03-1.87-0.38-3.74-1.1-5.47
			c-3.82-9.35-12.73-5.38-20.04-6.42c-13.26-1.9-18.99-19.7-31.94-23.14c-12.64-3.36-24.53,8.59-37.61,8.92
			c-10.92,0.28-20.29-7.48-30.82-10.39c-28.69-7.94-59.61,20.78-87.03,9.22c-5.88-2.48-11.11-6.72-17.42-7.76
			c-15.07-2.47-26.83,13.84-41.89,16.37c-8.81,1.48-17.63-1.94-26.47-3.27c-25.57-3.82-51.63,10.04-76.96,4.85
			c-15.56-3.19-30.63-13.46-46.03-9.55c-8.41,2.14-16.27,8.45-24.77,6.7c-4.99-1.02-9.37-4.78-14.46-4.57
			c-7.09,0.29-12.32,8.18-19.41,7.95c-6.69-0.21-11.34-7.55-17.99-8.3c-3.02-0.34-6,0.74-8.85,1.82
			c-13.75,5.16-23.89,17.77-37.58,23.06C715.44,625.55,715.22,625.65,715,625.77L715,625.77z"/>
	</g>
	<g>
		<g>
			<path class="st4" d="M878.87,518.68c1.87-1.15,3.86-2.02,5.93-2.58c4.8-1.29,9.63-2.45,14.54-2.78
				c5.41-0.38,10.84,0.25,16.22-0.38c8.52-0.99,16.92-5.07,25.35-3.83c8.18,1.2,15,7.29,20.15,14.22
				c5.15,6.93,9.08,14.87,14.26,21.77c2.54,3.37,5.38,6.5,7.41,10.25c2.04,3.76,3.22,8.34,2.08,12.59
				c-1.14,4.22-4.33,7.41-7.41,10.3c-5.84,5.48-11.9,10.85-18.85,14.44c-6.7,3.45-14.01,5.12-21.29,6.47
				c-9.59,1.78-19.31,3.04-28.99,2.53c-7.01-0.37-13.94-1.67-20.85-2.96c-4.72-0.88-9.44-1.78-14.17-2.66
				c-5.69-1.07-11.61-2.24-16.2-5.98c-5.59-4.56-8.24-12.1-11.84-18.62l0.03-0.95c-1.92-1.87-2.28-5.12-1.57-7.87
				s2.33-5.12,3.94-7.4c7.26-10.33,14.99-20.26,23.15-29.77c2.14-2.5,4.62-4.65,7.34-6.33L878.87,518.68z"/>
		</g>
		<g>
			
				<linearGradient id="SVGID_2_" gradientUnits="userSpaceOnUse" x1="921.8185" y1="289.0893" x2="921.8185" y2="457.815" gradientTransform="matrix(1 -3.933449e-03 -3.933449e-03 -1 -4.5853 1019.5222)">
				<stop  offset="0" style="stop-color:#C6E27C"/>
				<stop  offset="1" style="stop-color:#63A72C"/>
			</linearGradient>
			<path class="st5" d="M1115.9,718.14c-19.19-15.9-35.81-35.11-52.34-54.23c-28.81-33.33-57.62-66.69-85.4-101.03
				c-2.1,1.83-4.79,2.86-7.43,2.48c-4.63-0.66-8.06-4.7-11.73-7.78c-3.67-3.09-9.06-5.3-12.87-2.23c-1.74,1.41-2.83,3.72-4.76,4.77
				c-4.32,2.36-8.53-2.85-12.96-4.7c-6.38-2.65-14.35,3.24-15.1,10.71c-0.29,2.95,0.25,6.23-1.34,8.67
				c-2.13,3.26-6.92,2.83-9.69,0.35s-4.16-6.29-5.88-9.72c-1.72-3.43-4.23-6.86-7.8-7.47c-6.89,1.69-11.56,9.4-18.42,11.25
				c-5.07,1.37-10.43-0.79-14.39-4.34c-0.77-0.69-1.49-1.44-2.18-2.22c-32.97,43.35-61.78,90.95-101.22,127.25
				c-12.68,11.67-26.31,22.06-38.91,33.82c26.93,7.59,54.88,11.25,82.87,10.81c42.03-0.65,84.3-10.42,125.89-4.89
				c11.44,1.52,22.94,4.2,34.45,2.56c8.99-1.28,17.55-5.13,26.38-7.48c44.51-11.83,91.64,15.3,135.63,1.21L1115.9,718.14z"/>
		</g>
		<g>
			<path class="st6" d="M939.68,516.02c-1.97-0.65-4.1-0.49-6.15-0.2c-2.07,0.29-4.2,0.75-6.12,1.63c-3.1,1.41-6.36,2.35-9.69,2.5
				c-9.64,0.42-19.56-1.46-28.46,2.63c-1.6,0.74-3.27,1.78-3.25,4.17c0.01,1.29,0.55,2.5,1.34,3.43c3.28,3.83,9.04,4.62,13.28,2.02
				c2.38-1.46,4.48-3.93,7.19-4.03c2.27-0.08,4.21,1.55,6.4,2.14c4.21,1.14,8.41-1.67,12.54-3.31c3.91-1.55,8.11-2.1,12.24-1.95
				c1.69,0.06,3.61,0.16,4.62-1.74c0.28-0.52,0.41-1.13,0.41-1.73C944.04,518.81,941.98,516.78,939.68,516.02z"/>
		</g>
	</g>
	<g>
		<path class="st7" d="M697.62,586.73c0,0-1.08,86.02,50.39,136.95c0,0-10.67,14.21-28.28,3.97
			C719.73,727.64,685.01,665.55,697.62,586.73z"/>
		<path class="st8" d="M697.95,588.77c0,0,5.19-48.58,67.03-11.98C764.99,576.78,713.04,569.34,697.95,588.77z"/>
		<path class="st8" d="M695.8,588.63c0,0,42.73-23.69,48.35,47.95C744.15,636.58,720.38,589.8,695.8,588.63z"/>
		<circle class="st9" cx="704.39" cy="593.46" r="8.71"/>
		<path class="st4" d="M697.04,587.27c0,0,52.89-29.46,82.96,36.4C780,623.66,732.04,584.12,697.04,587.27z"/>
		<path class="st10" d="M699.51,587.33c0.53,0.92,0.82,2.01,0.78,3.15c-0.12,3.26-2.86,5.79-6.12,5.67
			c-3.26-0.12-5.79-2.86-5.67-6.12c0.02-0.62,0.15-1.21,0.34-1.77C692.46,587.24,696.05,586.85,699.51,587.33z"/>
		<path class="st8" d="M696.27,584.67c1.29,0.85,2.28,1.61,2.88,2.11c0.45,0.38,0.7,0.6,0.7,0.6c-0.11-0.02-0.22-0.02-0.34-0.04
			c-3.46-0.48-7.05-0.09-10.67,0.93c-21.74,6.15-44.33,35.09-44.33,35.09C660.55,567.57,686.78,578.43,696.27,584.67z"/>
	</g>
	<g>
		<g>
			<path class="st11" d="M1095.63,709.6c-0.7-1.79,0.1-4.35-2.19-5.08c-0.29-0.09-0.6-0.13-0.9-0.15
				c-3.74-0.12-7.68-0.22-11.09,1.37c-3.23,1.5-5.84,4.94-5.21,8.45c0.37,2.1,1.92,3.95,3.91,4.7c1.53,0.57,3.34,0.56,4.59,1.61
				c0.84,0.7,1.28,1.78,1.96,2.64c1.2,1.54,3.23,2.39,5.17,2.15c1.94-0.23,3.72-1.53,4.53-3.31c0.83-1.83,0.65-3.94,0.96-5.93
				c0.31-2.03,0.88-4.66-0.9-5.68l0,0C1096.08,710.25,1095.77,709.97,1095.63,709.6z"/>
		</g>
		<path class="st12" d="M1091.11,716.29c-0.41-0.57-1.3,0.06-0.89,0.64C1090.63,717.51,1091.52,716.88,1091.11,716.29z"/>
		<path class="st12" d="M1090.98,719.5c0.06-0.07,0.1-0.16,0.11-0.25c0-0.05,0-0.09,0.01-0.14c-0.01-0.1-0.04-0.19-0.1-0.27
			l-0.13-0.18c-0.04-0.07-0.1-0.11-0.16-0.15c-0.06-0.04-0.12-0.07-0.2-0.08c-0.07-0.02-0.14-0.01-0.21,0.01
			c-0.07,0.01-0.14,0.04-0.2,0.08c-0.03,0.03-0.07,0.07-0.11,0.1c-0.06,0.07-0.1,0.16-0.11,0.25c0,0.05,0,0.09-0.01,0.14
			c0.01,0.1,0.04,0.19,0.1,0.27l0.13,0.18c0.04,0.07,0.1,0.11,0.16,0.15c0.06,0.04,0.12,0.07,0.2,0.08s0.14,0.01,0.21-0.01
			c0.07-0.01,0.14-0.04,0.2-0.08C1090.91,719.58,1090.95,719.54,1090.98,719.5z"/>
		<path class="st12" d="M1092.92,710.34c-0.25-0.34-0.78,0.03-0.53,0.38C1092.63,711.07,1093.17,710.69,1092.92,710.34z"/>
		<path class="st12" d="M1092.18,713.18c0.03-0.04,0.06-0.1,0.07-0.16c0-0.02,0-0.06,0-0.08c-0.01-0.06-0.02-0.11-0.06-0.16
			l-0.13-0.18c-0.02-0.04-0.06-0.07-0.1-0.09c-0.03-0.02-0.07-0.04-0.11-0.05c-0.04-0.01-0.08-0.01-0.12,0.01
			c-0.04,0.01-0.08,0.02-0.12,0.05c-0.02,0.02-0.04,0.04-0.07,0.06c-0.03,0.04-0.06,0.1-0.07,0.16v0.08
			c0.01,0.06,0.02,0.11,0.06,0.16l0.13,0.18c0.02,0.04,0.06,0.07,0.1,0.09c0.03,0.02,0.07,0.04,0.11,0.05
			c0.04,0.01,0.08,0.01,0.12-0.01c0.04-0.01,0.08-0.02,0.12-0.05C1092.14,713.22,1092.15,713.21,1092.18,713.18z"/>
		<path class="st12" d="M1084.59,716c-0.25-0.34-0.78,0.03-0.53,0.38C1084.3,716.72,1084.84,716.34,1084.59,716z"/>
		<path class="st12" d="M1080.73,715.18l-0.39-0.55c-0.05-0.07-0.13-0.12-0.21-0.13c-0.08-0.02-0.18,0.01-0.25,0.06
			c-0.14,0.11-0.18,0.31-0.07,0.46l0.39,0.55c0.05,0.07,0.13,0.12,0.21,0.13c0.08,0.02,0.18-0.01,0.25-0.06
			C1080.79,715.53,1080.83,715.34,1080.73,715.18z"/>
		<path class="st12" d="M1082.46,716.91c-0.01-0.04-0.01-0.07-0.01-0.11c0-0.02,0-0.03,0-0.05c0-0.01,0-0.02,0-0.03
			c0,0.02,0,0.03,0,0.05c-0.01-0.07,0.02-0.16,0.03-0.22c0-0.02,0.01-0.03,0.01-0.05c0.01-0.03,0.02-0.06,0.03-0.09
			c0.02-0.06,0.05-0.11,0.08-0.16c0.05-0.07,0.11-0.14,0.16-0.2c0.02-0.02,0.03-0.02,0.05-0.04c0.14-0.11,0.19-0.31,0.07-0.46
			c-0.11-0.14-0.31-0.19-0.46-0.07c-0.45,0.35-0.7,0.92-0.63,1.5c0.02,0.17,0.18,0.32,0.36,0.29
			C1082.34,717.24,1082.49,717.09,1082.46,716.91z"/>
		<path class="st12" d="M1081.01,710.14c0.02-0.03,0.04-0.07,0.05-0.11c0.01-0.04,0.01-0.08-0.01-0.12
			c-0.01-0.04-0.02-0.08-0.05-0.12c-0.02-0.02-0.04-0.04-0.06-0.07c-0.04-0.03-0.1-0.06-0.16-0.07h-0.08
			c-0.06,0.01-0.11,0.02-0.16,0.06l-0.18,0.13c-0.04,0.02-0.07,0.06-0.09,0.1c-0.02,0.03-0.04,0.07-0.05,0.11
			c-0.01,0.04-0.01,0.08,0.01,0.12c0.01,0.04,0.02,0.08,0.05,0.12c0.02,0.02,0.04,0.04,0.06,0.07c0.04,0.03,0.1,0.06,0.16,0.07
			c0.02,0,0.06,0,0.08,0c0.06-0.01,0.11-0.02,0.16-0.06l0.18-0.13C1080.96,710.21,1080.98,710.18,1081.01,710.14z"/>
		<path class="st12" d="M1088.15,720.6c-0.25-0.34-0.78,0.03-0.53,0.38C1087.86,721.33,1088.4,720.95,1088.15,720.6z"/>
		<path class="st12" d="M1095.19,712.57c-0.07-0.09-0.2-0.12-0.3-0.05l-0.55,0.39c-0.09,0.07-0.12,0.21-0.05,0.3
			c0.07,0.09,0.2,0.12,0.3,0.05l0.55-0.39C1095.23,712.81,1095.26,712.66,1095.19,712.57z"/>
		<path class="st12" d="M1093.7,716.13c0.14-0.19,0.28-0.38,0.43-0.56c0.07-0.09,0.07-0.24-0.03-0.31
			c-0.09-0.07-0.24-0.07-0.31,0.03c-0.14,0.19-0.28,0.38-0.43,0.56c-0.07,0.09-0.07,0.24,0.03,0.31
			C1093.48,716.23,1093.63,716.23,1093.7,716.13z"/>
		<path class="st12" d="M1095.36,717.92c-0.03-0.22-0.24-0.43-0.47-0.39l-1.48,0.23c-0.23,0.03-0.43,0.23-0.39,0.47
			c0.03,0.22,0.24,0.43,0.47,0.4l1.48-0.23C1095.19,718.36,1095.39,718.17,1095.36,717.92z"/>
		<path class="st12" d="M1094.31,720.6c-0.33-0.46-1.04,0.05-0.71,0.51C1093.93,721.56,1094.64,721.06,1094.31,720.6z"/>
	</g>
	<g>
		<g>
			<path class="st13" d="M776.62,751.47c2.01,0.01,4.22-0.2,6.18,0.29c1.74,0.43,3.68,1.96,2.85,3.77
				c-0.29,0.62-1.47,1.75-2.25,1.12c-0.85-0.68,0.26-2,0.92-2.38c1.69-1,3.65,0.03,4.98,1.05c1.9,1.45,3.47,3.28,4.66,5.26
				c0.25,0.41,0.97,0.11,0.73-0.3c-1.35-2.26-3.18-4.41-5.47-5.94c-1.79-1.2-4.37-1.83-6.06-0.09c-0.67,0.69-1.09,1.74-0.6,2.6
				c0.49,0.88,1.67,0.83,2.5,0.38c2.07-1.13,1.96-3.58,0.34-4.98c-2.22-1.94-5.87-1.49-8.68-1.5
				C776.19,750.74,776.1,751.47,776.62,751.47L776.62,751.47z"/>
		</g>
		<g>
			<polygon class="st14" points="792.88,791.16 793.73,797.79 795.75,798.64 797.71,797.22 797.49,789.01 795.43,786.79 			"/>
			<g>
				<path class="st14" d="M897.56,759.35c-1.16-2.61-3.18-2.4-5.03-2.76c-3.88-0.76-6.55-3.87-9.71-6.06
					c-5.77-3.99-13.32-4.89-20.59-5.52c-0.32-0.02-0.65-0.06-0.97-0.08c-0.61-0.04-1.23-0.05-1.86-0.03l0,0
					c-4.03,0.11-8.05-0.32-11.94-1.26c-12-2.91-24.7-3.24-39.5,2.27c-0.92,0.34-1.82,0.74-2.68,1.17c-4.5,2.23-17.21,9.26-17,17.1
					l0,0c0.11,4.1,1.8,7.83,4.53,10.73c-0.83,6.8-0.59,13.79,0.74,20.51c0.29,1.51,1.06,3.35,2.37,3.21c0.88-0.09,1.48-1.1,1.65-2.1
					c0.16-1,0-2.03,0.02-3.04c0.02-2.06,0.74-3.92,1.6-5.74c1.65,2.68,3.64,5.16,5.96,7.39c2.11,2.02,5.05,3.97,8,3.18
					c-1.54-3.12-5.8-5.06-5.95-8.48c-0.12-2.74,2.51-4.85,3.97-7.26c0.34-0.55,0.61-1.13,0.83-1.72l33.33-0.91
					c0.05,3.94,0.46,7.89,1.22,11.74c0.29,1.51,1.06,3.35,2.37,3.21c0.88-0.09,1.48-1.1,1.65-2.1c0.16-1,0-2.03,0.02-3.04
					c0.03-2.42,1.01-4.57,2.07-6.7c1.83,3.37,4.17,6.5,7.01,9.22c2.11,2.02,5.05,3.97,8,3.18c-1.54-3.12-5.8-5.06-5.95-8.48
					c-0.12-2.74,2.51-4.85,3.97-7.26c0.25-0.4,0.45-0.82,0.63-1.24c1.18-0.39,2.3-0.89,3.36-1.48c5.32-1.54,10.16-4.39,15.45-6.12
					c3.77-1.24,7.96-2.01,10.8-4.59C897.96,764.46,898.63,761.73,897.56,759.35z"/>
			</g>
			<g>
				<path class="st13" d="M885.9,745.86c-1.06,0.38-2.18,0.73-3.31,0.73c-0.6,0-1.17-0.09-1.74-0.18c-0.57-0.09-1.15-0.19-1.73-0.28
					c-1.42-0.23-2.88-0.46-4.36-0.34c-1.48,0.12-3.01,0.65-3.83,1.62c-1.1,1.31-0.5,3.13,1.06,4s3.81,0.9,5.72,0.35
					c0.59-0.17,1.16-0.39,1.69-0.66c1.07-0.54,1.98-1.25,2.86-1.97c1.28-1.04,2.53-2.1,3.92-3.06L885.9,745.86z"/>
			</g>
			<path class="st13" d="M897.69,765.28l-0.31,0.04c-0.6,0.09-1.15-0.29-1.25-0.83l-1.13-6.63c-0.09-0.54,0.32-1.06,0.92-1.15
				l0.31-0.04c0.6-0.09,1.15,0.29,1.25,0.83l1.13,6.63C898.71,764.67,898.29,765.19,897.69,765.28z"/>
			
				<ellipse transform="matrix(0.9996 -0.0274 0.0274 0.9996 -20.4118 24.4458)" class="st13" cx="881.79" cy="757.02" rx="1" ry="0.91"/>
			<g>
				<path class="st13" d="M793.61,797.73c0.01,0.66,0.09,1.32,0.24,1.96c0.06,0.24,0.39,0.29,0.54,0.09c0.3-0.43,0.67-0.82,1.1-1.15
					c0.05-0.04,0.11-0.08,0.17-0.1c0.12-0.02,0.23,0.07,0.32,0.15l0.96,0.91c0.17,0.16,0.48,0.07,0.51-0.16l0.24-2.19
					c-1.37-0.03-2.83-0.4-4.04,0.19L793.61,797.73z"/>
			</g>
			<path class="st14" d="M804.38,794.36c0,0,3.9,4.39,5.93,5.25l1.93-2.79l-8.16-5.25L804.38,794.36z"/>
			<path class="st14" d="M856.5,788.79"/>
			<g>
				<path class="st13" d="M809.82,799.48c0.47,0.44,0.98,0.83,1.54,1.18c0.2,0.12,0.47-0.03,0.43-0.25
					c-0.09-0.47-0.11-0.94-0.07-1.41c0.01-0.06,0.02-0.11,0.05-0.16c0.07-0.08,0.2-0.09,0.32-0.08l1.28,0.05
					c0.24,0.01,0.38-0.24,0.23-0.41l-1.38-1.61c-0.95,0.77-2.2,1.38-2.6,2.48L809.82,799.48z"/>
			</g>
			<polygon class="st14" points="846.05,788.67 846.75,794.51 850.65,794.41 850.59,788.47 848.02,786.26 			"/>
			<path class="st14" d="M857.32,789.77c0,0,5.01,6.59,7.52,6.97l-0.57-2.72l-7.22-7.55L857.32,789.77z"/>
			<g>
				<path class="st13" d="M863.66,796.39c0.51,0.47,1.06,0.9,1.66,1.27c0.22,0.14,0.51-0.03,0.46-0.27c-0.1-0.5-0.13-1.01-0.08-1.52
					c0.01-0.07,0.02-0.12,0.06-0.18c0.07-0.09,0.22-0.1,0.34-0.09l1.39,0.06c0.25,0.01,0.41-0.25,0.25-0.43l-1.48-1.74
					c-1.02,0.83-2.37,1.49-2.81,2.67L863.66,796.39z"/>
			</g>
			<g>
				<path class="st13" d="M846.63,794.45c0.01,0.66,0.09,1.32,0.24,1.96c0.06,0.24,0.39,0.29,0.54,0.09c0.3-0.43,0.67-0.82,1.1-1.16
					c0.05-0.04,0.11-0.08,0.17-0.1c0.12-0.02,0.23,0.07,0.32,0.15l0.96,0.91c0.17,0.16,0.48,0.07,0.51-0.16l0.24-2.19
					c-1.37-0.03-2.83-0.4-4.04,0.19L846.63,794.45z"/>
			</g>
		</g>
		<path class="st14" d="M790.14,758.66c0,0-9.94,12.67,4.9,24.54l23.23-23.31L790.14,758.66z"/>
	</g>
	<g>
		<path class="st7" d="M1121.94,555.4c0,0-10.61,105.46-80.68,160.67c0,0,11.1,18.88,34.07,8.78
			C1075.33,724.85,1126.45,653.65,1121.94,555.4z"/>
		<path class="st8" d="M1121.26,557.86c0,0,0.38-60.2-80.4-23.96C1040.85,533.89,1105.48,531.97,1121.26,557.86z"/>
		<path class="st8" d="M1123.91,557.98c0,0-49.03-34.92-65.84,52C1058.07,609.98,1093.66,556,1123.91,557.98z"/>
		<circle class="st9" cx="1112.72" cy="562.7" r="10.74"/>
		<path class="st4" d="M1122.58,556.14c0,0-60.67-43.39-106.62,33.06C1015.97,589.2,1080.17,547.44,1122.58,556.14z"/>
		<path class="st10" d="M1119.55,555.87c-0.78,1.06-1.28,2.34-1.39,3.76c-0.29,4,2.71,7.49,6.71,7.79c4,0.29,7.49-2.71,7.79-6.71
			c0.06-0.76-0.01-1.51-0.17-2.21C1128.2,556.74,1123.85,555.77,1119.55,555.87z"/>
		<path class="st8" d="M1123.88,553.06c-1.7,0.86-3.01,1.66-3.82,2.19c-0.61,0.39-0.93,0.64-0.93,0.64c0.14-0.01,0.28,0,0.42-0.01
			c4.3-0.11,8.65,0.87,12.94,2.62c25.76,10.53,49.41,49.11,49.41,49.11C1169.99,537.09,1136.37,546.74,1123.88,553.06z"/>
	</g>
	<g>
		<g>
			<path class="st15" d="M1085.24,615.79c-2.1,0.52-3.09,3.68-1.68,5.38c-1.93-0.75-4.35-1.41-5.86,0.07
				c-1.87,1.83-0.58,5.11,1.09,7.1c2.37,2.84,5.39,5.1,8.72,6.55l0.02,0.04c2.73-3.91,5.61-7.69,8.65-11.34l-8.02-7.76
				C1087.19,615.78,1086.19,615.55,1085.24,615.79z"/>
		</g>
		<g>
			<path class="st15" d="M1089.23,626.86c1.75-4.03,4.48-7.65,7.91-10.52c2.41-2.01,6.37-3.55,8.58-1.3
				c1.79,1.83,0.99,4.75,0.08,7.07c2.05-1.7,5.86-0.51,6.49,2.04c0.45,1.83-0.52,3.83,0.23,5.57c1.19-1.46,3.91-0.75,4.81,0.9
				s0.43,3.68-0.38,5.36c1.44-0.68,3.04-1.37,4.59-0.97c3.12,0.79,3.44,4.86,3.08,7.92c3.69-0.64,7.23,3.61,5.76,6.91
				c1.74-0.14,3.03,1.85,2.74,3.5c-0.29,1.65-1.6,2.94-2.91,4.05c-1.31,1.11-2.73,2.23-3.34,3.8
				c-10.94-12.92-23.64-24.49-37.69-34.29L1089.23,626.86z"/>
		</g>
		<path class="st16" d="M1216.06,738.6l-5.42-21.51l-3.45-25.37l0.23-2.58c1.28-14.36-9.4-27.15-23.76-28.44l-53.1-4.76
			c-0.74-0.07-1.48-0.05-2.2,0.03l-19.99-21.91l-12.63-16.29c-0.1-4.44-1.3-7.78-3.05-7.93c-2.13-0.19-4.28,4.35-4.86,10.21
			l-22.71,24.33c-0.98,1.06-1.17,2.63-0.45,3.88l2.62,4.59c0.87,1.52,2.77,2.1,4.34,1.3l24.52-12.37l21.25,29.86l-0.37,0.71
			l-4.78,63.62l10.13,0.91l8.46-40.09l2.48,0.22l1.1,37.7l8.22,0.74l3.89-37.25l31.85,2.86l-3.04,40.57l10.13,0.91l8.08-38.25
			l14.54,36.44L1216.06,738.6z"/>
		<circle class="st15" cx="1082.71" cy="630.76" r="1.38"/>
		<polygon class="st15" points="1112.55,732.16 1111.89,740.13 1121.68,739.61 1123.07,733.7 		"/>
		<polygon class="st15" points="1175.46,740.03 1174.97,745.78 1185.1,746.69 1185.47,742.55 		"/>
		<polygon class="st15" points="1134.37,732.26 1134.83,738.01 1143.11,738.75 1142.9,733.02 		"/>
		<polygon class="st15" points="1206.96,737.89 1210.21,746.16 1217.95,742.67 1215.48,736.28 		"/>
		<g>
			<path class="st15" d="M1228.98,713.12c2.73,3.05,6.36,5.27,10.2,5.12c-7.3-5.61-9.63-16.67-11.54-26.72
				c-1.91-10.04-4.57-21.1-12.15-26.21c-6.55-4.42-15.83-2.54-20.98,4.25c0,0,15.37-2.98,22.11,12.55c0.39,0.9,0.69,1.84,0.94,2.82
				C1218.83,689.85,1223.75,707.93,1228.98,713.12z"/>
		</g>
	</g>
	<g>
		<g>
			<path class="st12" d="M1081.53,716.55c-2.7-0.9-4.86-4.22-7.85-2.32c-0.38,0.25-0.72,0.56-1.01,0.89
				c-3.67,4.14-7.5,8.53-8.92,13.91c-1.34,5.09,0.11,11.31,4.69,13.91c2.74,1.56,6.3,1.56,9.04-0.02c2.1-1.2,3.8-3.27,6.18-3.71
				c1.6-0.29,3.22,0.22,4.85,0.27c2.89,0.08,5.77-1.43,7.34-3.85s1.78-5.67,0.52-8.27c-1.29-2.68-3.86-4.46-5.84-6.68
				c-2.02-2.27-4.47-5.4-7.32-4.34l0,0C1082.7,716.65,1082.09,716.73,1081.53,716.55z"/>
		</g>
		<path class="st17" d="M1084.89,728.01c-1.04-0.07-1.16,1.54-0.12,1.61C1085.81,729.69,1085.92,728.08,1084.89,728.01z"/>
		<path class="st17" d="M1088.42,731.18c-0.02-0.14-0.09-0.26-0.18-0.37c-0.05-0.05-0.11-0.09-0.16-0.14
			c-0.12-0.08-0.25-0.13-0.4-0.14l-0.33-0.02c-0.11-0.02-0.21,0-0.32,0.05c-0.11,0.02-0.2,0.07-0.27,0.15
			c-0.08,0.07-0.15,0.15-0.19,0.25c-0.06,0.09-0.09,0.2-0.09,0.3c0.01,0.07,0.01,0.15,0.02,0.21c0.02,0.14,0.09,0.26,0.18,0.37
			c0.05,0.05,0.11,0.09,0.16,0.14c0.12,0.08,0.25,0.13,0.4,0.14l0.33,0.02c0.11,0.02,0.21,0,0.32-0.05c0.11-0.02,0.2-0.07,0.27-0.15
			c0.08-0.07,0.15-0.15,0.19-0.25c0.06-0.09,0.09-0.2,0.09-0.3C1088.43,731.33,1088.42,731.25,1088.42,731.18z"/>
		<path class="st17" d="M1079.82,720.33c-0.62-0.05-0.7,0.92-0.07,0.97C1080.38,721.34,1080.45,720.38,1079.82,720.33z"/>
		<path class="st17" d="M1082.35,723.86c-0.02-0.08-0.05-0.16-0.11-0.22c-0.03-0.02-0.07-0.06-0.09-0.08
			c-0.07-0.05-0.16-0.07-0.24-0.08l-0.33-0.02c-0.07-0.01-0.13,0-0.19,0.02c-0.07,0.02-0.11,0.04-0.16,0.09
			c-0.05,0.04-0.09,0.09-0.11,0.15c-0.03,0.06-0.05,0.11-0.06,0.18c0,0.04,0.01,0.09,0.01,0.13c0.02,0.08,0.05,0.16,0.11,0.22
			l0.09,0.08c0.07,0.05,0.16,0.07,0.24,0.08l0.33,0.02c0.07,0.01,0.13,0,0.19-0.02c0.07-0.02,0.11-0.04,0.16-0.09
			c0.05-0.04,0.09-0.09,0.11-0.15c0.03-0.06,0.05-0.11,0.06-0.18C1082.36,723.95,1082.36,723.9,1082.35,723.86z"/>
		<path class="st17" d="M1078.4,735.14c-0.62-0.05-0.7,0.92-0.07,0.97C1078.94,736.16,1079.02,735.18,1078.4,735.14z"/>
		<path class="st17" d="M1073.81,738.78l-0.99-0.07c-0.12-0.01-0.26,0.03-0.35,0.11c-0.09,0.08-0.16,0.21-0.16,0.34
			c-0.01,0.26,0.18,0.5,0.45,0.52l0.99,0.07c0.12,0.01,0.26-0.03,0.35-0.11s0.16-0.21,0.16-0.34
			C1074.27,739.04,1074.08,738.8,1073.81,738.78z"/>
		<path class="st17" d="M1077.41,738.42c-0.05-0.03-0.09-0.07-0.14-0.1c-0.02-0.02-0.04-0.03-0.06-0.05
			c-0.02-0.01-0.02-0.02-0.03-0.03c0.02,0.02,0.04,0.03,0.06,0.05c-0.08-0.06-0.16-0.16-0.22-0.24c-0.02-0.02-0.03-0.04-0.04-0.06
			c-0.02-0.04-0.05-0.08-0.07-0.12c-0.04-0.08-0.07-0.16-0.11-0.25c-0.03-0.12-0.06-0.25-0.07-0.38c0-0.03,0-0.07,0-0.09
			c0.01-0.25-0.18-0.52-0.45-0.52c-0.25-0.01-0.52,0.18-0.52,0.45c-0.02,0.84,0.39,1.68,1.1,2.14c0.21,0.14,0.53,0.11,0.68-0.12
			C1077.68,738.88,1077.64,738.57,1077.41,738.42z"/>
		<path class="st17" d="M1068.34,733.7c-0.02-0.07-0.04-0.11-0.09-0.16c-0.04-0.05-0.09-0.09-0.15-0.11
			c-0.06-0.03-0.11-0.05-0.18-0.06c-0.04,0-0.09,0.01-0.13,0.01c-0.08,0.02-0.16,0.05-0.22,0.11l-0.08,0.09
			c-0.05,0.07-0.07,0.16-0.08,0.24l-0.02,0.33c-0.01,0.07,0,0.13,0.02,0.19c0.02,0.07,0.04,0.11,0.09,0.16
			c0.04,0.05,0.09,0.09,0.15,0.11c0.06,0.03,0.11,0.05,0.18,0.06c0.04,0,0.09-0.01,0.13-0.01c0.08-0.02,0.16-0.05,0.22-0.11
			c0.02-0.03,0.06-0.07,0.08-0.09c0.05-0.07,0.07-0.16,0.08-0.24l0.02-0.33C1068.37,733.82,1068.36,733.76,1068.34,733.7z"/>
		<path class="st17" d="M1086.99,735.45c-0.62-0.05-0.7,0.92-0.07,0.97C1087.54,736.46,1087.61,735.49,1086.99,735.45z"/>
		<path class="st17" d="M1084.5,719.85c-0.17-0.01-0.34,0.11-0.34,0.3l-0.07,0.99c-0.02,0.17,0.12,0.34,0.3,0.34
			c0.17,0.01,0.34-0.11,0.34-0.3l0.07-0.99C1084.81,720.02,1084.67,719.85,1084.5,719.85z"/>
		<path class="st17" d="M1087.14,724.9c-0.08-0.34-0.16-0.68-0.25-1.01c-0.04-0.16-0.2-0.29-0.38-0.25
			c-0.16,0.04-0.29,0.2-0.25,0.38c0.08,0.34,0.16,0.68,0.25,1.01c0.04,0.16,0.2,0.29,0.38,0.25
			C1087.05,725.25,1087.18,725.08,1087.14,724.9z"/>
		<path class="st17" d="M1090.75,724.71c-0.28-0.18-0.71-0.15-0.9,0.16l-1.14,1.91c-0.17,0.29-0.15,0.7,0.16,0.9
			c0.28,0.18,0.71,0.15,0.9-0.16l1.14-1.91C1091.09,725.31,1091.06,724.9,1090.75,724.71z"/>
		<path class="st17" d="M1092.82,728.42c-0.83-0.07-0.92,1.23-0.1,1.29C1093.54,729.77,1093.64,728.49,1092.82,728.42z"/>
	</g>
	<g>
		<g>
			<path class="st11" d="M1043.97,711.12c-1.4-1.33-1.77-3.98-4.15-3.67c-0.3,0.04-0.6,0.13-0.88,0.25
				c-3.44,1.48-7.04,3.07-9.45,5.96c-2.28,2.73-3.18,6.96-1.12,9.86c1.23,1.74,3.41,2.76,5.54,2.59c1.63-0.14,3.27-0.92,4.85-0.5
				c1.06,0.28,1.92,1.06,2.89,1.56c1.74,0.88,3.94,0.78,5.6-0.25c1.65-1.03,2.72-2.97,2.69-4.92c-0.02-2.01-1.09-3.84-1.66-5.76
				c-0.59-1.96-1.19-4.59-3.23-4.76l0,0C1044.66,711.52,1044.26,711.4,1043.97,711.12z"/>
		</g>
		<path class="st12" d="M1042.74,719.1c-0.61-0.34-1.15,0.61-0.54,0.96C1042.82,720.4,1043.36,719.45,1042.74,719.1z"/>
		<path class="st12" d="M1043.99,722.06c0.02-0.09,0.02-0.19-0.01-0.28c-0.02-0.04-0.03-0.08-0.06-0.13
			c-0.05-0.08-0.11-0.16-0.2-0.2l-0.2-0.11c-0.07-0.04-0.13-0.06-0.2-0.07c-0.07-0.02-0.14-0.01-0.21,0.02
			c-0.07,0.02-0.13,0.05-0.19,0.1c-0.07,0.04-0.11,0.09-0.15,0.16c-0.02,0.05-0.03,0.09-0.06,0.14c-0.02,0.09-0.02,0.19,0.01,0.28
			c0.02,0.04,0.03,0.08,0.06,0.13c0.05,0.08,0.11,0.16,0.2,0.2l0.2,0.11c0.07,0.04,0.13,0.06,0.2,0.07
			c0.07,0.02,0.14,0.01,0.21-0.02c0.07-0.02,0.13-0.05,0.19-0.1c0.07-0.04,0.11-0.09,0.15-0.16
			C1043.96,722.15,1043.97,722.11,1043.99,722.06z"/>
		<path class="st12" d="M1041.84,712.95c-0.37-0.2-0.69,0.37-0.32,0.57C1041.89,713.73,1042.21,713.16,1041.84,712.95z"/>
		<path class="st12" d="M1042.38,715.84c0.02-0.06,0.02-0.11,0-0.16c-0.01-0.02-0.02-0.05-0.03-0.07c-0.03-0.05-0.07-0.09-0.12-0.12
			l-0.2-0.11c-0.04-0.02-0.08-0.03-0.12-0.04c-0.04-0.01-0.08-0.01-0.12,0.01c-0.04,0.01-0.08,0.03-0.11,0.06
			c-0.04,0.02-0.07,0.06-0.09,0.1c-0.01,0.02-0.02,0.06-0.03,0.08c-0.02,0.06-0.02,0.11,0,0.16l0.03,0.07
			c0.03,0.05,0.07,0.09,0.12,0.12l0.2,0.11c0.04,0.02,0.08,0.03,0.12,0.04c0.04,0.01,0.08,0.01,0.12-0.01
			c0.04-0.01,0.08-0.03,0.11-0.06c0.04-0.02,0.07-0.06,0.09-0.1C1042.35,715.89,1042.37,715.87,1042.38,715.84z"/>
		<path class="st12" d="M1036.71,721.61c-0.37-0.2-0.69,0.37-0.32,0.57S1037.09,721.82,1036.71,721.61z"/>
		<path class="st12" d="M1032.87,722.52l-0.58-0.33c-0.07-0.04-0.17-0.05-0.25-0.03c-0.07,0.02-0.16,0.08-0.2,0.16
			c-0.08,0.16-0.03,0.36,0.12,0.45l0.58,0.33c0.07,0.04,0.17,0.05,0.25,0.03c0.07-0.02,0.16-0.08,0.2-0.16
			C1033.07,722.82,1033.03,722.61,1032.87,722.52z"/>
		<path class="st12" d="M1035.17,723.34c-0.02-0.03-0.04-0.07-0.06-0.1c-0.01-0.02-0.02-0.03-0.02-0.04s-0.01-0.02-0.02-0.03
			c0.01,0.02,0.02,0.03,0.02,0.05c-0.03-0.06-0.05-0.15-0.07-0.21c0-0.02-0.01-0.03-0.01-0.05c0-0.03-0.01-0.07-0.01-0.1
			c0-0.06,0-0.12,0.01-0.18c0.02-0.09,0.03-0.17,0.07-0.25c0.01-0.02,0.02-0.04,0.02-0.06c0.07-0.16,0.04-0.37-0.12-0.45
			c-0.16-0.07-0.37-0.04-0.45,0.12c-0.25,0.51-0.24,1.14,0.07,1.62c0.09,0.15,0.29,0.21,0.45,0.11
			C1035.21,723.7,1035.27,723.5,1035.17,723.34z"/>
		<path class="st12" d="M1030.97,717.84c0.01-0.04,0.01-0.08-0.01-0.12c-0.01-0.04-0.03-0.08-0.06-0.11
			c-0.02-0.04-0.06-0.07-0.1-0.09c-0.02-0.01-0.06-0.02-0.08-0.03c-0.06-0.02-0.11-0.02-0.16,0l-0.07,0.03
			c-0.05,0.03-0.09,0.07-0.12,0.12l-0.11,0.2c-0.02,0.04-0.03,0.08-0.04,0.12c-0.01,0.04-0.01,0.08,0.01,0.12
			c0.01,0.04,0.03,0.08,0.06,0.11c0.02,0.04,0.06,0.07,0.1,0.09c0.02,0.01,0.06,0.02,0.08,0.03c0.06,0.02,0.11,0.02,0.16,0
			c0.02-0.01,0.05-0.02,0.07-0.03c0.05-0.03,0.09-0.07,0.12-0.12l0.11-0.2C1030.96,717.93,1030.97,717.89,1030.97,717.84z"/>
		<path class="st12" d="M1041.89,724.27c-0.37-0.2-0.69,0.37-0.32,0.57C1041.94,725.04,1042.26,724.47,1041.89,724.27z"/>
		<path class="st12" d="M1044.84,713.99c-0.11-0.06-0.24-0.02-0.29,0.08l-0.33,0.58c-0.06,0.1-0.02,0.25,0.08,0.29
			c0.11,0.06,0.24,0.02,0.29-0.08l0.33-0.58C1044.99,714.19,1044.95,714.05,1044.84,713.99z"/>
		<path class="st12" d="M1045,717.85c0.05-0.23,0.09-0.46,0.14-0.7c0.02-0.11-0.04-0.24-0.16-0.26c-0.11-0.02-0.24,0.04-0.26,0.16
			c-0.05,0.23-0.09,0.46-0.14,0.7c-0.02,0.11,0.04,0.24,0.16,0.26C1044.86,718.03,1044.99,717.97,1045,717.85z"/>
		<path class="st12" d="M1047.28,718.77c-0.12-0.19-0.39-0.29-0.6-0.16l-1.24,0.84c-0.19,0.13-0.29,0.39-0.16,0.6
			c0.12,0.19,0.39,0.29,0.6,0.16l1.24-0.84C1047.31,719.24,1047.41,718.97,1047.28,718.77z"/>
		<path class="st12" d="M1047.48,721.63c-0.49-0.28-0.92,0.48-0.43,0.76C1047.53,722.67,1047.97,721.91,1047.48,721.63z"/>
	</g>
	<g>
		
			<rect x="725.72" y="674.38" transform="matrix(0.0268 -0.9996 0.9996 0.0268 40.4452 1430.5764)" class="st18" width="58.44" height="40.27"/>
		<path class="st18" d="M741.15,716.2l-7.45-0.2c-2.22-0.06-3.99-1.92-3.93-4.15l1.33-49.72c0.06-2.22,1.92-3.99,4.15-3.93l7.45,0.2
			c2.22,0.06,3.99,1.92,3.93,4.15l-1.33,49.72C745.25,714.49,743.38,716.27,741.15,716.2z"/>
		<path class="st18" d="M775.94,717.14l-7.45-0.2c-2.22-0.06-3.99-1.92-3.93-4.15l1.33-49.72c0.06-2.22,1.92-3.99,4.15-3.93
			l7.45,0.2c2.22,0.06,3.99,1.92,3.93,4.15l-1.33,49.72C780.04,715.43,778.17,717.19,775.94,717.14z"/>
		<path class="st18" d="M787.64,730.83c0.15-5.61-4.32-10.33-9.94-10.48l-46.54-1.24c-5.61-0.15-10.33,4.32-10.48,9.94l-0.17,6.47
			l66.96,1.79L787.64,730.83z"/>
		<path class="st14" d="M737.77,719.28c0,0,18.19,5.95,32.53,0.87L737.77,719.28z"/>
		<path class="st14" d="M743.61,663.04c0,0,10.98,13.82,24.43,0.65l-16.22-11.94L743.61,663.04z"/>
		<g>
			<circle class="st18" cx="756.97" cy="620.1" r="16.54"/>
			<path class="st18" d="M778.31,631.74l-43.26-1.15c-2.1-0.06-3.76-1.82-3.72-3.91l0.19-7.04c0.06-2.1,1.82-3.76,3.91-3.72
				l43.26,1.15c2.1,0.06,3.76,1.82,3.72,3.91l-0.19,7.04C782.17,630.13,780.41,631.8,778.31,631.74z"/>
			<path class="st18" d="M755.72,667.11L755.72,667.11c-12.64-0.34-21.14-11.47-19.19-22.89l3.88-22.74
				c1.18-6.91,8.7-11.8,16.84-11.58l0,0c8.14,0.22,15.39,5.5,16.2,12.46l2.65,22.92C777.44,656.79,768.36,667.44,755.72,667.11z"/>
			<path class="st18" d="M736.13,650.98L736.13,650.98c-2.29-0.2-3.54-4.06-2.9-7.95l1.29-7.73c0.39-2.35,1.88-3.96,3.36-3.83l0,0
				c1.47,0.13,2.65,1.99,2.62,4.37l-0.11,7.83C740.34,647.61,738.42,651.19,736.13,650.98z"/>
			<path class="st18" d="M776.21,652.06L776.21,652.06c2.3-0.08,3.76-3.87,3.31-7.78l-0.88-7.78c-0.27-2.37-1.67-4.06-3.15-4l0,0
				c-1.48,0.06-2.76,1.84-2.85,4.22l-0.31,7.83C772.18,648.46,773.91,652.14,776.21,652.06z"/>
		</g>
		<path class="st14" d="M745.62,630.58c0,0,12.98,2.94,23.15,0.62L745.62,630.58z"/>
		<path class="st14" d="M745.43,616.19c0,0,13.12-2.24,23.15,0.62L745.43,616.19z"/>
		<circle class="st14" cx="748.22" cy="640.58" r="1.01"/>
		<circle class="st14" cx="764.9" cy="641.02" r="1.01"/>
		<path class="st14" d="M759.81,645c-0.25,2.86-1.85,5.24-3.85,5.13l0,0c-1.87-0.11-3.14-2.35-3.24-4.99
			c-0.29,3.1,1.07,6.02,3.22,6.14l0,0c2.25,0.12,3.99-2.91,3.88-6.23L759.81,645z"/>
		<path class="st14" d="M753.13,647.41c-0.2,1.56-1.61,2.86-3.4,2.78l0,0c-1.68-0.07-2.85-1.33-2.96-2.77
			c-0.22,1.7,1.02,3.32,2.95,3.4l0,0c2.02,0.09,3.55-1.56,3.42-3.39V647.41z"/>
		<path class="st14" d="M759.44,647.01c0.12,1.57,1.46,2.95,3.25,2.96l0,0c1.69,0.02,2.91-1.17,3.1-2.61
			c0.13,1.71-1.19,3.26-3.12,3.24l0,0c-2.02-0.02-3.46-1.75-3.24-3.56L759.44,647.01z"/>
		<path class="st14" d="M755.79,659.09c-3.34-0.09-6.03-2.19-6.31-4.82c-0.03,0.18-0.05,0.37-0.05,0.55
			c-0.07,2.87,2.76,5.28,6.33,5.37c3.58,0.1,6.53-2.15,6.6-5.03c0.01-0.19,0-0.37-0.02-0.56
			C761.93,657.22,759.13,659.18,755.79,659.09z"/>
		
			<ellipse transform="matrix(0.0268 -0.9996 0.9996 0.0268 137.3077 1383.3513)" class="st14" cx="779.12" cy="621.16" rx="2.01" ry="1.15"/>
		
			<ellipse transform="matrix(0.0268 -0.9996 0.9996 0.0268 131.2159 1382.9574)" class="st14" cx="775.87" cy="624.09" rx="1.01" ry="1.15"/>
		<circle class="st14" cx="779.33" cy="628.75" r="0.72"/>
		
			<ellipse transform="matrix(0.0268 -0.9996 0.9996 0.0268 91.1746 1425.3693)" class="st14" cx="777.64" cy="665.86" rx="1.01" ry="1.15"/>
		<circle class="st14" cx="776.18" cy="671.25" r="0.72"/>
		<circle class="st14" cx="775.38" cy="668.92" r="0.43"/>
		<circle class="st14" cx="773.53" cy="662.83" r="0.72"/>
		
			<ellipse transform="matrix(0.9999 -0.0167 0.0167 0.9999 -12.0161 12.9611)" class="st14" cx="770.08" cy="725.99" rx="1.01" ry="1.15"/>
		<circle class="st14" cx="764.56" cy="724.78" r="0.72"/>
		<circle class="st14" cx="766.85" cy="723.88" r="0.43"/>
		<circle class="st14" cx="772.85" cy="721.77" r="0.72"/>
		<circle class="st14" cx="765.76" cy="608.82" r="0.72"/>
		
			<ellipse transform="matrix(0.3947 -0.9188 0.9188 0.3947 -112.2505 1054.158)" class="st14" cx="743.95" cy="612.27" rx="1.87" ry="0.57"/>
		<circle class="st14" cx="767.87" cy="610.75" r="0.57"/>
	</g>
	<g>
		<g>
			<path class="st12" d="M722.69,722.5c-2.1-0.61-3.85-3.1-6.09-1.56c-0.29,0.2-0.53,0.44-0.75,0.71
				c-2.71,3.27-5.52,6.74-6.47,10.91c-0.89,3.94,0.39,8.68,3.98,10.55c2.14,1.12,4.88,1.02,6.94-0.25c1.58-0.98,2.82-2.61,4.64-3.01
				c1.22-0.26,2.48,0.08,3.73,0.07c2.22-0.02,4.39-1.25,5.52-3.16c1.14-1.91,1.2-4.4,0.17-6.37c-1.06-2.02-3.09-3.31-4.67-4.97
				c-1.61-1.69-3.58-4.03-5.73-3.13l0,0C723.59,722.55,723.12,722.62,722.69,722.5z"/>
		</g>
		<path class="st17" d="M725.58,731.2c-0.8-0.03-0.85,1.21-0.05,1.24S726.38,731.23,725.58,731.2z"/>
		<path class="st17" d="M728.37,733.54c-0.02-0.11-0.07-0.2-0.15-0.28c-0.04-0.03-0.08-0.07-0.12-0.1c-0.1-0.06-0.2-0.09-0.31-0.1
			l-0.25-0.01c-0.08-0.01-0.16,0.01-0.24,0.04c-0.08,0.02-0.15,0.07-0.2,0.12c-0.07,0.06-0.11,0.12-0.14,0.2
			c-0.04,0.07-0.07,0.16-0.07,0.24c0.01,0.06,0.01,0.11,0.02,0.16c0.02,0.11,0.07,0.2,0.15,0.28c0.04,0.03,0.08,0.07,0.12,0.1
			c0.1,0.06,0.2,0.09,0.31,0.1l0.25,0.01c0.08,0.01,0.16-0.01,0.24-0.04c0.08-0.02,0.15-0.07,0.2-0.12c0.07-0.06,0.11-0.12,0.14-0.2
			c0.04-0.07,0.07-0.16,0.07-0.24C728.39,733.65,728.38,733.6,728.37,733.54z"/>
		<path class="st17" d="M721.48,725.44c-0.48-0.02-0.51,0.73-0.03,0.74C721.93,726.21,721.96,725.47,721.48,725.44z"/>
		<path class="st17" d="M723.52,728.09c-0.02-0.07-0.05-0.12-0.09-0.17c-0.02-0.02-0.05-0.04-0.07-0.06
			c-0.06-0.03-0.12-0.06-0.19-0.06l-0.25-0.01c-0.05,0-0.1,0.01-0.15,0.02c-0.05,0.02-0.09,0.04-0.12,0.07
			c-0.04,0.03-0.07,0.07-0.08,0.11c-0.02,0.04-0.04,0.09-0.04,0.14c0,0.03,0.01,0.07,0.01,0.1c0.02,0.07,0.05,0.12,0.09,0.17
			l0.07,0.06c0.06,0.03,0.12,0.06,0.19,0.06l0.25,0.01c0.05,0,0.1-0.01,0.15-0.02c0.05-0.02,0.09-0.04,0.12-0.07
			c0.04-0.03,0.07-0.07,0.08-0.11c0.02-0.04,0.04-0.09,0.04-0.14C723.52,728.15,723.52,728.12,723.52,728.09z"/>
		<path class="st17" d="M720.78,736.85c-0.48-0.02-0.51,0.73-0.03,0.74C721.24,737.61,721.27,736.87,720.78,736.85z"/>
		<path class="st17" d="M717.37,739.77l-0.76-0.03c-0.1,0-0.2,0.03-0.27,0.1c-0.07,0.07-0.12,0.16-0.12,0.26
			c0,0.2,0.15,0.38,0.36,0.38l0.76,0.03c0.1,0,0.2-0.03,0.27-0.1c0.07-0.07,0.12-0.16,0.12-0.26
			C717.73,739.95,717.58,739.77,717.37,739.77z"/>
		<path class="st17" d="M720.13,739.4c-0.04-0.02-0.07-0.05-0.11-0.07c-0.02-0.01-0.03-0.02-0.04-0.03
			c-0.01-0.01-0.02-0.02-0.03-0.02c0.02,0.02,0.03,0.02,0.04,0.04c-0.07-0.04-0.12-0.12-0.17-0.18c-0.01-0.02-0.02-0.03-0.03-0.04
			c-0.02-0.03-0.04-0.06-0.06-0.09c-0.03-0.06-0.06-0.12-0.09-0.19c-0.03-0.09-0.06-0.19-0.07-0.29c0-0.02,0-0.05,0-0.07
			c0-0.2-0.15-0.38-0.36-0.38c-0.2,0-0.38,0.15-0.38,0.36c0,0.65,0.34,1.28,0.91,1.6c0.16,0.1,0.41,0.07,0.52-0.11
			C720.34,739.74,720.31,739.5,720.13,739.4z"/>
		<path class="st17" d="M713.03,736.02c-0.02-0.05-0.04-0.09-0.07-0.12c-0.03-0.04-0.07-0.07-0.11-0.08
			c-0.04-0.02-0.09-0.04-0.14-0.04c-0.03,0-0.07,0.01-0.1,0.01c-0.07,0.02-0.12,0.05-0.17,0.09l-0.06,0.07
			c-0.03,0.06-0.06,0.12-0.06,0.19l-0.01,0.25c0,0.05,0.01,0.1,0.02,0.15c0.02,0.05,0.04,0.09,0.07,0.12
			c0.03,0.04,0.07,0.07,0.11,0.08c0.04,0.02,0.09,0.04,0.14,0.04c0.03,0,0.07-0.01,0.1-0.01c0.07-0.02,0.12-0.05,0.17-0.09
			c0.02-0.02,0.04-0.05,0.06-0.07c0.03-0.06,0.06-0.12,0.06-0.19l0.01-0.25C713.06,736.11,713.06,736.07,713.03,736.02z"/>
		<path class="st17" d="M727.39,736.85c-0.48-0.02-0.51,0.73-0.03,0.74C727.84,737.61,727.87,736.87,727.39,736.85z"/>
		<path class="st17" d="M725.05,724.94c-0.13,0-0.25,0.1-0.26,0.24l-0.03,0.76c-0.01,0.13,0.11,0.26,0.24,0.26s0.25-0.1,0.26-0.24
			l0.03-0.76C725.3,725.08,725.19,724.94,725.05,724.94z"/>
		<path class="st17" d="M727.22,728.76c-0.07-0.25-0.15-0.52-0.22-0.77c-0.03-0.12-0.16-0.22-0.3-0.19
			c-0.12,0.03-0.22,0.16-0.19,0.3c0.07,0.25,0.15,0.52,0.22,0.77c0.03,0.12,0.16,0.22,0.3,0.19
			C727.16,729.02,727.26,728.89,727.22,728.76z"/>
		<path class="st17" d="M729.99,728.51c-0.22-0.13-0.56-0.09-0.69,0.16l-0.82,1.49c-0.12,0.23-0.09,0.55,0.16,0.69
			c0.22,0.13,0.56,0.09,0.69-0.16l0.82-1.49C730.26,728.97,730.23,728.65,729.99,728.51z"/>
		<path class="st17" d="M731.67,731.3c-0.64-0.02-0.68,0.97-0.04,0.99C732.27,732.33,732.31,731.33,731.67,731.3z"/>
	</g>
</g>
</svg>
